<?xml version="1.0" encoding="UTF-8" standalone="no"?>
<svg
   xmlns:dc="http://purl.org/dc/elements/1.1/"
   xmlns:cc="http://creativecommons.org/ns#"
   xmlns:rdf="http://www.w3.org/1999/02/22-rdf-syntax-ns#"
   xmlns:svg="http://www.w3.org/2000/svg"
   xmlns="http://www.w3.org/2000/svg"
   id="svg91"
   version="1.1"
   viewBox="-370.04 -87.696 739.848 89.552"
   class="Path_375">
  <metadata
     id="metadata97">
    <rdf:RDF>
      <cc:Work
         rdf:about="">
        <dc:format>image/svg+xml</dc:format>
        <dc:type
           rdf:resource="http://purl.org/dc/dcmitype/StillImage" />
        <dc:title></dc:title>
      </cc:Work>
    </rdf:RDF>
  </metadata>
  <defs
     id="defs95" />
  <path
     d="M -289.0719604492188 0 L -308.2119750976562 0 L -319.5799865722656 -35.95999908447266 L -319.8119812011719 -35.95999908447266 L -330.9479675292969 0 L -350.0879821777344 0 L -370.0399780273438 -57.76799774169922 L -349.5079650878906 -57.76799774169922 L -339.531982421875 -21.22800064086914 L -339.1839904785156 -21.22800064086914 L -328.8599853515625 -57.76799774169922 L -309.719970703125 -57.76799774169922 L -299.0479736328125 -21.22800064086914 L -298.8159790039062 -21.22800064086914 L -288.7239990234375 -57.76799774169922 L -269.0039672851562 -57.76799774169922 L -289.0719604492188 0 Z M -221.7919616699219 -35.49599838256836 C -221.7919616699219 -38.51200103759766 -222.7393035888672 -41.10266494750977 -224.6339721679688 -43.26799774169922 C -226.5286407470703 -45.43333053588867 -229.3706359863281 -46.51599884033203 -233.1599731445312 -46.51599884033203 C -235.0159759521484 -46.51599884033203 -236.7173004150391 -46.22599792480469 -238.2639770507812 -45.64599990844727 C -239.8106384277344 -45.06600189208984 -241.1639709472656 -44.27333450317383 -242.323974609375 -43.26799774169922 C -243.4839630126953 -42.26266860961914 -244.4119720458984 -41.08333587646484 -245.1079711914062 -39.72999954223633 C -245.8039703369141 -38.37666320800781 -246.1906280517578 -36.96533203125 -246.2679748535156 -35.49599838256836 L -221.7919616699219 -35.49599838256836 Z M -204.2759704589844 -28.1879997253418 C -204.2759704589844 -27.4146671295166 -204.2759704589844 -26.64133262634277 -204.2759704589844 -25.86800003051758 C -204.2759704589844 -25.09466743469238 -204.3146362304688 -24.36000061035156 -204.3919677734375 -23.66399955749512 L -246.2679748535156 -23.66399955749512 C -246.1132965087891 -22.04000091552734 -245.6299591064453 -20.5706672668457 -244.8179626464844 -19.2559986114502 C -244.0059661865234 -17.94133377075195 -242.9619750976562 -16.80066680908203 -241.6859741210938 -15.83399963378906 C -240.4099731445312 -14.86733341217041 -238.9793090820312 -14.11333274841309 -237.3939666748047 -13.57199954986572 C -235.8086242675781 -13.03066635131836 -234.1652984619141 -12.76000022888184 -232.4639587402344 -12.76000022888184 C -229.4479675292969 -12.76000022888184 -226.8959655761719 -13.32066631317139 -224.8079681396484 -14.4419994354248 C -222.719970703125 -15.56333351135254 -221.0186309814453 -17.01333427429199 -219.7039642333984 -18.79199981689453 L -206.4799652099609 -10.44000053405762 C -209.1866302490234 -6.496000289916992 -212.7632904052734 -3.460666656494141 -217.2099609375 -1.333999991416931 C -221.6566314697266 0.7926667928695679 -226.8186340332031 1.856000065803528 -232.6959686279297 1.856000065803528 C -237.0266418457031 1.856000065803528 -241.1253051757812 1.179333329200745 -244.9919738769531 -0.1739999949932098 C -248.8586273193359 -1.527333378791809 -252.2419586181641 -3.499333143234253 -255.1419677734375 -6.089999675750732 C -258.0419616699219 -8.680666923522949 -260.3233032226562 -11.87066745758057 -261.9859619140625 -15.66000080108643 C -263.6486511230469 -19.44933319091797 -264.47998046875 -23.77999877929688 -264.47998046875 -28.65199851989746 C -264.47998046875 -33.36933135986328 -263.66796875 -37.64199829101562 -262.0439758300781 -41.46999740600586 C -260.4199829101562 -45.29800033569336 -258.2159729003906 -48.54600143432617 -255.4319610595703 -51.2140007019043 C -252.6479644775391 -53.88199996948242 -249.3612976074219 -55.95066833496094 -245.5719604492188 -57.42000198364258 C -241.7826385498047 -58.88933563232422 -237.6839752197266 -59.62400054931641 -233.2759704589844 -59.62400054931641 C -229.0226287841797 -59.62400054931641 -225.1172943115234 -58.90866851806641 -221.5599670410156 -57.47800064086914 C -218.0026397705078 -56.04733276367188 -214.9479675292969 -53.97866821289062 -212.3959655761719 -51.27199935913086 C -209.8439636230469 -48.56533432006836 -207.8526306152344 -45.27866744995117 -206.4219665527344 -41.4119987487793 C -204.9913024902344 -37.54533386230469 -204.2759704589844 -33.13733291625977 -204.2759704589844 -28.1879997253418 Z M -128.0639801025391 -29.11599922180176 C -128.0639801025391 -25.09466552734375 -128.6826477050781 -21.22799873352051 -129.9199829101562 -17.51599884033203 C -131.1573028564453 -13.80399894714355 -132.9553070068359 -10.53666687011719 -135.3139801025391 -7.714000225067139 C -137.6726379394531 -4.89133358001709 -140.5533142089844 -2.62933349609375 -143.9559783935547 -0.9280000329017639 C -147.358642578125 0.7733333706855774 -151.2253112792969 1.624000072479248 -155.5559844970703 1.624000072479248 C -159.4226531982422 1.624000072479248 -163.0766448974609 0.831333339214325 -166.5179748535156 -0.7540000081062317 C -169.9593048095703 -2.339333295822144 -172.6079864501953 -4.601333141326904 -174.4639892578125 -7.539999961853027 L -174.6959838867188 -7.539999961853027 L -174.6959838867188 0 L -192.2119750976562 0 L -192.2119750976562 -87.69599914550781 L -173.18798828125 -87.69599914550781 L -173.18798828125 -51.61999893188477 L -172.9559783935547 -51.61999893188477 C -171.3319854736328 -53.5533332824707 -169.0506591796875 -55.33200073242188 -166.1119842529297 -56.95600128173828 C -163.1733093261719 -58.58000183105469 -159.5773162841797 -59.39200210571289 -155.323974609375 -59.39200210571289 C -151.1479797363281 -59.39200210571289 -147.3779754638672 -58.58000183105469 -144.0139770507812 -56.95600128173828 C -140.6499786376953 -55.33200073242188 -137.7886505126953 -53.12799835205078 -135.4299926757812 -50.34399795532227 C -133.0713043212891 -47.55999755859375 -131.2539672851562 -44.33133316040039 -129.9779815673828 -40.65799713134766 C -128.7019805908203 -36.98466491699219 -128.0639801025391 -33.13733291625977 -128.0639801025391 -29.11599922180176 Z M -146.3919830322266 -29.11599922180176 C -146.3919830322266 -30.97200012207031 -146.6819763183594 -32.78933334350586 -147.2619781494141 -34.56800079345703 C -147.8419799804688 -36.3466682434082 -148.7119903564453 -37.91266632080078 -149.8719787597656 -39.26599884033203 C -151.031982421875 -40.61933517456055 -152.462646484375 -41.72133636474609 -154.1639862060547 -42.57200241088867 C -155.8653106689453 -43.42266845703125 -157.8373107910156 -43.84799957275391 -160.0799865722656 -43.84799957275391 C -162.2453155517578 -43.84799957275391 -164.1786346435547 -43.42266845703125 -165.8799743652344 -42.57200241088867 C -167.5813140869141 -41.72133636474609 -169.0313110351562 -40.60000228881836 -170.22998046875 -39.20800018310547 C -171.4286499023438 -37.81599807739258 -172.3566436767578 -36.23066711425781 -173.0139770507812 -34.45199966430664 C -173.6713104248047 -32.67333221435547 -173.9999847412109 -30.85599899291992 -173.9999847412109 -29 C -173.9999847412109 -27.14399909973145 -173.6713104248047 -25.3266658782959 -173.0139770507812 -23.54799842834473 C -172.3566436767578 -21.76933288574219 -171.4286499023438 -20.18400001525879 -170.22998046875 -18.79199981689453 C -169.0313110351562 -17.39999961853027 -167.5813140869141 -16.27866554260254 -165.8799743652344 -15.42800045013428 C -164.1786346435547 -14.57733345031738 -162.2453155517578 -14.15200042724609 -160.0799865722656 -14.15200042724609 C -157.8373107910156 -14.15200042724609 -155.8653106689453 -14.57733345031738 -154.1639862060547 -15.42800045013428 C -152.462646484375 -16.27866554260254 -151.031982421875 -17.39999961853027 -149.8719787597656 -18.79199981689453 C -148.7119903564453 -20.18400001525879 -147.8419799804688 -21.78866767883301 -147.2619781494141 -23.60600090026855 C -146.6819763183594 -25.4233341217041 -146.3919830322266 -27.26000022888184 -146.3919830322266 -29.11599922180176 Z M -22.61997985839844 -29.11599922180176 C -22.61997985839844 -25.09466552734375 -23.2386474609375 -21.22799873352051 -24.47598266601562 -17.51599884033203 C -25.71331214904785 -13.80399894714355 -27.51131248474121 -10.53666687011719 -29.86997985839844 -7.714000225067139 C -32.22864532470703 -4.89133358001709 -35.10931396484375 -2.62933349609375 -38.51198196411133 -0.9280000329017639 C -41.91464996337891 0.7733333706855774 -45.78131484985352 1.624000072479248 -50.11198043823242 1.624000072479248 C -53.9786491394043 1.624000072479248 -57.63264846801758 0.831333339214325 -61.07398223876953 -0.7540000081062317 C -64.51531219482422 -2.339333295822144 -67.16397857666016 -4.601333141326904 -69.01998138427734 -7.539999961853027 L -69.25198364257812 -7.539999961853027 L -69.25198364257812 0 L -86.76798248291016 0 L -86.76798248291016 -87.69599914550781 L -67.74398040771484 -87.69599914550781 L -67.74398040771484 -51.61999893188477 L -67.51197814941406 -51.61999893188477 C -65.88797760009766 -53.5533332824707 -63.60664749145508 -55.33200073242188 -60.6679801940918 -56.95600128173828 C -57.72931289672852 -58.58000183105469 -54.1333122253418 -59.39200210571289 -49.87998199462891 -59.39200210571289 C -45.70398330688477 -59.39200210571289 -41.93398284912109 -58.58000183105469 -38.56998062133789 -56.95600128173828 C -35.20598220825195 -55.33200073242188 -32.34465026855469 -53.12799835205078 -29.98598480224609 -50.34399795532227 C -27.62731170654297 -47.55999755859375 -25.80997657775879 -44.33133316040039 -24.53398132324219 -40.65799713134766 C -23.25798034667969 -36.98466491699219 -22.61997985839844 -33.13733291625977 -22.61997985839844 -29.11599922180176 Z M -40.94798278808594 -29.11599922180176 C -40.94798278808594 -30.97200012207031 -41.23798370361328 -32.78933334350586 -41.8179817199707 -34.56800079345703 C -42.39797973632812 -36.3466682434082 -43.26798248291016 -37.91266632080078 -44.42798233032227 -39.26599884033203 C -45.58798217773438 -40.61933517456055 -47.01864624023438 -41.72133636474609 -48.7199821472168 -42.57200241088867 C -50.42131423950195 -43.42266845703125 -52.39331436157227 -43.84799957275391 -54.63598251342773 -43.84799957275391 C -56.80131530761719 -43.84799957275391 -58.73464584350586 -43.42266845703125 -60.43597793579102 -42.57200241088867 C -62.13731384277344 -41.72133636474609 -63.58731460571289 -40.60000228881836 -64.78598022460938 -39.20800018310547 C -65.98464965820312 -37.81599807739258 -66.91265106201172 -36.23066711425781 -67.56997680664062 -34.45199966430664 C -68.22731781005859 -32.67333221435547 -68.55598449707031 -30.85599899291992 -68.55598449707031 -29 C -68.55598449707031 -27.14399909973145 -68.22731781005859 -25.3266658782959 -67.56997680664062 -23.54799842834473 C -66.91265106201172 -21.76933288574219 -65.98464965820312 -20.18400001525879 -64.78598022460938 -18.79199981689453 C -63.58731460571289 -17.39999961853027 -62.13731384277344 -16.27866554260254 -60.43597793579102 -15.42800045013428 C -58.73464584350586 -14.57733345031738 -56.80131530761719 -14.15200042724609 -54.63598251342773 -14.15200042724609 C -52.39331436157227 -14.15200042724609 -50.42131423950195 -14.57733345031738 -48.7199821472168 -15.42800045013428 C -47.01864624023438 -16.27866554260254 -45.58798217773438 -17.39999961853027 -44.42798233032227 -18.79199981689453 C -43.26798248291016 -20.18400001525879 -42.39797973632812 -21.78866767883301 -41.8179817199707 -23.60600090026855 C -41.23798370361328 -25.4233341217041 -40.94798278808594 -27.26000022888184 -40.94798278808594 -29.11599922180176 Z M 26.91201782226562 -42.2239990234375 C 26.06134986877441 -42.45600128173828 25.23001670837402 -42.61066818237305 24.41801834106445 -42.6879997253418 C 23.60601997375488 -42.76533126831055 22.81335258483887 -42.80399703979492 22.04001998901367 -42.80399703979492 C 19.4880199432373 -42.80399703979492 17.34202003479004 -42.33999633789062 15.60202026367188 -41.4119987487793 C 13.86201858520508 -40.48400115966797 12.47001934051514 -39.36266708374023 11.42602157592773 -38.04800033569336 C 10.38201999664307 -36.73333358764648 9.628019332885742 -35.30266571044922 9.164018630981445 -33.75600051879883 C 8.700018882751465 -32.20933151245117 8.468019485473633 -30.85599899291992 8.468019485473633 -29.69600105285645 L 8.468019485473633 0 L -10.55598068237305 0 L -10.55598068237305 -57.76799774169922 L 7.77202033996582 -57.76799774169922 L 7.77202033996582 -49.41600036621094 L 8.004020690917969 -49.41600036621094 C 9.473353385925293 -52.35466384887695 11.56135272979736 -54.75199890136719 14.26802062988281 -56.60800170898438 C 16.97468566894531 -58.4640007019043 20.10668563842773 -59.39200210571289 23.66402053833008 -59.39200210571289 C 24.43735122680664 -59.39200210571289 25.19135093688965 -59.35333251953125 25.92602157592773 -59.27599716186523 C 26.66068840026855 -59.19866561889648 27.2600212097168 -59.08266830444336 27.72401809692383 -58.92800140380859 L 26.91201782226562 -42.2239990234375 Z M 94.54000854492188 -29.11599922180176 C 94.54000854492188 -24.39866638183594 93.68934631347656 -20.12599945068359 91.98801422119141 -16.29799842834473 C 90.28667449951172 -12.46999931335449 87.9666748046875 -9.222000122070312 85.02801513671875 -6.553999900817871 C 82.08934783935547 -3.885999917984009 78.68667602539062 -1.817333459854126 74.82000732421875 -0.3479999899864197 C 70.95334625244141 1.121333360671997 66.81600952148438 1.856000065803528 62.40801239013672 1.856000065803528 C 58.07734298706055 1.856000065803528 53.95934295654297 1.121333360671997 50.05400848388672 -0.3479999899864197 C 46.14867782592773 -1.817333459854126 42.74601364135742 -3.885999917984009 39.84601211547852 -6.553999900817871 C 36.94601058959961 -9.222000122070312 34.64534378051758 -12.46999931335449 32.94401168823242 -16.29799842834473 C 31.24267768859863 -20.12599945068359 30.39201164245605 -24.39866638183594 30.39201164245605 -29.11599922180176 C 30.39201164245605 -33.83333587646484 31.24267768859863 -38.08666610717773 32.94401168823242 -41.87599945068359 C 34.64534378051758 -45.66533279418945 36.94601058959961 -48.87466812133789 39.84601211547852 -51.50400161743164 C 42.74601364135742 -54.13333129882812 46.14867782592773 -56.14399719238281 50.05400848388672 -57.5359992980957 C 53.95934295654297 -58.92800140380859 58.07734298706055 -59.62400054931641 62.40801239013672 -59.62400054931641 C 66.81600952148438 -59.62400054931641 70.95334625244141 -58.92800140380859 74.82000732421875 -57.5359992980957 C 78.68667602539062 -56.14399719238281 82.08934783935547 -54.13333129882812 85.02801513671875 -51.50400161743164 C 87.9666748046875 -48.87466812133789 90.28667449951172 -45.66533279418945 91.98801422119141 -41.87599945068359 C 93.68934631347656 -38.08666610717773 94.54000854492188 -33.83333587646484 94.54000854492188 -29.11599922180176 Z M 76.21200561523438 -29.11599922180176 C 76.21200561523438 -30.97200012207031 75.90267181396484 -32.78933334350586 75.28401184082031 -34.56800079345703 C 74.66535186767578 -36.3466682434082 73.77601623535156 -37.91266632080078 72.61601257324219 -39.26599884033203 C 71.45601654052734 -40.61933517456055 70.02534484863281 -41.72133636474609 68.32401275634766 -42.57200241088867 C 66.6226806640625 -43.42266845703125 64.65068054199219 -43.84799957275391 62.40801239013672 -43.84799957275391 C 60.16534805297852 -43.84799957275391 58.1933479309082 -43.42266845703125 56.49201202392578 -42.57200241088867 C 54.79067611694336 -41.72133636474609 53.37934494018555 -40.61933517456055 52.25801086425781 -39.26599884033203 C 51.13667678833008 -37.91266632080078 50.2860107421875 -36.3466682434082 49.70601272583008 -34.56800079345703 C 49.12601470947266 -32.78933334350586 48.83601379394531 -30.97200012207031 48.83601379394531 -29.11599922180176 C 48.83601379394531 -27.26000022888184 49.12601470947266 -25.44266700744629 49.70601272583008 -23.66399955749512 C 50.2860107421875 -21.88533210754395 51.15600967407227 -20.28066444396973 52.31600952148438 -18.84999847412109 C 53.47600936889648 -17.41933250427246 54.90667724609375 -16.27866554260254 56.60800933837891 -15.42800045013428 C 58.30934524536133 -14.57733345031738 60.28134536743164 -14.15200042724609 62.52401351928711 -14.15200042724609 C 64.76667785644531 -14.15200042724609 66.73868560791016 -14.57733345031738 68.44001770019531 -15.42800045013428 C 70.14134979248047 -16.27866554260254 71.57201385498047 -17.41933250427246 72.73200988769531 -18.84999847412109 C 73.89201354980469 -20.28066444396973 74.76201629638672 -21.88533210754395 75.34201049804688 -23.66399955749512 C 75.92200469970703 -25.44266700744629 76.21200561523438 -27.26000022888184 76.21200561523438 -29.11599922180176 Z M 180.1480255126953 0 L 161.0080261230469 0 L 149.6400146484375 -35.95999908447266 L 149.4080200195312 -35.95999908447266 L 138.2720336914062 0 L 119.1320266723633 0 L 99.18002319335938 -57.76799774169922 L 119.7120208740234 -57.76799774169922 L 129.6880187988281 -21.22800064086914 L 130.0360260009766 -21.22800064086914 L 140.3600158691406 -57.76799774169922 L 159.5000305175781 -57.76799774169922 L 170.1720275878906 -21.22800064086914 L 170.4040222167969 -21.22800064086914 L 180.4960174560547 -57.76799774169922 L 200.2160186767578 -57.76799774169922 L 180.1480255126953 0 Z M 241.6280059814453 -40.71599960327148 C 240.0813446044922 -42.18533325195312 238.2640075683594 -43.42266845703125 236.1759948730469 -44.42799758911133 C 234.0879974365234 -45.43333435058594 231.8840026855469 -45.93600082397461 229.5639953613281 -45.93600082397461 C 227.7853240966797 -45.93600082397461 226.1419982910156 -45.5880012512207 224.6340026855469 -44.89199829101562 C 223.1260070800781 -44.19599914550781 222.3720092773438 -42.99733352661133 222.3720092773438 -41.29600143432617 C 222.3720092773438 -39.67200088500977 223.2033386230469 -38.51200103759766 224.8659973144531 -37.81600189208984 C 226.5286712646484 -37.11999893188477 229.2160034179688 -36.34666442871094 232.9280090332031 -35.49599838256836 C 235.0933380126953 -35.03200149536133 237.2779998779297 -34.37466812133789 239.4819946289062 -33.52400207519531 C 241.6860046386719 -32.67333602905273 243.6773376464844 -31.55200004577637 245.4559936523438 -30.15999984741211 C 247.2346649169922 -28.76799964904785 248.6653289794922 -27.0666675567627 249.7480010986328 -25.05599975585938 C 250.8306732177734 -23.04533195495605 251.3720092773438 -20.64799880981445 251.3720092773438 -17.86400032043457 C 251.3720092773438 -14.22933292388916 250.6373443603516 -11.15533351898193 249.1679992675781 -8.642000198364258 C 247.6986694335938 -6.128666400909424 245.78466796875 -4.098666667938232 243.4259948730469 -2.552000045776367 C 241.0673370361328 -1.005333423614502 238.4186706542969 0.1159999966621399 235.4800109863281 0.812000036239624 C 232.5413360595703 1.508000135421753 229.6026763916016 1.856000065803528 226.6640014648438 1.856000065803528 C 221.9466705322266 1.856000065803528 217.3260040283203 1.102000117301941 212.802001953125 -0.406000018119812 C 208.2779998779297 -1.914000153541565 204.5080108642578 -4.137333393096924 201.4920043945312 -7.076000213623047 L 212.1640014648438 -18.32800102233887 C 213.8653411865234 -16.47200012207031 215.9533386230469 -14.92533397674561 218.4280090332031 -13.6879997253418 C 220.9026641845703 -12.4506664276123 223.5319976806641 -11.83199977874756 226.3160095214844 -11.83199977874756 C 227.8626708984375 -11.83199977874756 229.3899993896484 -12.19933319091797 230.8980102539062 -12.93400001525879 C 232.406005859375 -13.66866683959961 233.1600036621094 -14.96399974822998 233.1600036621094 -16.81999969482422 C 233.1600036621094 -18.59866523742676 232.2320098876953 -19.91333198547363 230.3760070800781 -20.76399993896484 C 228.5200042724609 -21.61466598510742 225.6200103759766 -22.50399971008301 221.6760101318359 -23.4320011138916 C 219.6653442382812 -23.89599990844727 217.6546630859375 -24.51466751098633 215.6439971923828 -25.28800010681152 C 213.6333312988281 -26.06133270263672 211.8353424072266 -27.10533332824707 210.25 -28.42000007629395 C 208.6646728515625 -29.73466682434082 207.3693389892578 -31.35866737365723 206.3639984130859 -33.29199981689453 C 205.3586730957031 -35.22533416748047 204.8560028076172 -37.54533386230469 204.8560028076172 -40.25199890136719 C 204.8560028076172 -43.73199844360352 205.5906677246094 -46.68999862670898 207.0599975585938 -49.12599945068359 C 208.5293426513672 -51.5620002746582 210.4240112304688 -53.5533332824707 212.7440032958984 -55.09999847412109 C 215.0639953613281 -56.64666748046875 217.6353302001953 -57.78733444213867 220.4580078125 -58.52199554443359 C 223.2806701660156 -59.25666427612305 226.0839996337891 -59.62400054931641 228.8679962158203 -59.62400054931641 C 233.1986694335938 -59.62400054931641 237.4326629638672 -58.94733428955078 241.5700073242188 -57.59399795532227 C 245.7073364257812 -56.24066543579102 249.2066650390625 -54.21066665649414 252.0680084228516 -51.50400161743164 L 241.6280059814453 -40.71599960327148 Z M 302.1800231933594 -35.49599838256836 C 302.1800231933594 -38.51200103759766 301.2326965332031 -41.10266494750977 299.3380126953125 -43.26799774169922 C 297.443359375 -45.43333053588867 294.6013488769531 -46.51599884033203 290.81201171875 -46.51599884033203 C 288.9560241699219 -46.51599884033203 287.2546691894531 -46.22599792480469 285.7080078125 -45.64599990844727 C 284.1613464355469 -45.06600189208984 282.8080139160156 -44.27333450317383 281.6480102539062 -43.26799774169922 C 280.4880065917969 -42.26266860961914 279.5600280761719 -41.08333587646484 278.864013671875 -39.72999954223633 C 278.1679992675781 -38.37666320800781 277.7813415527344 -36.96533203125 277.7040100097656 -35.49599838256836 L 302.1800231933594 -35.49599838256836 Z M 319.6960144042969 -28.1879997253418 C 319.6960144042969 -27.4146671295166 319.6960144042969 -26.64133262634277 319.6960144042969 -25.86800003051758 C 319.6960144042969 -25.09466743469238 319.6573486328125 -24.36000061035156 319.5800170898438 -23.66399955749512 L 277.7040100097656 -23.66399955749512 C 277.8586730957031 -22.04000091552734 278.3420104980469 -20.5706672668457 279.1540222167969 -19.2559986114502 C 279.9660034179688 -17.94133377075195 281.010009765625 -16.80066680908203 282.2860107421875 -15.83399963378906 C 283.56201171875 -14.86733341217041 284.99267578125 -14.11333274841309 286.5780029296875 -13.57199954986572 C 288.1633605957031 -13.03066635131836 289.8067016601562 -12.76000022888184 291.5080261230469 -12.76000022888184 C 294.5240173339844 -12.76000022888184 297.0760192871094 -13.32066631317139 299.1640319824219 -14.4419994354248 C 301.2520141601562 -15.56333351135254 302.9533386230469 -17.01333427429199 304.2680053710938 -18.79199981689453 L 317.4920043945312 -10.44000053405762 C 314.7853393554688 -6.496000289916992 311.2086791992188 -3.460666656494141 306.7620239257812 -1.333999991416931 C 302.3153381347656 0.7926667928695679 297.1533508300781 1.856000065803528 291.2760009765625 1.856000065803528 C 286.9453430175781 1.856000065803528 282.8466796875 1.179333329200745 278.9800109863281 -0.1739999949932098 C 275.1133422851562 -1.527333378791809 271.7300109863281 -3.499333143234253 268.8300170898438 -6.089999675750732 C 265.9300231933594 -8.680666923522949 263.648681640625 -11.87066745758057 261.9860229492188 -15.66000080108643 C 260.3233337402344 -19.44933319091797 259.4920043945312 -23.77999877929688 259.4920043945312 -28.65199851989746 C 259.4920043945312 -33.36933135986328 260.3040161132812 -37.64199829101562 261.9280090332031 -41.46999740600586 C 263.552001953125 -45.29800033569336 265.7560119628906 -48.54600143432617 268.5400085449219 -51.2140007019043 C 271.3240051269531 -53.88199996948242 274.6106872558594 -55.95066833496094 278.4000244140625 -57.42000198364258 C 282.1893615722656 -58.88933563232422 286.2880249023438 -59.62400054931641 290.6960144042969 -59.62400054931641 C 294.9493408203125 -59.62400054931641 298.8546752929688 -58.90866851806641 302.4120178222656 -57.47800064086914 C 305.9693603515625 -56.04733276367188 309.0240173339844 -53.97866821289062 311.5760192871094 -51.27199935913086 C 314.1280212402344 -48.56533432006836 316.1193542480469 -45.27866744995117 317.5500183105469 -41.4119987487793 C 318.9806823730469 -37.54533386230469 319.6960144042969 -33.13733291625977 319.6960144042969 -28.1879997253418 Z M 368.9960021972656 -42.2239990234375 C 368.1453247070312 -42.45600128173828 367.3139953613281 -42.61066818237305 366.5020141601562 -42.6879997253418 C 365.6900024414062 -42.76533126831055 364.8973388671875 -42.80399703979492 364.1239929199219 -42.80399703979492 C 361.572021484375 -42.80399703979492 359.426025390625 -42.33999633789062 357.6860046386719 -41.4119987487793 C 355.9459838867188 -40.48400115966797 354.5539855957031 -39.36266708374023 353.510009765625 -38.04800033569336 C 352.4660034179688 -36.73333358764648 351.7120056152344 -35.30266571044922 351.2480163574219 -33.75600051879883 C 350.7839965820312 -32.20933151245117 350.552001953125 -30.85599899291992 350.552001953125 -29.69600105285645 L 350.552001953125 0 L 331.5280151367188 0 L 331.5280151367188 -57.76799774169922 L 349.8560180664062 -57.76799774169922 L 349.8560180664062 -49.41600036621094 L 350.0880126953125 -49.41600036621094 C 351.5573425292969 -52.35466384887695 353.6453247070312 -54.75199890136719 356.3519897460938 -56.60800170898438 C 359.0586547851562 -58.4640007019043 362.190673828125 -59.39200210571289 365.7480163574219 -59.39200210571289 C 366.5213317871094 -59.39200210571289 367.2753295898438 -59.35333251953125 368.010009765625 -59.27599716186523 C 368.7446594238281 -59.19866561889648 369.343994140625 -59.08266830444336 369.8080139160156 -58.92800140380859 L 368.9960021972656 -42.2239990234375 Z"
     id="Path_375" />
</svg>
