<?xml version="1.0" encoding="utf-8"?>
<!-- Generator: Adobe Illustrator 24.2.1, SVG Export Plug-In . SVG Version: 6.00 Build 0)  -->
<svg version="1.1"
	 id="svg91" xmlns:cc="http://creativecommons.org/ns#" xmlns:dc="http://purl.org/dc/elements/1.1/" xmlns:rdf="http://www.w3.org/1999/02/22-rdf-syntax-ns#" xmlns:svg="http://www.w3.org/2000/svg"
	 xmlns="http://www.w3.org/2000/svg" xmlns:xlink="http://www.w3.org/1999/xlink" x="0px" y="0px" viewBox="0 0 739.8 89.6"
	 style="enable-background:new 0 0 739.8 89.6;" xml:space="preserve">
<g>
	<path d="M140.6,27.9l-19.2,53.6h-19.1l-9.7-27.2l-9.8,27.2H63.8L44.7,27.9h19.5l9.4,32.9h0.4l9.3-32.9h19.5l9.4,32.9h0.3l9.4-32.9
		H140.6z"/>
	<path d="M156.8,59.3c0.1,7.6,7.9,9.9,12.6,9.8c4.4-0.1,8.4-1.5,10.8-5.6l14,8.7c-5.4,7.1-15.4,11.3-25.1,11.3h-0.5
		c-15-0.2-28.1-12.2-29.1-27.3C138.6,40,152.1,25,168.5,25.3c15.6,0.2,28.2,13.1,28.2,29c0,1.7-0.1,3.3-0.4,5H156.8z M179.2,48
		c-0.8-7.4-6.2-9-11-9c-5.2,0-10.1,2.8-10.9,9H179.2z"/>
	<path d="M261.1,54.3c0,3.7-0.5,7.2-1.7,10.7c-1.1,3.4-2.9,6.4-5,9c-2.3,2.5-4.8,4.6-8,6.2c-3.1,1.5-6.7,2.4-10.5,2.4
		c-3.6,0-7-0.8-10.1-2.3c-3.2-1.4-5.6-3.6-7.2-6.2h-0.3v7h-16V5.3h17.3v28.3h0.3c1.5-1.7,3.6-3.3,6.2-4.8c2.7-1.5,6-2.3,9.9-2.3
		c3.9,0,7.3,0.8,10.4,2.3c3.1,1.5,5.7,3.6,7.9,6c2.2,2.6,3.8,5.5,5.1,8.9C260.6,47.2,261.1,50.5,261.1,54.3z M244.2,54.3
		c0-1.6-0.3-3.3-0.8-5c-0.5-1.6-1.3-3.1-2.4-4.3c-1.1-1.3-2.4-2.4-4-3.1c-1.5-0.6-3.4-1.2-5.4-1.2c-2,0-3.9,0.5-5.3,1.2
		c-1.7,0.8-3,1.8-4.1,3.1c-1.2,1.2-1.9,2.7-2.6,4.3c-0.6,1.6-1,3.4-1,5.1c0,1.8,0.3,3.4,1,5.1c0.6,1.6,1.4,3.1,2.6,4.3
		c1.1,1.3,2.4,2.4,4.1,3.1c1.4,0.8,3.2,1.2,5.3,1.2c1.9,0,3.9-0.4,5.4-1.2c1.6-0.8,2.9-1.8,4-3.1c1.1-1.2,1.8-2.7,2.4-4.4
		C243.9,57.6,244.2,56,244.2,54.3z"/>
	<path d="M355.2,54.3c0,3.7-0.5,7.2-1.7,10.7c-1.1,3.4-2.9,6.4-5,9c-2.3,2.5-4.8,4.6-8,6.2c-3.1,1.5-6.7,2.4-10.5,2.4
		c-3.6,0-7-0.8-10.1-2.3c-3.2-1.4-5.6-3.6-7.2-6.2h-0.3v7h-16V5.3h17.3v28.3h0.3c1.5-1.7,3.6-3.3,6.2-4.8c2.7-1.5,6-2.3,9.9-2.3
		c3.9,0,7.3,0.8,10.4,2.3c3.1,1.5,5.7,3.6,7.9,6c2.2,2.6,3.8,5.5,5.1,8.9C354.7,47.2,355.2,50.5,355.2,54.3z M338.3,54.3
		c0-1.6-0.3-3.3-0.8-5c-0.5-1.6-1.3-3.1-2.4-4.3c-1.1-1.3-2.4-2.4-4-3.1c-1.5-0.6-3.4-1.2-5.4-1.2c-2,0-3.9,0.5-5.3,1.2
		c-1.7,0.8-3,1.8-4.1,3.1c-1.2,1.2-1.9,2.7-2.6,4.3c-0.6,1.6-1,3.4-1,5.1c0,1.8,0.3,3.4,1,5.1c0.6,1.6,1.4,3.1,2.6,4.3
		c1.1,1.3,2.4,2.4,4.1,3.1c1.4,0.8,3.2,1.2,5.3,1.2c1.9,0,3.9-0.4,5.4-1.2c1.6-0.8,2.9-1.8,4-3.1c1.1-1.2,1.8-2.7,2.4-4.4
		C338,57.6,338.3,56,338.3,54.3z"/>
	<path d="M396.1,26.7l-0.8,15.6c-0.8-0.2-1.5-0.3-2.3-0.4c-0.5-0.1-1-0.1-1.5-0.1h-0.3c-7.2,0.2-13,6.1-13,13.3v26.4h-17.7V27.8h17
		v7.8h0.2c1.3-2.7,3.2-4.8,5.8-6.7c2.5-1.7,5.4-2.6,8.8-2.6c0.6,0,1.3,0,2,0.1C395.1,26.4,395.7,26.5,396.1,26.7z"/>
	<path d="M456.7,54.6c0,16.4-13.1,29.6-29.5,29.6c-16.3,0-29.5-13.2-29.5-29.6c0-16.3,13.2-29.5,29.5-29.5
		C443.6,25.1,456.7,38.4,456.7,54.6z M440.2,54.6c0-7.4-5.8-13.7-13-13.7c-7.2,0-13,6.2-13,13.7c0,7.6,5.8,13.8,13,13.8
		C434.4,68.4,440.2,62.3,440.2,54.6z"/>
	<path d="M550.1,27.9L531,81.5h-19.1l-9.7-27.2l-9.8,27.2h-19.1l-19.2-53.6h19.5l9.4,32.9h0.4l9.3-32.9h19.5l9.4,32.9h0.3l9.4-32.9
		H550.1z"/>
	<path d="M592.9,58.8c0.9,1.9,1.5,4.2,1.5,6.9c0,3.3-0.8,6.4-2,8.6c-1.4,2.5-3.2,4.3-5.5,5.8c-2.3,1.5-4.6,2.5-7.4,3.1
		c-2.8,0.6-5.7,1-8.4,1c-4.4,0-8.7-0.6-13-2.2c-4.3-1.3-7.9-3.4-10.7-6.2l10.1-10.7c1.5,1.8,3.4,3.2,5.9,4.4c2,1.1,4.4,1.7,6.7,1.7
		c3.1,0.1,7.2-0.9,7.2-4.5c0-1-0.3-1.9-1-2.7c-0.8-0.8-1.8-1.3-2.8-1.6c-4.3-1.5-8.7-2.2-12.8-3.9c-1.8-0.8-3.6-1.6-5.2-2.9
		c-1.4-1.3-2.6-2.8-3.6-4.5c-1-1.9-1.5-4.1-1.5-6.6c0-3.3,0.8-6.1,2.2-8.4c1.4-2.4,3.1-4.2,5.4-5.6c2.2-1.6,4.6-2.6,7.2-3.3
		c2.7-0.6,5.3-1,8-1c4.1,0,8,0.6,11.9,1.9c3.9,1.2,7.2,3.1,9.9,5.7l-9.9,10.1c-1.5-1.3-3.1-2.5-5.2-3.4c-1.4-0.8-2.8-1.2-4.3-1.3
		c-1.5-0.2-3-0.2-4.4,0c-1.1,0.3-2.4,0.8-3,1.5c-0.9,0.8-1.2,1.7-1.2,2.7c0,1.1,0.5,2.2,1.4,2.8c0.4,0.4,1.1,0.6,1.7,0.9
		c1.1,0.4,2.2,0.6,3.2,0.9c0.4,0.1,1,0.3,1.5,0.4c0.3,0.1,0.6,0.2,0.9,0.2c0.3,0.1,0.8,0.1,1,0.2c0.1,0,0.2,0,0.2,0.1
		c2,0.4,4.1,1.1,6.2,1.9c2,0.8,4,1.7,5.6,3.1C590.4,55.4,591.8,57,592.9,58.8z"/>
	<path d="M695.2,26.7l-0.8,15.6c-0.8-0.2-1.5-0.3-2.3-0.4c-0.5-0.1-1-0.1-1.5-0.1h-0.3c-7.2,0.2-13,6.1-13,13.3v26.4h-17.7V27.8h17
		v7.8h0.2c1.3-2.7,3.2-4.8,5.8-6.7c2.5-1.7,5.4-2.6,8.8-2.6c0.6,0,1.3,0,2,0.1C694.2,26.4,694.8,26.5,695.2,26.7z"/>
	<path d="M626.5,25.3c-17.3,0-27.9,12.6-27.9,28.8c0,18,11.4,28.8,27.9,28.8c10.5,0,20-4.2,25.4-11.2L638,63.1
		c-2.3,4.1-6.3,5.4-10.7,5.5c-4.7,0.1-12.4-2.1-12.5-9.7H654c0.3-1.6,0.4-3.2,0.4-4.9C654.4,37.9,643.3,25.3,626.5,25.3z
		 M615.4,47.7c0.7-6.2,5.6-9,10.8-9c4.7,0,10.1,1.6,10.9,9H615.4z"/>
</g>
</svg>
