<?xml version="1.0" encoding="utf-8"?>
<!-- Generator: Adobe Illustrator 24.2.1, SVG Export Plug-In . SVG Version: 6.00 Build 0)  -->
<svg version="1.1"
	 id="svg73" xmlns:cc="http://creativecommons.org/ns#" xmlns:dc="http://purl.org/dc/elements/1.1/" xmlns:rdf="http://www.w3.org/1999/02/22-rdf-syntax-ns#" xmlns:svg="http://www.w3.org/2000/svg"
	 xmlns="http://www.w3.org/2000/svg" xmlns:xlink="http://www.w3.org/1999/xlink" x="0px" y="0px" viewBox="0 0 544.9 89.6"
	 style="enable-background:new 0 0 544.9 89.6;" xml:space="preserve">
<g>
	<path d="M81.2,73.4c-5.2,6.1-13.1,10.1-22,10.1c-15.9,0-29-13-29-29.1c0-15.9,13-29,29-29c9,0,16.9,4,22.2,10.3l-11.5,11
		c-2.4-3.4-6.1-5.8-10.7-5.8c-7.1,0-12.7,6-12.7,13.5c0,7.3,5.6,13.6,12.7,13.6c4.3,0,8.1-2.4,10.4-5.8L81.2,73.4z"/>
	<path d="M84.6,43.3c1.2-3.3,2.8-6.2,5-8.9c2.2-2.6,4.7-4.5,8-6.1c3-1.4,6.7-2.2,10.4-2.2c3.8,0,7.3,0.8,10.2,2.4
		c2.9,1.7,5.1,3.6,6.7,5.7h0.5V28H142v53h-17.4v-6h-0.4c-1.6,2.3-3.8,4.2-6.8,5.3c-2.9,1.4-5.9,2.2-9.4,2.2c-3.8,0-7.4-0.9-10.4-2.4
		c-3.4-1.6-5.9-3.8-8.1-6.5c-2.2-2.4-4-5.4-5.1-8.8c-1.1-3.6-1.8-7.2-1.8-10.8C82.5,50.2,83.3,46.6,84.6,43.3z M100.5,59
		c0.5,1.6,1.3,3,2.4,4.4c1.1,1.3,2.2,2.3,3.8,3.3c1.8,0.6,3.4,1.1,5.6,1.1c1.9,0,3.8-0.4,5.2-1.1c1.7-1.1,2.9-2,4.2-3.3
		c1.1-1.4,1.8-2.8,2.5-4.4c0.5-1.6,1.1-3.2,1.1-5.1c0-1.6-0.5-3.2-1.1-5.1c-0.6-1.6-1.4-3-2.5-4.3c-1.3-1.3-2.5-2.4-4.2-3
		c-1.4-0.8-3.2-1.1-5.2-1.1c-2.2,0-3.8,0.3-5.6,1.1c-1.6,0.6-2.7,1.7-3.8,3c-1.1,1.3-1.8,2.7-2.4,4.3c-0.5,1.8-0.9,3.4-0.9,5.1
		C99.6,55.8,100,57.4,100.5,59z"/>
	<path d="M149.4,81.5V5.3h17.7v76.2H149.4z"/>
	<path d="M223.1,73.4c-5.2,6.1-13.1,10.1-22,10.1c-15.9,0-29-13-29-29.1c0-15.9,13-29,29-29c9,0,16.9,4,22.2,10.3l-11.5,11
		c-2.4-3.4-6.1-5.8-10.7-5.8c-7.1,0-12.7,6-12.7,13.5c0,7.3,5.6,13.6,12.7,13.6c4.3,0,8.1-2.4,10.4-5.8L223.1,73.4z"/>
	<path d="M227.9,61.1V27.9h17.8v32.2c0,5,4,8.7,8.7,8.7c4.8,0,8.7-3.8,8.7-8.7V27.9h17.7v53.5h-17.7v-6.8h-0.2
		c-1.2,2.2-3.1,4.2-5.7,5.8c-2.7,1.6-5.9,2.5-9.6,2.5c-3.7,0-6.8-0.6-9.4-1.9c-2.4-1.3-4.3-2.9-5.9-5c-1.6-2-2.6-4.4-3.3-7.1
		C228.3,66.3,227.9,63.7,227.9,61.1z"/>
	<path d="M287.5,81.5V5.3h17.7v76.2H287.5z"/>
	<path d="M312.4,43.3c1.2-3.3,2.8-6.2,5-8.9c2.2-2.6,4.7-4.5,8-6.1c3-1.4,6.7-2.2,10.4-2.2c3.8,0,7.3,0.8,10.2,2.4
		c2.9,1.7,5.1,3.6,6.7,5.7h0.5V28h16.6v53h-17.4v-6h-0.4c-1.6,2.3-3.8,4.2-6.8,5.3c-2.9,1.4-5.9,2.2-9.4,2.2
		c-3.8,0-7.4-0.9-10.4-2.4c-3.4-1.6-5.9-3.8-8.1-6.5c-2.2-2.4-4-5.4-5.1-8.8c-1.1-3.6-1.8-7.2-1.8-10.8
		C310.3,50.2,311.1,46.6,312.4,43.3z M328.3,59c0.5,1.6,1.3,3,2.4,4.4c1.1,1.3,2.2,2.3,3.8,3.3c1.8,0.6,3.4,1.1,5.6,1.1
		c1.9,0,3.8-0.4,5.2-1.1c1.7-1.1,2.9-2,4.2-3.3c1.1-1.4,1.8-2.8,2.5-4.4c0.5-1.6,1.1-3.2,1.1-5.1c0-1.6-0.5-3.2-1.1-5.1
		c-0.6-1.6-1.4-3-2.5-4.3c-1.3-1.3-2.5-2.4-4.2-3c-1.4-0.8-3.2-1.1-5.2-1.1c-2.2,0-3.8,0.3-5.6,1.1c-1.6,0.6-2.7,1.7-3.8,3
		c-1.1,1.3-1.8,2.7-2.4,4.3c-0.5,1.8-0.9,3.4-0.9,5.1C327.4,55.8,327.8,57.4,328.3,59z"/>
	<path d="M473.4,54.6c0,16.4-13.1,29.6-29.5,29.6c-16.3,0-29.5-13.2-29.5-29.6c0-16.3,13.2-29.5,29.5-29.5
		C460.3,25.1,473.4,38.4,473.4,54.6z M457,54.6c0-7.4-5.8-13.7-13-13.7c-7.2,0-13,6.2-13,13.7c0,7.6,5.8,13.8,13,13.8
		C451.2,68.4,457,62.3,457,54.6z"/>
	<path d="M514.6,26.7l-0.8,15.6c-0.8-0.2-1.5-0.3-2.3-0.4c-0.5-0.1-1-0.1-1.5-0.1h-0.3c-7.2,0.2-13,6.1-13,13.3v26.4H479V27.8h17
		v7.8h0.2c1.3-2.7,3.2-4.8,5.8-6.7c2.5-1.7,5.4-2.6,8.8-2.6c0.6,0,1.3,0,2,0.1C513.6,26.4,514.1,26.5,514.6,26.7z"/>
	<path d="M400.2,13h-15.1v7.5c0,4.6-3.7,8.3-8.3,8.3h-1.8v14.1h8.2v24.3c0,0.2,0,0.5,0,0.7v0.2c0.5,8.7,7.4,15.7,16.1,16.1
		c0,0,2.9,0,3.4,0c2.5,0,4.9-0.5,7.1-1.3V68.7c-1,0.6-2.1,0.9-3.2,0.9c-3.5,0-6.4-2.9-6.4-6.4V42.9h9.7V28.8h-9.7V13z"/>
</g>
</svg>
