<?xml version="1.0" encoding="UTF-8" standalone="no"?>
<svg
   xmlns:dc="http://purl.org/dc/elements/1.1/"
   xmlns:cc="http://creativecommons.org/ns#"
   xmlns:rdf="http://www.w3.org/1999/02/22-rdf-syntax-ns#"
   xmlns:svg="http://www.w3.org/2000/svg"
   xmlns="http://www.w3.org/2000/svg"
   id="svg73"
   version="1.1"
   viewBox="-270.28 -87.696 544.852 89.552"
   class="Path_377">
  <metadata
     id="metadata79">
    <rdf:RDF>
      <cc:Work
         rdf:about="">
        <dc:format>image/svg+xml</dc:format>
        <dc:type
           rdf:resource="http://purl.org/dc/dcmitype/StillImage" />
        <dc:title></dc:title>
      </cc:Work>
    </rdf:RDF>
  </metadata>
  <defs
     id="defs77" />
  <path
     d="M -227.5919799804688 -39.09200286865234 C -228.6746520996094 -40.48400115966797 -230.1439819335938 -41.6053352355957 -231.9999847412109 -42.45600128173828 C -233.8559875488281 -43.30666732788086 -235.7506561279297 -43.73200225830078 -237.6839904785156 -43.73200225830078 C -239.6946563720703 -43.73200225830078 -241.5119781494141 -43.32600021362305 -243.135986328125 -42.51399993896484 C -244.7599945068359 -41.70199966430664 -246.1519927978516 -40.61933517456055 -247.3119812011719 -39.26599884033203 C -248.4719848632812 -37.91266632080078 -249.3806610107422 -36.3466682434082 -250.0379943847656 -34.56800079345703 C -250.6953277587891 -32.78933334350586 -251.0239868164062 -30.89466667175293 -251.0239868164062 -28.88399887084961 C -251.0239868164062 -26.87333297729492 -250.7146453857422 -24.97866630554199 -250.0959777832031 -23.20000076293945 C -249.4773101806641 -21.42133331298828 -248.5686492919922 -19.85533332824707 -247.3699798583984 -18.50200080871582 C -246.1713256835938 -17.14866638183594 -244.7406616210938 -16.0853328704834 -243.0779876708984 -15.3120002746582 C -241.4153137207031 -14.53866672515869 -239.5399780273438 -14.15200042724609 -237.4519805908203 -14.15200042724609 C -235.5186462402344 -14.15200042724609 -233.6046600341797 -14.5193338394165 -231.7099914550781 -15.25400066375732 C -229.8153228759766 -15.98866748809814 -228.2879791259766 -17.05200004577637 -227.1279907226562 -18.44400024414062 L -216.5719909667969 -5.567999839782715 C -218.9693145751953 -3.247999668121338 -222.0626525878906 -1.430666565895081 -225.8519897460938 -0.1160000041127205 C -229.6413116455078 1.19866669178009 -233.6626434326172 1.856000065803528 -237.9159851074219 1.856000065803528 C -242.4786529541016 1.856000065803528 -246.7319793701172 1.160000085830688 -250.6759796142578 -0.232000008225441 C -254.6199798583984 -1.623999953269958 -258.0419921875 -3.654000043869019 -260.9419860839844 -6.322000026702881 C -263.8419799804688 -8.989999771118164 -266.1233215332031 -12.21866607666016 -267.7859802246094 -16.00799942016602 C -269.4486694335938 -19.79733467102051 -270.2799987792969 -24.08933258056641 -270.2799987792969 -28.88399887084961 C -270.2799987792969 -33.60133361816406 -269.4486694335938 -37.85466766357422 -267.7859802246094 -41.64400100708008 C -266.1233215332031 -45.43333435058594 -263.8419799804688 -48.6619987487793 -260.9419860839844 -51.32999801635742 C -258.0419921875 -53.99800109863281 -254.6199798583984 -56.04733276367188 -250.6759796142578 -57.47800064086914 C -246.7319793701172 -58.90866851806641 -242.5173187255859 -59.62400054931641 -238.031982421875 -59.62400054931641 C -235.9439849853516 -59.62400054931641 -233.8753204345703 -59.43066787719727 -231.8259887695312 -59.04399871826172 C -229.7766571044922 -58.65733337402344 -227.8046569824219 -58.13533401489258 -225.9099884033203 -57.47800064086914 C -224.0153198242188 -56.82066345214844 -222.2753295898438 -56.00866317749023 -220.6899871826172 -55.04199981689453 C -219.1046447753906 -54.07533645629883 -217.7319793701172 -53.01200103759766 -216.5719909667969 -51.85200119018555 L -227.5919799804688 -39.09200286865234 Z M -174.9279937744141 -25.17199897766113 L -177.3639831542969 -25.17199897766113 C -179.4519958496094 -25.17199897766113 -181.559326171875 -25.07533264160156 -183.6859893798828 -24.88199996948242 C -185.8126525878906 -24.68866539001465 -187.7073211669922 -24.32133293151855 -189.3699951171875 -23.78000068664551 C -191.0326690673828 -23.23866653442383 -192.4053344726562 -22.44599914550781 -193.4879913330078 -21.40199851989746 C -194.5706634521484 -20.35799980163574 -195.1119995117188 -18.9853343963623 -195.1119995117188 -17.28400039672852 C -195.1119995117188 -16.20133399963379 -194.8606567382812 -15.27333354949951 -194.3579864501953 -14.5 C -193.8553161621094 -13.72666645050049 -193.2173309326172 -13.10799980163574 -192.4440002441406 -12.64400005340576 C -191.6706695556641 -12.18000030517578 -190.7813262939453 -11.85133361816406 -189.7760009765625 -11.65799999237061 C -188.7706604003906 -11.46466636657715 -187.8039855957031 -11.36800003051758 -186.8759918212891 -11.36800003051758 C -183.0093231201172 -11.36800003051758 -180.0513305664062 -12.43133354187012 -178.0019989013672 -14.55799961090088 C -175.9526672363281 -16.68466567993164 -174.9279937744141 -19.56533241271973 -174.9279937744141 -23.20000076293945 L -174.9279937744141 -25.17199897766113 Z M -209.843994140625 -49.88000106811523 C -206.4413299560547 -53.12799835205078 -202.4779968261719 -55.56399917602539 -197.9539947509766 -57.1879997253418 C -193.4299926757812 -58.8120002746582 -188.809326171875 -59.62400054931641 -184.0919952392578 -59.62400054931641 C -179.2200012207031 -59.62400054931641 -175.1019897460938 -59.02466583251953 -171.7379913330078 -57.82600021362305 C -168.3739929199219 -56.62733459472656 -165.6479949951172 -54.77133560180664 -163.5599975585938 -52.25800323486328 C -161.4720001220703 -49.74467086791992 -159.9446563720703 -46.57400131225586 -158.9779968261719 -42.74599838256836 C -158.0113220214844 -38.91799926757812 -157.5279846191406 -34.37466812133789 -157.5279846191406 -29.11599922180176 L -157.5279846191406 0 L -174.9279937744141 0 L -174.9279937744141 -6.14799976348877 L -175.2760009765625 -6.14799976348877 C -176.7453308105469 -3.750666618347168 -178.9686584472656 -1.89466667175293 -181.9459838867188 -0.5799999833106995 C -184.9233245849609 0.734666645526886 -188.1519927978516 1.391999959945679 -191.6319885253906 1.391999959945679 C -193.9519958496094 1.391999959945679 -196.3493347167969 1.082666635513306 -198.8239898681641 0.464000016450882 C -201.2986602783203 -0.1546666920185089 -203.5606536865234 -1.159999966621399 -205.6099853515625 -2.552000045776367 C -207.6593170166016 -3.944000005722046 -209.3413238525391 -5.799999713897705 -210.6559906005859 -8.119999885559082 C -211.9706573486328 -10.44000053405762 -212.6279907226562 -13.30133247375488 -212.6279907226562 -16.70399856567383 C -212.6279907226562 -20.88000106811523 -211.4873199462891 -24.2440013885498 -209.2059936523438 -26.79600143432617 C -206.9246673583984 -29.34800148010254 -203.9859924316406 -31.32000160217285 -200.3899993896484 -32.71200180053711 C -196.7939910888672 -34.10400390625 -192.7919921875 -35.03200149536133 -188.3839874267578 -35.49599838256836 C -183.9759979248047 -35.95999908447266 -179.6840057373047 -36.19200134277344 -175.5079956054688 -36.19200134277344 L -175.5079956054688 -37.11999893188477 C -175.5079956054688 -39.98133087158203 -176.5133209228516 -42.08866500854492 -178.5239868164062 -43.44200134277344 C -180.5346527099609 -44.79533386230469 -183.0093231201172 -45.47200012207031 -185.947998046875 -45.47200012207031 C -188.6546630859375 -45.47200012207031 -191.2646636962891 -44.89200210571289 -193.7779998779297 -43.73200225830078 C -196.2913208007812 -42.57199859619141 -198.4373168945312 -41.17999649047852 -200.2159881591797 -39.55599975585938 L -209.843994140625 -49.88000106811523 Z M -143.1439819335938 0 L -143.1439819335938 -87.69599914550781 L -123.8879852294922 -87.69599914550781 L -123.8879852294922 0 L -143.1439819335938 0 Z M -69.01997375488281 -39.09200286865234 C -70.10264587402344 -40.48400115966797 -71.57198333740234 -41.6053352355957 -73.427978515625 -42.45600128173828 C -75.28397369384766 -43.30666732788086 -77.17864227294922 -43.73200225830078 -79.11198425292969 -43.73200225830078 C -81.12264251708984 -43.73200225830078 -82.93997955322266 -43.32600021362305 -84.56398010253906 -42.51399993896484 C -86.18798065185547 -41.70199966430664 -87.57997894287109 -40.61933517456055 -88.73997497558594 -39.26599884033203 C -89.89997863769531 -37.91266632080078 -90.80864715576172 -36.3466682434082 -91.46598052978516 -34.56800079345703 C -92.12331390380859 -32.78933334350586 -92.45198059082031 -30.89466667175293 -92.45198059082031 -28.88399887084961 C -92.45198059082031 -26.87333297729492 -92.14264678955078 -24.97866630554199 -91.52397918701172 -23.20000076293945 C -90.90531158447266 -21.42133331298828 -89.99664306640625 -19.85533332824707 -88.79798126220703 -18.50200080871582 C -87.59931182861328 -17.14866638183594 -86.16864776611328 -16.0853328704834 -84.5059814453125 -15.3120002746582 C -82.84331512451172 -14.53866672515869 -80.96797943115234 -14.15200042724609 -78.87997436523438 -14.15200042724609 C -76.94664764404297 -14.15200042724609 -75.03264617919922 -14.5193338394165 -73.13798522949219 -15.25400066375732 C -71.24330902099609 -15.98866748809814 -69.71597290039062 -17.05200004577637 -68.55597686767578 -18.44400024414062 L -57.99998092651367 -5.567999839782715 C -60.39731597900391 -3.247999668121338 -63.49065017700195 -1.430666565895081 -67.27998352050781 -0.1160000041127205 C -71.06931304931641 1.19866669178009 -75.09064483642578 1.856000065803528 -79.34397888183594 1.856000065803528 C -83.90664672851562 1.856000065803528 -88.15998077392578 1.160000085830688 -92.10398101806641 -0.232000008225441 C -96.04798126220703 -1.623999953269958 -99.46997833251953 -3.654000043869019 -102.3699798583984 -6.322000026702881 C -105.2699813842773 -8.989999771118164 -107.5513153076172 -12.21866607666016 -109.213981628418 -16.00799942016602 C -110.8766479492188 -19.79733467102051 -111.7079772949219 -24.08933258056641 -111.7079772949219 -28.88399887084961 C -111.7079772949219 -33.60133361816406 -110.8766479492188 -37.85466766357422 -109.213981628418 -41.64400100708008 C -107.5513153076172 -45.43333435058594 -105.2699813842773 -48.6619987487793 -102.3699798583984 -51.32999801635742 C -99.46997833251953 -53.99800109863281 -96.04798126220703 -56.04733276367188 -92.10398101806641 -57.47800064086914 C -88.15998077392578 -58.90866851806641 -83.9453125 -59.62400054931641 -79.45997619628906 -59.62400054931641 C -77.37197113037109 -59.62400054931641 -75.30330657958984 -59.43066787719727 -73.25398254394531 -59.04399871826172 C -71.20464324951172 -58.65733337402344 -69.23264312744141 -58.13533401489258 -67.33798217773438 -57.47800064086914 C -65.44331359863281 -56.82066345214844 -63.70331192016602 -56.00866317749023 -62.11797714233398 -55.04199981689453 C -60.53264617919922 -54.07533645629883 -59.15998077392578 -53.01200103759766 -57.99998092651367 -51.85200119018555 L -69.01997375488281 -39.09200286865234 Z M -12.4119873046875 0 L -12.4119873046875 -8.003999710083008 L -12.64398956298828 -8.003999710083008 C -13.33998584747314 -6.689332962036133 -14.24865245819092 -5.452000141143799 -15.36998748779297 -4.291999816894531 C -16.49131965637207 -3.131999969482422 -17.80598640441895 -2.126666784286499 -19.31398773193359 -1.276000022888184 C -20.82198905944824 -0.4253333210945129 -22.48465538024902 0.2706666588783264 -24.30198669433594 0.812000036239624 C -26.11931991577148 1.353333473205566 -28.0333194732666 1.624000072479248 -30.04398727416992 1.624000072479248 C -33.91065216064453 1.624000072479248 -37.17798614501953 0.9280000925064087 -39.84598541259766 -0.464000016450882 C -42.51398849487305 -1.856000065803528 -44.6793212890625 -3.654000043869019 -46.34198760986328 -5.8580002784729 C -48.00465393066406 -8.062000274658203 -49.20331954956055 -10.57533359527588 -49.93798828125 -13.39800071716309 C -50.67265319824219 -16.22066688537598 -51.03998565673828 -19.10133361816406 -51.03998565673828 -22.03999900817871 L -51.03998565673828 -57.76799774169922 L -31.89998626708984 -57.76799774169922 L -31.89998626708984 -26.44799995422363 C -31.89998626708984 -24.82400131225586 -31.78398704528809 -23.27733421325684 -31.55198669433594 -21.80799865722656 C -31.31998634338379 -20.33866691589355 -30.87532043457031 -19.02400016784668 -30.21798706054688 -17.86400032043457 C -29.56065559387207 -16.70400047302246 -28.69065475463867 -15.79533386230469 -27.60798645019531 -15.13800048828125 C -26.52532005310059 -14.48066711425781 -25.09465217590332 -14.15200042724609 -23.31598663330078 -14.15200042724609 C -19.99065399169922 -14.15200042724609 -17.45798683166504 -15.38933372497559 -15.71798706054688 -17.86400032043457 C -13.97798633575439 -20.33866691589355 -13.10798645019531 -23.23866653442383 -13.10798645019531 -26.56400108337402 L -13.10798645019531 -57.76799774169922 L 5.916015625 -57.76799774169922 L 5.916015625 0 L -12.4119873046875 0 Z M 20.99602699279785 0 L 20.99602699279785 -87.69599914550781 L 40.25202560424805 -87.69599914550781 L 40.25202560424805 0 L 20.99602699279785 0 Z M 89.43601989746094 -25.17199897766113 L 87.00002288818359 -25.17199897766113 C 84.91201782226562 -25.17199897766113 82.8046875 -25.07533264160156 80.67802429199219 -24.88199996948242 C 78.55135345458984 -24.68866539001465 76.65668487548828 -24.32133293151855 74.9940185546875 -23.78000068664551 C 73.33135223388672 -23.23866653442383 71.95868682861328 -22.44599914550781 70.87602233886719 -21.40199851989746 C 69.79335784912109 -20.35799980163574 69.25202178955078 -18.9853343963623 69.25202178955078 -17.28400039672852 C 69.25202178955078 -16.20133399963379 69.50335693359375 -15.27333354949951 70.00601959228516 -14.5 C 70.50868225097656 -13.72666645050049 71.14668273925781 -13.10799980163574 71.92002105712891 -12.64400005340576 C 72.69335174560547 -12.18000030517578 73.58268737792969 -11.85133361816406 74.58802032470703 -11.65799999237061 C 75.59335327148438 -11.46466636657715 76.56002044677734 -11.36800003051758 77.48802185058594 -11.36800003051758 C 81.35469055175781 -11.36800003051758 84.31269073486328 -12.43133354187012 86.36201477050781 -14.55799961090088 C 88.41135406494141 -16.68466567993164 89.43601989746094 -19.56533241271973 89.43601989746094 -23.20000076293945 L 89.43601989746094 -25.17199897766113 Z M 54.52001953125 -49.88000106811523 C 57.92268753051758 -53.12799835205078 61.88602066040039 -55.56399917602539 66.41001892089844 -57.1879997253418 C 70.93402099609375 -58.8120002746582 75.5546875 -59.62400054931641 80.27201843261719 -59.62400054931641 C 85.14402008056641 -59.62400054931641 89.26201629638672 -59.02466583251953 92.62602233886719 -57.82600021362305 C 95.99002075195312 -56.62733459472656 98.71601867675781 -54.77133560180664 100.8040161132812 -52.25800323486328 C 102.8920211791992 -49.74467086791992 104.4193496704102 -46.57400131225586 105.3860168457031 -42.74599838256836 C 106.3526840209961 -38.91799926757812 106.8360214233398 -34.37466812133789 106.8360214233398 -29.11599922180176 L 106.8360214233398 0 L 89.43601989746094 0 L 89.43601989746094 -6.14799976348877 L 89.08802032470703 -6.14799976348877 C 87.61868286132812 -3.750666618347168 85.39535522460938 -1.89466667175293 82.41802215576172 -0.5799999833106995 C 79.44068908691406 0.734666645526886 76.21202087402344 1.391999959945679 72.73201751708984 1.391999959945679 C 70.41201782226562 1.391999959945679 68.01468658447266 1.082666635513306 65.54002380371094 0.464000016450882 C 63.06535339355469 -0.1546666920185089 60.80335235595703 -1.159999966621399 58.75402069091797 -2.552000045776367 C 56.70468521118164 -3.944000005722046 55.02268600463867 -5.799999713897705 53.7080192565918 -8.119999885559082 C 52.39335250854492 -10.44000053405762 51.73601913452148 -13.30133247375488 51.73601913452148 -16.70399856567383 C 51.73601913452148 -20.88000106811523 52.87668609619141 -24.2440013885498 55.15802001953125 -26.79600143432617 C 57.43935394287109 -29.34800148010254 60.37802124023438 -31.32000160217285 63.97402191162109 -32.71200180053711 C 67.57002258300781 -34.10400390625 71.572021484375 -35.03200149536133 75.98001861572266 -35.49599838256836 C 80.38801574707031 -35.95999908447266 84.68001556396484 -36.19200134277344 88.85601806640625 -36.19200134277344 L 88.85601806640625 -37.11999893188477 C 88.85601806640625 -39.98133087158203 87.85068511962891 -42.08866500854492 85.84001922607422 -43.44200134277344 C 83.82935333251953 -44.79533386230469 81.35469055175781 -45.47200012207031 78.41602325439453 -45.47200012207031 C 75.7093505859375 -45.47200012207031 73.09934997558594 -44.89200210571289 70.58602142333984 -43.73200225830078 C 68.07269287109375 -42.57199859619141 65.92668914794922 -41.17999649047852 64.14801788330078 -39.55599975585938 L 54.52001953125 -49.88000106811523 Z M 140.4760284423828 -43.5 L 140.4760284423828 -21.46000099182129 C 140.4760284423828 -18.75333404541016 140.9980316162109 -16.72333335876465 142.0420227050781 -15.36999893188477 C 143.0860137939453 -14.01666641235352 144.9613494873047 -13.34000015258789 147.6680297851562 -13.34000015258789 C 148.5960235595703 -13.34000015258789 149.58203125 -13.41733360290527 150.6260223388672 -13.57199954986572 C 151.6700134277344 -13.72666645050049 152.5400238037109 -13.95866680145264 153.2360229492188 -14.26800060272217 L 153.468017578125 -0.3479999899864197 C 152.1533660888672 0.1159999966621399 150.4906921386719 0.5219999551773071 148.4800262451172 0.8700000047683716 C 146.4693603515625 1.217999935150146 144.4586944580078 1.391999959945679 142.4480285644531 1.391999959945679 C 138.5813598632812 1.391999959945679 135.3333587646484 0.9086666107177734 132.7040252685547 -0.05800000205636024 C 130.0746917724609 -1.024666666984558 127.9673538208008 -2.416666507720947 126.3820190429688 -4.233999729156494 C 124.7966842651367 -6.051333427429199 123.6560211181641 -8.216667175292969 122.9600219726562 -10.73000049591064 C 122.2640228271484 -13.24333381652832 121.9160232543945 -16.04666709899902 121.9160232543945 -19.14000129699707 L 121.9160232543945 -43.5 L 112.6360244750977 -43.5 L 112.6360244750977 -57.76799774169922 L 121.8000183105469 -57.76799774169922 L 121.8000183105469 -72.96400451660156 L 140.4760284423828 -72.96400451660156 L 140.4760284423828 -57.76799774169922 L 154.0480194091797 -57.76799774169922 L 154.0480194091797 -43.5 L 140.4760284423828 -43.5 Z M 224.2279968261719 -29.11599922180176 C 224.2279968261719 -24.39866638183594 223.3773345947266 -20.12599945068359 221.6759948730469 -16.29799842834473 C 219.9746551513672 -12.46999931335449 217.6546630859375 -9.222000122070312 214.7160034179688 -6.553999900817871 C 211.7773284912109 -3.885999917984009 208.3746643066406 -1.817333459854126 204.5079956054688 -0.3479999899864197 C 200.6413421630859 1.121333360671997 196.5040130615234 1.856000065803528 192.0960083007812 1.856000065803528 C 187.7653350830078 1.856000065803528 183.6473388671875 1.121333360671997 179.7420043945312 -0.3479999899864197 C 175.836669921875 -1.817333459854126 172.4340057373047 -3.885999917984009 169.5339965820312 -6.553999900817871 C 166.6340026855469 -9.222000122070312 164.3333435058594 -12.46999931335449 162.6320037841797 -16.29799842834473 C 160.9306640625 -20.12599945068359 160.0800018310547 -24.39866638183594 160.0800018310547 -29.11599922180176 C 160.0800018310547 -33.83333587646484 160.9306640625 -38.08666610717773 162.6320037841797 -41.87599945068359 C 164.3333435058594 -45.66533279418945 166.6340026855469 -48.87466812133789 169.5339965820312 -51.50400161743164 C 172.4340057373047 -54.13333129882812 175.836669921875 -56.14399719238281 179.7420043945312 -57.5359992980957 C 183.6473388671875 -58.92800140380859 187.7653350830078 -59.62400054931641 192.0960083007812 -59.62400054931641 C 196.5040130615234 -59.62400054931641 200.6413421630859 -58.92800140380859 204.5079956054688 -57.5359992980957 C 208.3746643066406 -56.14399719238281 211.7773284912109 -54.13333129882812 214.7160034179688 -51.50400161743164 C 217.6546630859375 -48.87466812133789 219.9746551513672 -45.66533279418945 221.6759948730469 -41.87599945068359 C 223.3773345947266 -38.08666610717773 224.2279968261719 -33.83333587646484 224.2279968261719 -29.11599922180176 Z M 205.8999938964844 -29.11599922180176 C 205.8999938964844 -30.97200012207031 205.5906677246094 -32.78933334350586 204.9720001220703 -34.56800079345703 C 204.3533325195312 -36.3466682434082 203.4640045166016 -37.91266632080078 202.3040008544922 -39.26599884033203 C 201.1439971923828 -40.61933517456055 199.7133331298828 -41.72133636474609 198.0119934082031 -42.57200241088867 C 196.3106689453125 -43.42266845703125 194.3386688232422 -43.84799957275391 192.0960083007812 -43.84799957275391 C 189.8533325195312 -43.84799957275391 187.8813323974609 -43.42266845703125 186.1799926757812 -42.57200241088867 C 184.4786682128906 -41.72133636474609 183.0673370361328 -40.61933517456055 181.9459991455078 -39.26599884033203 C 180.8246765136719 -37.91266632080078 179.9739990234375 -36.3466682434082 179.3939971923828 -34.56800079345703 C 178.8139953613281 -32.78933334350586 178.5240020751953 -30.97200012207031 178.5240020751953 -29.11599922180176 C 178.5240020751953 -27.26000022888184 178.8139953613281 -25.44266700744629 179.3939971923828 -23.66399955749512 C 179.9739990234375 -21.88533210754395 180.8440093994141 -20.28066444396973 182.0039978027344 -18.84999847412109 C 183.1640014648438 -17.41933250427246 184.5946655273438 -16.27866554260254 186.2959899902344 -15.42800045013428 C 187.9973297119141 -14.57733345031738 189.9693298339844 -14.15200042724609 192.2120056152344 -14.15200042724609 C 194.4546661376953 -14.15200042724609 196.4266662597656 -14.57733345031738 198.1280059814453 -15.42800045013428 C 199.8293304443359 -16.27866554260254 201.2599945068359 -17.41933250427246 202.4199981689453 -18.84999847412109 C 203.5800018310547 -20.28066444396973 204.4499969482422 -21.88533210754395 205.0299987792969 -23.66399955749512 C 205.6100006103516 -25.44266700744629 205.8999938964844 -27.26000022888184 205.8999938964844 -29.11599922180176 Z M 273.760009765625 -42.2239990234375 C 272.9093322753906 -42.45600128173828 272.0780029296875 -42.61066818237305 271.2660217285156 -42.6879997253418 C 270.4540100097656 -42.76533126831055 269.6613464355469 -42.80399703979492 268.8880004882812 -42.80399703979492 C 266.3359985351562 -42.80399703979492 264.1900024414062 -42.33999633789062 262.4500122070312 -41.4119987487793 C 260.7099914550781 -40.48400115966797 259.3179931640625 -39.36266708374023 258.2740173339844 -38.04800033569336 C 257.2300109863281 -36.73333358764648 256.4760131835938 -35.30266571044922 256.0120239257812 -33.75600051879883 C 255.5480194091797 -32.20933151245117 255.3160095214844 -30.85599899291992 255.3160095214844 -29.69600105285645 L 255.3160095214844 0 L 236.2920074462891 0 L 236.2920074462891 -57.76799774169922 L 254.6200103759766 -57.76799774169922 L 254.6200103759766 -49.41600036621094 L 254.8520202636719 -49.41600036621094 C 256.3213500976562 -52.35466384887695 258.4093322753906 -54.75199890136719 261.1160278320312 -56.60800170898438 C 263.8226928710938 -58.4640007019043 266.9546813964844 -59.39200210571289 270.5120239257812 -59.39200210571289 C 271.2853393554688 -59.39200210571289 272.0393371582031 -59.35333251953125 272.7740173339844 -59.27599716186523 C 273.5086669921875 -59.19866561889648 274.1080017089844 -59.08266830444336 274.572021484375 -58.92800140380859 L 273.760009765625 -42.2239990234375 Z"
     id="Path_377" />
</svg>
