<?xml version="1.0" encoding="UTF-8" standalone="no"?>
<svg
   xmlns:dc="http://purl.org/dc/elements/1.1/"
   xmlns:cc="http://creativecommons.org/ns#"
   xmlns:rdf="http://www.w3.org/1999/02/22-rdf-syntax-ns#"
   xmlns:svg="http://www.w3.org/2000/svg"
   xmlns="http://www.w3.org/2000/svg"
   id="svg47"
   version="1.1"
   viewBox="-424.444 -87.696 846.22 89.552"
   class="Path_373">
  <metadata
     id="metadata53">
    <rdf:RDF>
      <cc:Work
         rdf:about="">
        <dc:format>image/svg+xml</dc:format>
        <dc:type
           rdf:resource="http://purl.org/dc/dcmitype/StillImage" />
        <dc:title></dc:title>
      </cc:Work>
    </rdf:RDF>
  </metadata>
  <defs
     id="defs51" />
  <path
     d="M -396.60400390625 -43.5 L -396.60400390625 -21.46000099182129 C -396.60400390625 -18.75333404541016 -396.0820007324219 -16.72333335876465 -395.0379943847656 -15.36999893188477 C -393.9939880371094 -14.01666641235352 -392.11865234375 -13.34000015258789 -389.4119873046875 -13.34000015258789 C -388.4839782714844 -13.34000015258789 -387.4979858398438 -13.41733360290527 -386.4539794921875 -13.57199954986572 C -385.4100036621094 -13.72666645050049 -384.5400085449219 -13.95866680145264 -383.843994140625 -14.26800060272217 L -383.6119995117188 -0.3479999899864197 C -384.9266662597656 0.1159999966621399 -386.5893249511719 0.5219999551773071 -388.6000061035156 0.8700000047683716 C -390.6106567382812 1.217999935150146 -392.621337890625 1.391999959945679 -394.6319885253906 1.391999959945679 C -398.4986572265625 1.391999959945679 -401.7466735839844 0.9086666107177734 -404.3760070800781 -0.05800000205636024 C -407.0053405761719 -1.024666666984558 -409.1126708984375 -2.416666507720947 -410.697998046875 -4.233999729156494 C -412.2833251953125 -6.051333427429199 -413.4239807128906 -8.216667175292969 -414.1199951171875 -10.73000049591064 C -414.8160095214844 -13.24333381652832 -415.1640014648438 -16.04666709899902 -415.1640014648438 -19.14000129699707 L -415.1640014648438 -43.5 L -424.4440002441406 -43.5 L -424.4440002441406 -57.76799774169922 L -415.2799987792969 -57.76799774169922 L -415.2799987792969 -72.96400451660156 L -396.60400390625 -72.96400451660156 L -396.60400390625 -57.76799774169922 L -383.031982421875 -57.76799774169922 L -383.031982421875 -43.5 L -396.60400390625 -43.5 Z M -312.8519897460938 -29.11599922180176 C -312.8519897460938 -24.39866638183594 -313.7026672363281 -20.12599945068359 -315.4039916992188 -16.29799842834473 C -317.1053161621094 -12.46999931335449 -319.4253234863281 -9.222000122070312 -322.3639831542969 -6.553999900817871 C -325.3026428222656 -3.885999917984009 -328.705322265625 -1.817333459854126 -332.5719909667969 -0.3479999899864197 C -336.4386596679688 1.121333360671997 -340.5759887695312 1.856000065803528 -344.9839782714844 1.856000065803528 C -349.3146362304688 1.856000065803528 -353.4326477050781 1.121333360671997 -357.3379821777344 -0.3479999899864197 C -361.2433166503906 -1.817333459854126 -364.64599609375 -3.885999917984009 -367.5459899902344 -6.553999900817871 C -370.4459838867188 -9.222000122070312 -372.7466735839844 -12.46999931335449 -374.447998046875 -16.29799842834473 C -376.1493225097656 -20.12599945068359 -377 -24.39866638183594 -377 -29.11599922180176 C -377 -33.83333587646484 -376.1493225097656 -38.08666610717773 -374.447998046875 -41.87599945068359 C -372.7466735839844 -45.66533279418945 -370.4459838867188 -48.87466812133789 -367.5459899902344 -51.50400161743164 C -364.64599609375 -54.13333129882812 -361.2433166503906 -56.14399719238281 -357.3379821777344 -57.5359992980957 C -353.4326477050781 -58.92800140380859 -349.3146362304688 -59.62400054931641 -344.9839782714844 -59.62400054931641 C -340.5759887695312 -59.62400054931641 -336.4386596679688 -58.92800140380859 -332.5719909667969 -57.5359992980957 C -328.705322265625 -56.14399719238281 -325.3026428222656 -54.13333129882812 -322.3639831542969 -51.50400161743164 C -319.4253234863281 -48.87466812133789 -317.1053161621094 -45.66533279418945 -315.4039916992188 -41.87599945068359 C -313.7026672363281 -38.08666610717773 -312.8519897460938 -33.83333587646484 -312.8519897460938 -29.11599922180176 Z M -331.1799926757812 -29.11599922180176 C -331.1799926757812 -30.97200012207031 -331.4893188476562 -32.78933334350586 -332.1079711914062 -34.56800079345703 C -332.7266540527344 -36.3466682434082 -333.6159973144531 -37.91266632080078 -334.7760009765625 -39.26599884033203 C -335.9360046386719 -40.61933517456055 -337.3666687011719 -41.72133636474609 -339.0679931640625 -42.57200241088867 C -340.7693176269531 -43.42266845703125 -342.7413330078125 -43.84799957275391 -344.9839782714844 -43.84799957275391 C -347.2266540527344 -43.84799957275391 -349.1986694335938 -43.42266845703125 -350.8999938964844 -42.57200241088867 C -352.601318359375 -41.72133636474609 -354.0126647949219 -40.61933517456055 -355.1339721679688 -39.26599884033203 C -356.2553100585938 -37.91266632080078 -357.1059875488281 -36.3466682434082 -357.6859741210938 -34.56800079345703 C -358.2659912109375 -32.78933334350586 -358.5559997558594 -30.97200012207031 -358.5559997558594 -29.11599922180176 C -358.5559997558594 -27.26000022888184 -358.2659912109375 -25.44266700744629 -357.6859741210938 -23.66399955749512 C -357.1059875488281 -21.88533210754395 -356.2359924316406 -20.28066444396973 -355.0759887695312 -18.84999847412109 C -353.9159851074219 -17.41933250427246 -352.4853210449219 -16.27866554260254 -350.7839965820312 -15.42800045013428 C -349.0826721191406 -14.57733345031738 -347.1106567382812 -14.15200042724609 -344.8679809570312 -14.15200042724609 C -342.6253356933594 -14.15200042724609 -340.6533203125 -14.57733345031738 -338.9519958496094 -15.42800045013428 C -337.2506713867188 -16.27866554260254 -335.8199768066406 -17.41933250427246 -334.6599731445312 -18.84999847412109 C -333.4999694824219 -20.28066444396973 -332.6299743652344 -21.88533210754395 -332.0499877929688 -23.66399955749512 C -331.4700012207031 -25.44266700744629 -331.1799926757812 -27.26000022888184 -331.1799926757812 -29.11599922180176 Z M -257.0559997558594 0 L -257.0559997558594 -7.539999961853027 L -257.2879943847656 -7.539999961853027 C -259.1440124511719 -4.601333141326904 -261.7926940917969 -2.339333295822144 -265.2340087890625 -0.7540000081062317 C -268.6753234863281 0.831333339214325 -272.329345703125 1.624000072479248 -276.1960144042969 1.624000072479248 C -280.5266723632812 1.624000072479248 -284.3933410644531 0.7733333706855774 -287.7960205078125 -0.9280000329017639 C -291.1986694335938 -2.62933349609375 -294.079345703125 -4.89133358001709 -296.4380187988281 -7.714000225067139 C -298.7966918945312 -10.53666687011719 -300.5946655273438 -13.80399894714355 -301.8320007324219 -17.51599884033203 C -303.0693359375 -21.22799873352051 -303.6880187988281 -25.09466552734375 -303.6880187988281 -29.11599922180176 C -303.6880187988281 -33.13733291625977 -303.0500183105469 -36.98466491699219 -301.7740173339844 -40.65799713134766 C -300.4980163574219 -44.33133316040039 -298.6806640625 -47.55999755859375 -296.3219909667969 -50.34399795532227 C -293.9633178710938 -53.12799835205078 -291.1019897460938 -55.33200073242188 -287.7380065917969 -56.95600128173828 C -284.3740234375 -58.58000183105469 -280.60400390625 -59.39200210571289 -276.4280090332031 -59.39200210571289 C -272.1746826171875 -59.39200210571289 -268.5786743164062 -58.58000183105469 -265.6400146484375 -56.95600128173828 C -262.7013244628906 -55.33200073242188 -260.4200134277344 -53.5533332824707 -258.7960205078125 -51.61999893188477 L -258.5639953613281 -51.61999893188477 L -258.5639953613281 -87.69599914550781 L -239.5400085449219 -87.69599914550781 L -239.5400085449219 0 L -257.0559997558594 0 Z M -257.7520141601562 -29 C -257.7520141601562 -30.85599899291992 -258.0806884765625 -32.67333221435547 -258.7380065917969 -34.45199966430664 C -259.3953247070312 -36.23066711425781 -260.3233337402344 -37.81599807739258 -261.5220031738281 -39.20800018310547 C -262.7206726074219 -40.60000228881836 -264.1706848144531 -41.72133636474609 -265.8720092773438 -42.57200241088867 C -267.5733337402344 -43.42266845703125 -269.5066833496094 -43.84799957275391 -271.6719970703125 -43.84799957275391 C -273.9146728515625 -43.84799957275391 -275.8866882324219 -43.42266845703125 -277.5880126953125 -42.57200241088867 C -279.2893371582031 -41.72133636474609 -280.7200012207031 -40.61933517456055 -281.8800048828125 -39.26599884033203 C -283.0400085449219 -37.91266632080078 -283.9100036621094 -36.3466682434082 -284.489990234375 -34.56800079345703 C -285.0700073242188 -32.78933334350586 -285.3600158691406 -30.97200012207031 -285.3600158691406 -29.11599922180176 C -285.3600158691406 -27.26000022888184 -285.0700073242188 -25.4233341217041 -284.489990234375 -23.60600090026855 C -283.9100036621094 -21.78866767883301 -283.0400085449219 -20.18400001525879 -281.8800048828125 -18.79199981689453 C -280.7200012207031 -17.39999961853027 -279.2893371582031 -16.27866554260254 -277.5880126953125 -15.42800045013428 C -275.8866882324219 -14.57733345031738 -273.9146728515625 -14.15200042724609 -271.6719970703125 -14.15200042724609 C -269.5066833496094 -14.15200042724609 -267.5733337402344 -14.57733345031738 -265.8720092773438 -15.42800045013428 C -264.1706848144531 -16.27866554260254 -262.7206726074219 -17.39999961853027 -261.5220031738281 -18.79199981689453 C -260.3233337402344 -20.18400001525879 -259.3953247070312 -21.76933288574219 -258.7380065917969 -23.54799842834473 C -258.0806884765625 -25.3266658782959 -257.7520141601562 -27.14399909973145 -257.7520141601562 -29 Z M -163.2119903564453 -29.11599922180176 C -163.2119903564453 -24.39866638183594 -164.0626525878906 -20.12599945068359 -165.7639770507812 -16.29799842834473 C -167.4653167724609 -12.46999931335449 -169.7853240966797 -9.222000122070312 -172.7239837646484 -6.553999900817871 C -175.6626586914062 -3.885999917984009 -179.0653228759766 -1.817333459854126 -182.9319915771484 -0.3479999899864197 C -186.7986602783203 1.121333360671997 -190.9359893798828 1.856000065803528 -195.343994140625 1.856000065803528 C -199.6746520996094 1.856000065803528 -203.7926483154297 1.121333360671997 -207.6979827880859 -0.3479999899864197 C -211.6033172607422 -1.817333459854126 -215.0059814453125 -3.885999917984009 -217.9059906005859 -6.553999900817871 C -220.8059844970703 -9.222000122070312 -223.1066436767578 -12.46999931335449 -224.8079833984375 -16.29799842834473 C -226.5093231201172 -20.12599945068359 -227.3599853515625 -24.39866638183594 -227.3599853515625 -29.11599922180176 C -227.3599853515625 -33.83333587646484 -226.5093231201172 -38.08666610717773 -224.8079833984375 -41.87599945068359 C -223.1066436767578 -45.66533279418945 -220.8059844970703 -48.87466812133789 -217.9059906005859 -51.50400161743164 C -215.0059814453125 -54.13333129882812 -211.6033172607422 -56.14399719238281 -207.6979827880859 -57.5359992980957 C -203.7926483154297 -58.92800140380859 -199.6746520996094 -59.62400054931641 -195.343994140625 -59.62400054931641 C -190.9359893798828 -59.62400054931641 -186.7986602783203 -58.92800140380859 -182.9319915771484 -57.5359992980957 C -179.0653228759766 -56.14399719238281 -175.6626586914062 -54.13333129882812 -172.7239837646484 -51.50400161743164 C -169.7853240966797 -48.87466812133789 -167.4653167724609 -45.66533279418945 -165.7639770507812 -41.87599945068359 C -164.0626525878906 -38.08666610717773 -163.2119903564453 -33.83333587646484 -163.2119903564453 -29.11599922180176 Z M -181.5399932861328 -29.11599922180176 C -181.5399932861328 -30.97200012207031 -181.8493194580078 -32.78933334350586 -182.4679870605469 -34.56800079345703 C -183.0866546630859 -36.3466682434082 -183.9759826660156 -37.91266632080078 -185.135986328125 -39.26599884033203 C -186.2959747314453 -40.61933517456055 -187.7266387939453 -41.72133636474609 -189.427978515625 -42.57200241088867 C -191.1293182373047 -43.42266845703125 -193.101318359375 -43.84799957275391 -195.343994140625 -43.84799957275391 C -197.5866546630859 -43.84799957275391 -199.5586395263672 -43.42266845703125 -201.2599792480469 -42.57200241088867 C -202.9613189697266 -41.72133636474609 -204.3726501464844 -40.61933517456055 -205.4939880371094 -39.26599884033203 C -206.6153259277344 -37.91266632080078 -207.4659881591797 -36.3466682434082 -208.0459899902344 -34.56800079345703 C -208.6259918212891 -32.78933334350586 -208.9159851074219 -30.97200012207031 -208.9159851074219 -29.11599922180176 C -208.9159851074219 -27.26000022888184 -208.6259918212891 -25.44266700744629 -208.0459899902344 -23.66399955749512 C -207.4659881591797 -21.88533210754395 -206.5959930419922 -20.28066444396973 -205.4359893798828 -18.84999847412109 C -204.2759857177734 -17.41933250427246 -202.8453216552734 -16.27866554260254 -201.1439819335938 -15.42800045013428 C -199.4426422119141 -14.57733345031738 -197.4706420898438 -14.15200042724609 -195.2279815673828 -14.15200042724609 C -192.9853210449219 -14.15200042724609 -191.0133209228516 -14.57733345031738 -189.3119812011719 -15.42800045013428 C -187.6106414794922 -16.27866554260254 -186.1799774169922 -17.41933250427246 -185.0199890136719 -18.84999847412109 C -183.8599853515625 -20.28066444396973 -182.989990234375 -21.88533210754395 -182.4099884033203 -23.66399955749512 C -181.8299865722656 -25.44266700744629 -181.5399932861328 -27.26000022888184 -181.5399932861328 -29.11599922180176 Z M -88.04399108886719 -25.17199897766113 L -90.47998809814453 -25.17199897766113 C -92.5679931640625 -25.17199897766113 -94.67532348632812 -25.07533264160156 -96.80198669433594 -24.88199996948242 C -98.92865753173828 -24.68866539001465 -100.8233261108398 -24.32133293151855 -102.4859924316406 -23.78000068664551 C -104.1486587524414 -23.23866653442383 -105.5213241577148 -22.44599914550781 -106.6039886474609 -21.40199851989746 C -107.686653137207 -20.35799980163574 -108.2279891967773 -18.9853343963623 -108.2279891967773 -17.28400039672852 C -108.2279891967773 -16.20133399963379 -107.9766540527344 -15.27333354949951 -107.473991394043 -14.5 C -106.9713287353516 -13.72666645050049 -106.3333282470703 -13.10799980163574 -105.5599899291992 -12.64400005340576 C -104.7866592407227 -12.18000030517578 -103.8973236083984 -11.85133361816406 -102.8919906616211 -11.65799999237061 C -101.8866577148438 -11.46466636657715 -100.9199905395508 -11.36800003051758 -99.99198913574219 -11.36800003051758 C -96.12532043457031 -11.36800003051758 -93.16732025146484 -12.43133354187012 -91.11799621582031 -14.55799961090088 C -89.06865692138672 -16.68466567993164 -88.04399108886719 -19.56533241271973 -88.04399108886719 -23.20000076293945 L -88.04399108886719 -25.17199897766113 Z M -122.9599914550781 -49.88000106811523 C -119.5573196411133 -53.12799835205078 -115.5939865112305 -55.56399917602539 -111.0699920654297 -57.1879997253418 C -106.5459899902344 -58.8120002746582 -101.9253234863281 -59.62400054931641 -97.20799255371094 -59.62400054931641 C -92.33599090576172 -59.62400054931641 -88.21799468994141 -59.02466583251953 -84.85398864746094 -57.82600021362305 C -81.489990234375 -56.62733459472656 -78.76399230957031 -54.77133560180664 -76.67599487304688 -52.25800323486328 C -74.58798980712891 -49.74467086791992 -73.06066131591797 -46.57400131225586 -72.093994140625 -42.74599838256836 C -71.12732696533203 -38.91799926757812 -70.64398956298828 -34.37466812133789 -70.64398956298828 -29.11599922180176 L -70.64398956298828 0 L -88.04399108886719 0 L -88.04399108886719 -6.14799976348877 L -88.39199066162109 -6.14799976348877 C -89.861328125 -3.750666618347168 -92.08465576171875 -1.89466667175293 -95.06198883056641 -0.5799999833106995 C -98.03932189941406 0.734666645526886 -101.2679901123047 1.391999959945679 -104.7479934692383 1.391999959945679 C -107.0679931640625 1.391999959945679 -109.4653244018555 1.082666635513306 -111.9399871826172 0.464000016450882 C -114.4146575927734 -0.1546666920185089 -116.6766586303711 -1.159999966621399 -118.7259902954102 -2.552000045776367 C -120.7753219604492 -3.944000005722046 -122.4573211669922 -5.799999713897705 -123.7719879150391 -8.119999885559082 C -125.0866546630859 -10.44000053405762 -125.7439880371094 -13.30133247375488 -125.7439880371094 -16.70399856567383 C -125.7439880371094 -20.88000106811523 -124.6033248901367 -24.2440013885498 -122.3219909667969 -26.79600143432617 C -120.040657043457 -29.34800148010254 -117.1019897460938 -31.32000160217285 -113.505989074707 -32.71200180053711 C -109.9099884033203 -34.10400390625 -105.9079895019531 -35.03200149536133 -101.4999923706055 -35.49599838256836 C -97.09199523925781 -35.95999908447266 -92.79999542236328 -36.19200134277344 -88.62399291992188 -36.19200134277344 L -88.62399291992188 -37.11999893188477 C -88.62399291992188 -39.98133087158203 -89.62932586669922 -42.08866500854492 -91.63999176025391 -43.44200134277344 C -93.65065765380859 -44.79533386230469 -96.12532043457031 -45.47200012207031 -99.06398773193359 -45.47200012207031 C -101.7706604003906 -45.47200012207031 -104.3806610107422 -44.89200210571289 -106.8939895629883 -43.73200225830078 C -109.4073181152344 -42.57199859619141 -111.5533218383789 -41.17999649047852 -113.3319931030273 -39.55599975585938 L -122.9599914550781 -49.88000106811523 Z M -18.55998611450195 0 L -18.55998611450195 -31.552001953125 C -18.55998611450195 -33.17600250244141 -18.69532012939453 -34.7226676940918 -18.96598815917969 -36.19200134277344 C -19.23665428161621 -37.66133499145508 -19.68132019042969 -38.9566650390625 -20.29998779296875 -40.07799911499023 C -20.91865348815918 -41.19933319091797 -21.78865242004395 -42.08866882324219 -22.90998458862305 -42.74599838256836 C -24.03132057189941 -43.40333557128906 -25.44265365600586 -43.73200225830078 -27.14398574829102 -43.73200225830078 C -28.8453197479248 -43.73200225830078 -30.33398628234863 -43.40333557128906 -31.6099853515625 -42.74599838256836 C -32.885986328125 -42.08866882324219 -33.94932174682617 -41.18000030517578 -34.79998779296875 -40.02000045776367 C -35.65065383911133 -38.86000061035156 -36.28865051269531 -37.5260009765625 -36.71398162841797 -36.01799774169922 C -37.13931655883789 -34.5099983215332 -37.35198211669922 -32.94400024414062 -37.35198211669922 -31.32000160217285 L -37.35198211669922 0 L -56.49198532104492 0 L -56.49198532104492 -57.76799774169922 L -38.0479850769043 -57.76799774169922 L -38.0479850769043 -49.76399993896484 L -37.81598663330078 -49.76399993896484 C -37.11998748779297 -51.0013313293457 -36.21131896972656 -52.21933364868164 -35.08998489379883 -53.41799926757812 C -33.96865081787109 -54.61666488647461 -32.65398406982422 -55.64133071899414 -31.1459846496582 -56.49199676513672 C -29.63798713684082 -57.3426628112793 -27.99465370178223 -58.03866577148438 -26.21598815917969 -58.57999801635742 C -24.43731880187988 -59.12133407592773 -22.54265022277832 -59.39200210571289 -20.531982421875 -59.39200210571289 C -16.66531944274902 -59.39200210571289 -13.37865352630615 -58.69599914550781 -10.6719856262207 -57.30399703979492 C -7.965320587158203 -55.9119987487793 -5.780653953552246 -54.11399841308594 -4.117984771728516 -51.90999984741211 C -2.455318450927734 -49.70600128173828 -1.256650328636169 -47.17333221435547 -0.5219802856445312 -44.3120002746582 C 0.2126846313476562 -41.45066833496094 0.58001708984375 -38.58933258056641 0.58001708984375 -35.72800064086914 L 0.58001708984375 0 L -18.55998611450195 0 Z M 58.69601058959961 0 L 58.69601058959961 -7.539999961853027 L 58.46400833129883 -7.539999961853027 C 56.60800933837891 -4.601333141326904 53.95934295654297 -2.339333295822144 50.51800918579102 -0.7540000081062317 C 47.07667541503906 0.831333339214325 43.42267608642578 1.624000072479248 39.55600738525391 1.624000072479248 C 35.225341796875 1.624000072479248 31.35867500305176 0.7733333706855774 27.95600891113281 -0.9280000329017639 C 24.55334281921387 -2.62933349609375 21.67267417907715 -4.89133358001709 19.31400680541992 -7.714000225067139 C 16.95534133911133 -10.53666687011719 15.15734195709229 -13.80399894714355 13.92000865936279 -17.51599884033203 C 12.6826753616333 -21.22799873352051 12.06400871276855 -25.09466552734375 12.06400871276855 -29.11599922180176 C 12.06400871276855 -33.13733291625977 12.70200824737549 -36.98466491699219 13.97800827026367 -40.65799713134766 C 15.25400829315186 -44.33133316040039 17.07134056091309 -47.55999755859375 19.43000793457031 -50.34399795532227 C 21.78867530822754 -53.12799835205078 24.65000915527344 -55.33200073242188 28.01400756835938 -56.95600128173828 C 31.37800788879395 -58.58000183105469 35.14800643920898 -59.39200210571289 39.32400512695312 -59.39200210571289 C 43.57734298706055 -59.39200210571289 47.17334365844727 -58.58000183105469 50.11201095581055 -56.95600128173828 C 53.05067443847656 -55.33200073242188 55.33200836181641 -53.5533332824707 56.95600891113281 -51.61999893188477 L 57.18800735473633 -51.61999893188477 L 57.18800735473633 -87.69599914550781 L 76.21200561523438 -87.69599914550781 L 76.21200561523438 0 L 58.69601058959961 0 Z M 58.00000762939453 -29 C 58.00000762939453 -30.85599899291992 57.67134094238281 -32.67333221435547 57.01400756835938 -34.45199966430664 C 56.3566780090332 -36.23066711425781 55.42867660522461 -37.81599807739258 54.23000717163086 -39.20800018310547 C 53.03134155273438 -40.60000228881836 51.58134078979492 -41.72133636474609 49.88000869750977 -42.57200241088867 C 48.17867279052734 -43.42266845703125 46.24534225463867 -43.84799957275391 44.08000946044922 -43.84799957275391 C 41.83734512329102 -43.84799957275391 39.8653450012207 -43.42266845703125 38.16400909423828 -42.57200241088867 C 36.46267318725586 -41.72133636474609 35.03200912475586 -40.61933517456055 33.87200927734375 -39.26599884033203 C 32.71200942993164 -37.91266632080078 31.84200859069824 -36.3466682434082 31.26200866699219 -34.56800079345703 C 30.68200874328613 -32.78933334350586 30.39200782775879 -30.97200012207031 30.39200782775879 -29.11599922180176 C 30.39200782775879 -27.26000022888184 30.68200874328613 -25.4233341217041 31.26200866699219 -23.60600090026855 C 31.84200859069824 -21.78866767883301 32.71200942993164 -20.18400001525879 33.87200927734375 -18.79199981689453 C 35.03200912475586 -17.39999961853027 36.46267318725586 -16.27866554260254 38.16400909423828 -15.42800045013428 C 39.8653450012207 -14.57733345031738 41.83734512329102 -14.15200042724609 44.08000946044922 -14.15200042724609 C 46.24534225463867 -14.15200042724609 48.17867279052734 -14.57733345031738 49.88000869750977 -15.42800045013428 C 51.58134078979492 -16.27866554260254 53.03134155273438 -17.39999961853027 54.23000717163086 -18.79199981689453 C 55.42867660522461 -20.18400001525879 56.3566780090332 -21.76933288574219 57.01400756835938 -23.54799842834473 C 57.67134094238281 -25.3266658782959 58.00000762939453 -27.14399909973145 58.00000762939453 -29 Z M 158.2240142822266 0 L 158.2240142822266 -31.552001953125 C 158.2240142822266 -33.17600250244141 158.0886840820312 -34.7226676940918 157.8180084228516 -36.19200134277344 C 157.5473480224609 -37.66133499145508 157.1026763916016 -38.9566650390625 156.4840087890625 -40.07799911499023 C 155.8653411865234 -41.19933319091797 154.9953460693359 -42.08866882324219 153.8740081787109 -42.74599838256836 C 152.752685546875 -43.40333557128906 151.3413543701172 -43.73200225830078 149.6400146484375 -43.73200225830078 C 147.9386749267578 -43.73200225830078 146.4500122070312 -43.40333557128906 145.1740112304688 -42.74599838256836 C 143.8980102539062 -42.08866882324219 142.8346710205078 -41.18000030517578 141.9840087890625 -40.02000045776367 C 141.1333465576172 -38.86000061035156 140.4953460693359 -37.5260009765625 140.0700073242188 -36.01799774169922 C 139.6446685791016 -34.5099983215332 139.4320068359375 -32.94400024414062 139.4320068359375 -31.32000160217285 L 139.4320068359375 0 L 120.2920150756836 0 L 120.2920150756836 -57.76799774169922 L 138.7360076904297 -57.76799774169922 L 138.7360076904297 -49.76399993896484 L 138.968017578125 -49.76399993896484 C 139.6640167236328 -51.0013313293457 140.5726776123047 -52.21933364868164 141.6940155029297 -53.41799926757812 C 142.8153381347656 -54.61666488647461 144.1300048828125 -55.64133071899414 145.6380157470703 -56.49199676513672 C 147.1460113525391 -57.3426628112793 148.7893371582031 -58.03866577148438 150.5680084228516 -58.57999801635742 C 152.3466796875 -59.12133407592773 154.2413482666016 -59.39200210571289 156.2520141601562 -59.39200210571289 C 160.1186676025391 -59.39200210571289 163.4053344726562 -58.69599914550781 166.1120147705078 -57.30399703979492 C 168.8186798095703 -55.9119987487793 171.0033416748047 -54.11399841308594 172.666015625 -51.90999984741211 C 174.3286743164062 -49.70600128173828 175.52734375 -47.17333221435547 176.2620239257812 -44.3120002746582 C 176.9966888427734 -41.45066833496094 177.364013671875 -38.58933258056641 177.364013671875 -35.72800064086914 L 177.364013671875 0 L 158.2240142822266 0 Z M 252.9960021972656 -29.11599922180176 C 252.9960021972656 -24.39866638183594 252.1453399658203 -20.12599945068359 250.4440002441406 -16.29799842834473 C 248.7426605224609 -12.46999931335449 246.4226684570312 -9.222000122070312 243.4840087890625 -6.553999900817871 C 240.5453338623047 -3.885999917984009 237.1426696777344 -1.817333459854126 233.2760009765625 -0.3479999899864197 C 229.4093475341797 1.121333360671997 225.2720184326172 1.856000065803528 220.864013671875 1.856000065803528 C 216.5333404541016 1.856000065803528 212.4153442382812 1.121333360671997 208.510009765625 -0.3479999899864197 C 204.6046752929688 -1.817333459854126 201.2020111083984 -3.885999917984009 198.302001953125 -6.553999900817871 C 195.4020080566406 -9.222000122070312 193.1013488769531 -12.46999931335449 191.4000091552734 -16.29799842834473 C 189.6986694335938 -20.12599945068359 188.8480072021484 -24.39866638183594 188.8480072021484 -29.11599922180176 C 188.8480072021484 -33.83333587646484 189.6986694335938 -38.08666610717773 191.4000091552734 -41.87599945068359 C 193.1013488769531 -45.66533279418945 195.4020080566406 -48.87466812133789 198.302001953125 -51.50400161743164 C 201.2020111083984 -54.13333129882812 204.6046752929688 -56.14399719238281 208.510009765625 -57.5359992980957 C 212.4153442382812 -58.92800140380859 216.5333404541016 -59.62400054931641 220.864013671875 -59.62400054931641 C 225.2720184326172 -59.62400054931641 229.4093475341797 -58.92800140380859 233.2760009765625 -57.5359992980957 C 237.1426696777344 -56.14399719238281 240.5453338623047 -54.13333129882812 243.4840087890625 -51.50400161743164 C 246.4226684570312 -48.87466812133789 248.7426605224609 -45.66533279418945 250.4440002441406 -41.87599945068359 C 252.1453399658203 -38.08666610717773 252.9960021972656 -33.83333587646484 252.9960021972656 -29.11599922180176 Z M 234.6679992675781 -29.11599922180176 C 234.6679992675781 -30.97200012207031 234.3586730957031 -32.78933334350586 233.7400054931641 -34.56800079345703 C 233.121337890625 -36.3466682434082 232.2320098876953 -37.91266632080078 231.0720062255859 -39.26599884033203 C 229.9120025634766 -40.61933517456055 228.4813385009766 -41.72133636474609 226.7799987792969 -42.57200241088867 C 225.0786743164062 -43.42266845703125 223.1066741943359 -43.84799957275391 220.864013671875 -43.84799957275391 C 218.621337890625 -43.84799957275391 216.6493377685547 -43.42266845703125 214.947998046875 -42.57200241088867 C 213.2466735839844 -41.72133636474609 211.8353424072266 -40.61933517456055 210.7140045166016 -39.26599884033203 C 209.5926818847656 -37.91266632080078 208.7420043945312 -36.3466682434082 208.1620025634766 -34.56800079345703 C 207.5820007324219 -32.78933334350586 207.2920074462891 -30.97200012207031 207.2920074462891 -29.11599922180176 C 207.2920074462891 -27.26000022888184 207.5820007324219 -25.44266700744629 208.1620025634766 -23.66399955749512 C 208.7420043945312 -21.88533210754395 209.6120147705078 -20.28066444396973 210.7720031738281 -18.84999847412109 C 211.9320068359375 -17.41933250427246 213.3626708984375 -16.27866554260254 215.0639953613281 -15.42800045013428 C 216.7653350830078 -14.57733345031738 218.7373352050781 -14.15200042724609 220.9800109863281 -14.15200042724609 C 223.2226715087891 -14.15200042724609 225.1946716308594 -14.57733345031738 226.8960113525391 -15.42800045013428 C 228.5973358154297 -16.27866554260254 230.0279998779297 -17.41933250427246 231.1880035400391 -18.84999847412109 C 232.3480072021484 -20.28066444396973 233.2180023193359 -21.88533210754395 233.7980041503906 -23.66399955749512 C 234.3780059814453 -25.44266700744629 234.6679992675781 -27.26000022888184 234.6679992675781 -29.11599922180176 Z M 285.7080078125 -43.5 L 285.7080078125 -21.46000099182129 C 285.7080078125 -18.75333404541016 286.2300109863281 -16.72333335876465 287.2740173339844 -15.36999893188477 C 288.3180236816406 -14.01666641235352 290.193359375 -13.34000015258789 292.9000244140625 -13.34000015258789 C 293.8280334472656 -13.34000015258789 294.8140258789062 -13.41733360290527 295.8580322265625 -13.57199954986572 C 296.9020080566406 -13.72666645050049 297.7720031738281 -13.95866680145264 298.468017578125 -14.26800060272217 L 298.7000122070312 -0.3479999899864197 C 297.3853454589844 0.1159999966621399 295.7226867675781 0.5219999551773071 293.7120056152344 0.8700000047683716 C 291.7013549804688 1.217999935150146 289.690673828125 1.391999959945679 287.6800231933594 1.391999959945679 C 283.8133544921875 1.391999959945679 280.5653381347656 0.9086666107177734 277.9360046386719 -0.05800000205636024 C 275.3066711425781 -1.024666666984558 273.1993408203125 -2.416666507720947 271.614013671875 -4.233999729156494 C 270.0286865234375 -6.051333427429199 268.8880310058594 -8.216667175292969 268.1920166015625 -10.73000049591064 C 267.4960021972656 -13.24333381652832 267.1480102539062 -16.04666709899902 267.1480102539062 -19.14000129699707 L 267.1480102539062 -43.5 L 257.8680114746094 -43.5 L 257.8680114746094 -57.76799774169922 L 267.0320129394531 -57.76799774169922 L 267.0320129394531 -72.96400451660156 L 285.7080078125 -72.96400451660156 L 285.7080078125 -57.76799774169922 L 299.280029296875 -57.76799774169922 L 299.280029296875 -43.5 L 285.7080078125 -43.5 Z M 348 -35.49599838256836 C 348 -38.51200103759766 347.0526733398438 -41.10266494750977 345.1579895019531 -43.26799774169922 C 343.2633056640625 -45.43333053588867 340.4213256835938 -46.51599884033203 336.6319885253906 -46.51599884033203 C 334.7760009765625 -46.51599884033203 333.0746459960938 -46.22599792480469 331.5279846191406 -45.64599990844727 C 329.9813232421875 -45.06600189208984 328.6279907226562 -44.27333450317383 327.4679870605469 -43.26799774169922 C 326.3079833984375 -42.26266860961914 325.3800048828125 -41.08333587646484 324.6839904785156 -39.72999954223633 C 323.9879760742188 -38.37666320800781 323.601318359375 -36.96533203125 323.5239868164062 -35.49599838256836 L 348 -35.49599838256836 Z M 365.5159912109375 -28.1879997253418 C 365.5159912109375 -27.4146671295166 365.5159912109375 -26.64133262634277 365.5159912109375 -25.86800003051758 C 365.5159912109375 -25.09466743469238 365.4773254394531 -24.36000061035156 365.3999938964844 -23.66399955749512 L 323.5239868164062 -23.66399955749512 C 323.6786499023438 -22.04000091552734 324.1619873046875 -20.5706672668457 324.9739990234375 -19.2559986114502 C 325.7859802246094 -17.94133377075195 326.8299865722656 -16.80066680908203 328.1059875488281 -15.83399963378906 C 329.3819885253906 -14.86733341217041 330.8126525878906 -14.11333274841309 332.3980102539062 -13.57199954986572 C 333.9833374023438 -13.03066635131836 335.6266784667969 -12.76000022888184 337.3280029296875 -12.76000022888184 C 340.343994140625 -12.76000022888184 342.89599609375 -13.32066631317139 344.9840087890625 -14.4419994354248 C 347.0719909667969 -15.56333351135254 348.7733459472656 -17.01333427429199 350.0880126953125 -18.79199981689453 L 363.3119812011719 -10.44000053405762 C 360.6053161621094 -6.496000289916992 357.0286560058594 -3.460666656494141 352.5820007324219 -1.333999991416931 C 348.1353149414062 0.7926667928695679 342.9733276367188 1.856000065803528 337.0960083007812 1.856000065803528 C 332.7653503417969 1.856000065803528 328.6666564941406 1.179333329200745 324.7999877929688 -0.1739999949932098 C 320.9333190917969 -1.527333378791809 317.5499877929688 -3.499333143234253 314.6499938964844 -6.089999675750732 C 311.75 -8.680666923522949 309.4686584472656 -11.87066745758057 307.8059997558594 -15.66000080108643 C 306.143310546875 -19.44933319091797 305.3119812011719 -23.77999877929688 305.3119812011719 -28.65199851989746 C 305.3119812011719 -33.36933135986328 306.1239929199219 -37.64199829101562 307.7479858398438 -41.46999740600586 C 309.3719787597656 -45.29800033569336 311.5759887695312 -48.54600143432617 314.3599853515625 -51.2140007019043 C 317.1439819335938 -53.88199996948242 320.4306640625 -55.95066833496094 324.2200012207031 -57.42000198364258 C 328.0093383789062 -58.88933563232422 332.1080017089844 -59.62400054931641 336.5159912109375 -59.62400054931641 C 340.7693176269531 -59.62400054931641 344.6746520996094 -58.90866851806641 348.2319946289062 -57.47800064086914 C 351.7893371582031 -56.04733276367188 354.843994140625 -53.97866821289062 357.39599609375 -51.27199935913086 C 359.947998046875 -48.56533432006836 361.9393310546875 -45.27866744995117 363.3699951171875 -41.4119987487793 C 364.8006591796875 -37.54533386230469 365.5159912109375 -33.13733291625977 365.5159912109375 -28.1879997253418 Z M 411.3359680175781 -40.71599960327148 C 409.789306640625 -42.18533325195312 407.9719848632812 -43.42266845703125 405.8839721679688 -44.42799758911133 C 403.7959899902344 -45.43333435058594 401.5919799804688 -45.93600082397461 399.27197265625 -45.93600082397461 C 397.4933166503906 -45.93600082397461 395.8499755859375 -45.5880012512207 394.3419799804688 -44.89199829101562 C 392.833984375 -44.19599914550781 392.0799865722656 -42.99733352661133 392.0799865722656 -41.29600143432617 C 392.0799865722656 -39.67200088500977 392.9113159179688 -38.51200103759766 394.573974609375 -37.81600189208984 C 396.2366638183594 -37.11999893188477 398.9239807128906 -36.34666442871094 402.635986328125 -35.49599838256836 C 404.8013000488281 -35.03200149536133 406.9859619140625 -34.37466812133789 409.1899719238281 -33.52400207519531 C 411.3939819335938 -32.67333602905273 413.3853149414062 -31.55200004577637 415.1639709472656 -30.15999984741211 C 416.942626953125 -28.76799964904785 418.3733215332031 -27.0666675567627 419.4559936523438 -25.05599975585938 C 420.5386657714844 -23.04533195495605 421.0799865722656 -20.64799880981445 421.0799865722656 -17.86400032043457 C 421.0799865722656 -14.22933292388916 420.3453063964844 -11.15533351898193 418.8759765625 -8.642000198364258 C 417.4066467285156 -6.128666400909424 415.4926452636719 -4.098666667938232 413.1339721679688 -2.552000045776367 C 410.7752990722656 -1.005333423614502 408.1266479492188 0.1159999966621399 405.18798828125 0.812000036239624 C 402.2492980957031 1.508000135421753 399.3106384277344 1.856000065803528 396.3719787597656 1.856000065803528 C 391.6546630859375 1.856000065803528 387.0339965820312 1.102000117301941 382.5099792480469 -0.406000018119812 C 377.9859619140625 -1.914000153541565 374.2159729003906 -4.137333393096924 371.1999816894531 -7.076000213623047 L 381.8719787597656 -18.32800102233887 C 383.5733032226562 -16.47200012207031 385.6613159179688 -14.92533397674561 388.135986328125 -13.6879997253418 C 390.6106567382812 -12.4506664276123 393.239990234375 -11.83199977874756 396.0239868164062 -11.83199977874756 C 397.5706481933594 -11.83199977874756 399.0979919433594 -12.19933319091797 400.6059875488281 -12.93400001525879 C 402.1139831542969 -13.66866683959961 402.8679809570312 -14.96399974822998 402.8679809570312 -16.81999969482422 C 402.8679809570312 -18.59866523742676 401.9399719238281 -19.91333198547363 400.083984375 -20.76399993896484 C 398.2279968261719 -21.61466598510742 395.3279724121094 -22.50399971008301 391.3839721679688 -23.4320011138916 C 389.3733215332031 -23.89599990844727 387.3626403808594 -24.51466751098633 385.3519897460938 -25.28800010681152 C 383.34130859375 -26.06133270263672 381.5433044433594 -27.10533332824707 379.9579772949219 -28.42000007629395 C 378.3726501464844 -29.73466682434082 377.0773315429688 -31.35866737365723 376.0719909667969 -33.29199981689453 C 375.066650390625 -35.22533416748047 374.5639953613281 -37.54533386230469 374.5639953613281 -40.25199890136719 C 374.5639953613281 -43.73199844360352 375.2986450195312 -46.68999862670898 376.7679748535156 -49.12599945068359 C 378.2373046875 -51.5620002746582 380.1319885253906 -53.5533332824707 382.4519653320312 -55.09999847412109 C 384.77197265625 -56.64666748046875 387.3433227539062 -57.78733444213867 390.1659851074219 -58.52199554443359 C 392.9886474609375 -59.25666427612305 395.7919921875 -59.62400054931641 398.5759887695312 -59.62400054931641 C 402.9066467285156 -59.62400054931641 407.1406555175781 -58.94733428955078 411.2779846191406 -57.59399795532227 C 415.4153137207031 -56.24066543579102 418.9146423339844 -54.21066665649414 421.7759704589844 -51.50400161743164 L 411.3359680175781 -40.71599960327148 Z"
     id="Path_373" />
</svg>
