<?xml version="1.0" encoding="UTF-8" standalone="no"?>
<svg
   xmlns:dc="http://purl.org/dc/elements/1.1/"
   xmlns:cc="http://creativecommons.org/ns#"
   xmlns:rdf="http://www.w3.org/1999/02/22-rdf-syntax-ns#"
   xmlns:svg="http://www.w3.org/2000/svg"
   xmlns="http://www.w3.org/2000/svg"
   id="svg29"
   version="1.1"
   viewBox="-142.274 -87.696 289.536 89.552"
   class="Path_378">
  <metadata
     id="metadata35">
    <rdf:RDF>
      <cc:Work
         rdf:about="">
        <dc:format>image/svg+xml</dc:format>
        <dc:type
           rdf:resource="http://purl.org/dc/dcmitype/StillImage" />
        <dc:title></dc:title>
      </cc:Work>
    </rdf:RDF>
  </metadata>
  <defs
     id="defs33" />
  <path
     d="M -99.58599853515625 -39.09200286865234 C -100.6686706542969 -40.48400115966797 -102.1380081176758 -41.6053352355957 -103.9940032958984 -42.45600128173828 C -105.8499984741211 -43.30666732788086 -107.7446670532227 -43.73200225830078 -109.6780090332031 -43.73200225830078 C -111.6886672973633 -43.73200225830078 -113.5060043334961 -43.32600021362305 -115.1300048828125 -42.51399993896484 C -116.7540054321289 -41.70199966430664 -118.1460037231445 -40.61933517456055 -119.3059997558594 -39.26599884033203 C -120.4660034179688 -37.91266632080078 -121.3746719360352 -36.3466682434082 -122.0320053100586 -34.56800079345703 C -122.689338684082 -32.78933334350586 -123.0180053710938 -30.89466667175293 -123.0180053710938 -28.88399887084961 C -123.0180053710938 -26.87333297729492 -122.7086715698242 -24.97866630554199 -122.0900039672852 -23.20000076293945 C -121.4713363647461 -21.42133331298828 -120.5626678466797 -19.85533332824707 -119.3640060424805 -18.50200080871582 C -118.1653366088867 -17.14866638183594 -116.7346725463867 -16.0853328704834 -115.0720062255859 -15.3120002746582 C -113.4093399047852 -14.53866672515869 -111.5340042114258 -14.15200042724609 -109.4459991455078 -14.15200042724609 C -107.5126724243164 -14.15200042724609 -105.5986709594727 -14.5193338394165 -103.7040100097656 -15.25400066375732 C -101.8093338012695 -15.98866748809814 -100.2819976806641 -17.05200004577637 -99.12200164794922 -18.44400024414062 L -88.56600952148438 -5.567999839782715 C -90.96334075927734 -3.247999668121338 -94.05667114257812 -1.430666565895081 -97.84600830078125 -0.1160000041127205 C -101.6353378295898 1.19866669178009 -105.6566696166992 1.856000065803528 -109.9100036621094 1.856000065803528 C -114.4726715087891 1.856000065803528 -118.7260055541992 1.160000085830688 -122.6700057983398 -0.232000008225441 C -126.6139984130859 -1.623999953269958 -130.0359954833984 -3.654000043869019 -132.9360046386719 -6.322000026702881 C -135.8360137939453 -8.989999771118164 -138.1173400878906 -12.21866607666016 -139.7799987792969 -16.00799942016602 C -141.4426727294922 -19.79733467102051 -142.2740020751953 -24.08933258056641 -142.2740020751953 -28.88399887084961 C -142.2740020751953 -33.60133361816406 -141.4426727294922 -37.85466766357422 -139.7799987792969 -41.64400100708008 C -138.1173400878906 -45.43333435058594 -135.8360137939453 -48.6619987487793 -132.9360046386719 -51.32999801635742 C -130.0359954833984 -53.99800109863281 -126.6139984130859 -56.04733276367188 -122.6700057983398 -57.47800064086914 C -118.7260055541992 -58.90866851806641 -114.5113372802734 -59.62400054931641 -110.0260009765625 -59.62400054931641 C -107.9379959106445 -59.62400054931641 -105.8693313598633 -59.43066787719727 -103.8200073242188 -59.04399871826172 C -101.7706680297852 -58.65733337402344 -99.79866790771484 -58.13533401489258 -97.90400695800781 -57.47800064086914 C -96.00933837890625 -56.82066345214844 -94.26934051513672 -56.00866317749023 -92.68400573730469 -55.04199981689453 C -91.09867095947266 -54.07533645629883 -89.72600555419922 -53.01200103759766 -88.56600952148438 -51.85200119018555 L -99.58599853515625 -39.09200286865234 Z M -80.79400634765625 0 L -80.79400634765625 -87.69599914550781 L -61.53800582885742 -87.69599914550781 L -61.53800582885742 0 L -80.79400634765625 0 Z M 14.78999328613281 -29.11599922180176 C 14.78999328613281 -24.39866638183594 13.93932819366455 -20.12599945068359 12.23799896240234 -16.29799842834473 C 10.53666210174561 -12.46999931335449 8.21666145324707 -9.222000122070312 5.277996063232422 -6.553999900817871 C 2.339328765869141 -3.885999917984009 -1.063337802886963 -1.817333459854126 -4.930004119873047 -0.3479999899864197 C -8.796670913696289 1.121333360671997 -12.93400287628174 1.856000065803528 -17.34200286865234 1.856000065803528 C -21.67267036437988 1.856000065803528 -25.79067039489746 1.121333360671997 -29.69600486755371 -0.3479999899864197 C -33.60133361816406 -1.817333459854126 -37.00400161743164 -3.885999917984009 -39.90400314331055 -6.553999900817871 C -42.80400466918945 -9.222000122070312 -45.10467147827148 -12.46999931335449 -46.80600357055664 -16.29799842834473 C -48.5073356628418 -20.12599945068359 -49.35800170898438 -24.39866638183594 -49.35800170898438 -29.11599922180176 C -49.35800170898438 -33.83333587646484 -48.5073356628418 -38.08666610717773 -46.80600357055664 -41.87599945068359 C -45.10467147827148 -45.66533279418945 -42.80400466918945 -48.87466812133789 -39.90400314331055 -51.50400161743164 C -37.00400161743164 -54.13333129882812 -33.60133361816406 -56.14399719238281 -29.69600486755371 -57.5359992980957 C -25.79067039489746 -58.92800140380859 -21.67267036437988 -59.62400054931641 -17.34200286865234 -59.62400054931641 C -12.93400287628174 -59.62400054931641 -8.796670913696289 -58.92800140380859 -4.930004119873047 -57.5359992980957 C -1.063337802886963 -56.14399719238281 2.339328765869141 -54.13333129882812 5.277996063232422 -51.50400161743164 C 8.21666145324707 -48.87466812133789 10.53666210174561 -45.66533279418945 12.23799896240234 -41.87599945068359 C 13.93932819366455 -38.08666610717773 14.78999328613281 -33.83333587646484 14.78999328613281 -29.11599922180176 Z M -3.538005828857422 -29.11599922180176 C -3.538005828857422 -30.97200012207031 -3.847338199615479 -32.78933334350586 -4.46600341796875 -34.56800079345703 C -5.084668636322021 -36.3466682434082 -5.974001407623291 -37.91266632080078 -7.134002685546875 -39.26599884033203 C -8.294001579284668 -40.61933517456055 -9.724667549133301 -41.72133636474609 -11.42600250244141 -42.57200241088867 C -13.12733459472656 -43.42266845703125 -15.09933471679688 -43.84799957275391 -17.34200286865234 -43.84799957275391 C -19.58466911315918 -43.84799957275391 -21.55666923522949 -43.42266845703125 -23.25800323486328 -42.57200241088867 C -24.95933723449707 -41.72133636474609 -26.37067031860352 -40.61933517456055 -27.49200248718262 -39.26599884033203 C -28.61333656311035 -37.91266632080078 -29.46400260925293 -36.3466682434082 -30.04400253295898 -34.56800079345703 C -30.62400245666504 -32.78933334350586 -30.91400337219238 -30.97200012207031 -30.91400337219238 -29.11599922180176 C -30.91400337219238 -27.26000022888184 -30.62400245666504 -25.44266700744629 -30.04400253295898 -23.66399955749512 C -29.46400260925293 -21.88533210754395 -28.59400367736816 -20.28066444396973 -27.43400382995605 -18.84999847412109 C -26.27400398254395 -17.41933250427246 -24.84333801269531 -16.27866554260254 -23.14200592041016 -15.42800045013428 C -21.44067192077637 -14.57733345031738 -19.46866989135742 -14.15200042724609 -17.22600173950195 -14.15200042724609 C -14.98333549499512 -14.15200042724609 -13.01133632659912 -14.57733345031738 -11.31000137329102 -15.42800045013428 C -9.608669281005859 -16.27866554260254 -8.17800235748291 -17.41933250427246 -7.018001556396484 -18.84999847412109 C -5.858002662658691 -20.28066444396973 -4.988004207611084 -21.88533210754395 -4.408004760742188 -23.66399955749512 C -3.828005313873291 -25.44266700744629 -3.538005828857422 -27.26000022888184 -3.538005828857422 -29.11599922180176 Z M 66.64199829101562 -39.09200286865234 C 65.559326171875 -40.48400115966797 64.08998870849609 -41.6053352355957 62.23398971557617 -42.45600128173828 C 60.37799072265625 -43.30666732788086 58.48332595825195 -43.73200225830078 56.54999160766602 -43.73200225830078 C 54.53932571411133 -43.73200225830078 52.72199249267578 -43.32600021362305 51.09799194335938 -42.51399993896484 C 49.47399520874023 -41.70199966430664 48.08199310302734 -40.61933517456055 46.92199325561523 -39.26599884033203 C 45.76199340820312 -37.91266632080078 44.85332489013672 -36.3466682434082 44.19599151611328 -34.56800079345703 C 43.53865814208984 -32.78933334350586 43.20999145507812 -30.89466667175293 43.20999145507812 -28.88399887084961 C 43.20999145507812 -26.87333297729492 43.51932525634766 -24.97866630554199 44.13799285888672 -23.20000076293945 C 44.75666046142578 -21.42133331298828 45.66532516479492 -19.85533332824707 46.86399078369141 -18.50200080871582 C 48.06266021728516 -17.14866638183594 49.49332809448242 -16.0853328704834 51.15599060058594 -15.3120002746582 C 52.81865692138672 -14.53866672515869 54.69399261474609 -14.15200042724609 56.7819938659668 -14.15200042724609 C 58.71532440185547 -14.15200042724609 60.62932586669922 -14.5193338394165 62.52399063110352 -15.25400066375732 C 64.41866302490234 -15.98866748809814 65.94599914550781 -17.05200004577637 67.10599517822266 -18.44400024414062 L 77.6619873046875 -5.567999839782715 C 75.26465606689453 -3.247999668121338 72.17132568359375 -1.430666565895081 68.38198852539062 -0.1160000041127205 C 64.59265899658203 1.19866669178009 60.57132339477539 1.856000065803528 56.3179931640625 1.856000065803528 C 51.75532531738281 1.856000065803528 47.50199127197266 1.160000085830688 43.55799102783203 -0.232000008225441 C 39.61399078369141 -1.623999953269958 36.19198989868164 -3.654000043869019 33.2919921875 -6.322000026702881 C 30.39199256896973 -8.989999771118164 28.11066055297852 -12.21866607666016 26.4479923248291 -16.00799942016602 C 24.78532600402832 -19.79733467102051 23.95399284362793 -24.08933258056641 23.95399284362793 -28.88399887084961 C 23.95399284362793 -33.60133361816406 24.78532600402832 -37.85466766357422 26.4479923248291 -41.64400100708008 C 28.11066055297852 -45.43333435058594 30.39199256896973 -48.6619987487793 33.2919921875 -51.32999801635742 C 36.19198989868164 -53.99800109863281 39.61399078369141 -56.04733276367188 43.55799102783203 -57.47800064086914 C 47.50199127197266 -58.90866851806641 51.71665954589844 -59.62400054931641 56.20199203491211 -59.62400054931641 C 58.28999328613281 -59.62400054931641 60.35866165161133 -59.43066787719727 62.40799331665039 -59.04399871826172 C 64.45732879638672 -58.65733337402344 66.42932891845703 -58.13533401489258 68.32398986816406 -57.47800064086914 C 70.21865844726562 -56.82066345214844 71.95865631103516 -56.00866317749023 73.54399108886719 -55.04199981689453 C 75.12932586669922 -54.07533645629883 76.50199127197266 -53.01200103759766 77.6619873046875 -51.85200119018555 L 66.64199829101562 -39.09200286865234 Z M 147.2619934082031 0 L 123.7140045166016 0 L 104.8059997558594 -27.7239990234375 L 104.4580001831055 -27.7239990234375 L 104.4580001831055 0 L 85.31800079345703 0 L 85.31800079345703 -87.69599914550781 L 104.4580001831055 -87.69599914550781 L 104.4580001831055 -34.33599853515625 L 104.8059997558594 -34.33599853515625 L 123.25 -57.76799774169922 L 146.3339996337891 -57.76799774169922 L 124.0619964599609 -31.66799926757812 L 147.2619934082031 0 Z"
     id="Path_378" />
</svg>
