<?xml version="1.0" encoding="utf-8"?>
<!-- Generator: Adobe Illustrator 24.2.1, SVG Export Plug-In . SVG Version: 6.00 Build 0)  -->
<svg version="1.1"
	 id="svg29" xmlns:cc="http://creativecommons.org/ns#" xmlns:dc="http://purl.org/dc/elements/1.1/" xmlns:rdf="http://www.w3.org/1999/02/22-rdf-syntax-ns#" xmlns:svg="http://www.w3.org/2000/svg"
	 xmlns="http://www.w3.org/2000/svg" xmlns:xlink="http://www.w3.org/1999/xlink" x="0px" y="0px" viewBox="0 0 289.5 89.6"
	 style="enable-background:new 0 0 289.5 89.6;" xml:space="preserve">
<g>
	<path d="M69.4,73.4c-5.2,6.1-13.1,10.1-22,10.1c-15.9,0-29-13-29-29.1c0-15.9,13-29,29-29c9,0,16.9,4,22.2,10.3l-11.5,11
		c-2.4-3.4-6.1-5.8-10.7-5.8c-7.1,0-12.7,6-12.7,13.5c0,7.3,5.6,13.6,12.7,13.6c4.3,0,8.1-2.4,10.4-5.8L69.4,73.4z"/>
	<path d="M73.8,81.5V5.3h17.7v76.2H73.8z"/>
	<path d="M155.2,54.6c0,16.4-13.1,29.6-29.5,29.6c-16.3,0-29.5-13.2-29.5-29.6c0-16.3,13.2-29.5,29.5-29.5
		C142,25.1,155.2,38.4,155.2,54.6z M138.7,54.6c0-7.4-5.8-13.7-13-13.7c-7.2,0-13,6.2-13,13.7c0,7.6,5.8,13.8,13,13.8
		C132.9,68.4,138.7,62.3,138.7,54.6z"/>
	<path d="M210.3,73.4c-5.2,6.1-13.1,10.1-22,10.1c-15.9,0-29-13-29-29.1c0-15.9,13-29,29-29c9,0,16.9,4,22.2,10.3l-11.5,11
		c-2.4-3.4-6.1-5.8-10.7-5.8c-7.1,0-12.7,6-12.7,13.5c0,7.3,5.6,13.6,12.7,13.6c4.3,0,8.1-2.4,10.4-5.8L210.3,73.4z"/>
	<path d="M250.1,53.4L271,81.3h-21.5l-17-25.8v26h-17.8V5.3h17.8v45.5l17.2-22.7h21.4L250.1,53.4z"/>
</g>
</svg>
