<?xml version="1.0" encoding="utf-8"?>
<!-- Generator: Adobe Illustrator 24.2.1, SVG Export Plug-In . SVG Version: 6.00 Build 0)  -->
<svg version="1.1"
	 id="svg46" xmlns:cc="http://creativecommons.org/ns#" xmlns:dc="http://purl.org/dc/elements/1.1/" xmlns:rdf="http://www.w3.org/1999/02/22-rdf-syntax-ns#" xmlns:svg="http://www.w3.org/2000/svg"
	 xmlns="http://www.w3.org/2000/svg" xmlns:xlink="http://www.w3.org/1999/xlink" x="0px" y="0px" viewBox="0 0 318 318"
	 style="enable-background:new 0 0 318 318;" xml:space="preserve">
<style type="text/css">
	.st0{fill:url(#SVGID_1_);}
</style>
<linearGradient id="SVGID_1_" gradientUnits="userSpaceOnUse" x1="255.9745" y1="7.1967" x2="76.9822" y2="268.8008">
	<stop  offset="1.281415e-03" style="stop-color:#04ACDF"/>
	<stop  offset="1" style="stop-color:#4966DD"/>
</linearGradient>
<path class="st0" d="M203,159.2c0,24.2-19.6,43.8-43.8,43.8s-43.8-19.6-43.8-43.8c0-24.2,19.6-43.8,43.8-43.8S203,135,203,159.2z
	 M315,126.6C299.6,52.8,233-2.3,154.2,0.1C71.1,2.6,3.5,69.6,0.1,152.7c-3.6,90.7,69.1,165.6,159,165.6v-50.9
	c0-7.9-5.7-14.7-13.5-15.8c-46.7-6.8-82.4-48.3-79.8-97.5c2.5-47.5,41-85.9,88.5-88.2c42.1-2.1,78.6,23.8,92.3,60.7
	c3.8,10.1,5.9,21.1,5.9,32.6c0,4.9-0.4,9.6-1.1,14.3c-1.5,9.9,6.4,18.9,16.4,18.9h46.9c2.3-10.7,3.5-21.8,3.5-33.2
	C318.3,148,317.2,137.1,315,126.6z"/>
</svg>
