<?xml version="1.0" encoding="UTF-8" standalone="no"?>
<svg
   xmlns:dc="http://purl.org/dc/elements/1.1/"
   xmlns:cc="http://creativecommons.org/ns#"
   xmlns:rdf="http://www.w3.org/1999/02/22-rdf-syntax-ns#"
   xmlns:svg="http://www.w3.org/2000/svg"
   xmlns="http://www.w3.org/2000/svg"
   height="318"
   width="318"
   id="svg46"
   version="1.1"
   viewBox="440.312 523.547 318 318"
   class="Path_228_t">
  <metadata
     id="metadata52">
    <rdf:RDF>
      <cc:Work
         rdf:about="">
        <dc:format>image/svg+xml</dc:format>
        <dc:type
           rdf:resource="http://purl.org/dc/dcmitype/StillImage" />
        <dc:title></dc:title>
      </cc:Work>
    </rdf:RDF>
  </metadata>
  <defs
     id="defs50" />
  <linearGradient
     gradientUnits="userSpaceOnUse"
     gradientTransform="matrix(1.4719564,0,0,0.67936796,109.78964,126.25626)"
     y2="869.59955"
     y1="767.05188"
     x2="410.98651"
     x1="295.5477"
     spreadMethod="pad"
     id="Path_228_t">
    <stop
       id="stop32"
       stop-opacity="1"
       stop-color="#15baff"
       offset="0" />
    <stop
       id="stop34"
       stop-opacity="1"
       stop-color="#2a66ff"
       offset="1" />
  </linearGradient>
  <path
     style="fill:url(#Path_228_t)"
     d="m 689.57151,653.45603 c -0.86743,-2.20794 -2.99036,-3.65289 -5.36127,-3.65289 h -47.95733 -52.90769 c -18.08777,0 -33.10528,14.45783 -33.24222,32.54541 -10e-4,0.12592 -10e-4,0.2525 -10e-4,0.3783 0,0.12677 0,0.25274 10e-4,0.37829 0.13694,18.08899 15.15445,32.54639 33.24222,32.54639 h 52.90769 50.52496 c 3.86407,-10.24091 5.99469,-21.33215 5.99469,-32.92468 v 0 c -0.0732,-17.22528 -1.67127,-25.38068 -3.20105,-29.27082 z"
     id="path37" />
  <linearGradient
     gradientTransform="translate(88.226659,101.4583)"
     gradientUnits="userSpaceOnUse"
     y2="722.25946"
     y1="441.22607"
     x2="393.49884"
     x1="608.96838"
     spreadMethod="pad"
     id="Path_229_v">
    <stop
       id="stop39"
       stop-opacity="1"
       stop-color="#15baff"
       offset="0" />
    <stop
       id="stop41"
       stop-opacity="1"
       stop-color="#2a66ff"
       offset="1" />
  </linearGradient>
  <path
     style="fill:url(#Path_229_v)"
     d="m 755.1973,649.80314 c -15.55139,-73.60797 -82.14636,-128.63529 -160.86804,-126.1326 -85.01013,2.71054 -153.31628,72.76157 -153.97467,157.81644 -0.66962,88.30161 70.97321,160.37291 159.1333,160.37291 v -51.5154 c 0,-7.7817 -5.76599,-14.5767 -13.51178,-15.3187 h -0.0485 c -0.51032,-0.035 -1.01801,-0.084 -1.51337,-0.2054 -0.88849,-0.2178 -1.80835,-0.3432 -2.71045,-0.519 -1.0603,-0.2039 -2.11065,-0.4354 -3.15741,-0.6757 -0.37591,-0.086 -0.75165,-0.168 -1.12622,-0.2589 -1.11749,-0.2714 -2.22522,-0.5674 -3.32794,-0.8799 -0.28119,-0.08 -0.56384,-0.1568 -0.84375,-0.2389 -1.17981,-0.3458 -2.34705,-0.7158 -3.50708,-1.1051 -0.18286,-0.062 -0.367,-0.1233 -0.55005,-0.1856 -1.24451,-0.4278 -2.47522,-0.8796 -3.69488,-1.3574 l -0.23279,-0.092 c -33.61542,-13.27758 -56.90637,-45.67736 -58.90399,-81.75463 -0.35596,-6.41163 -0.0596,-12.86689 0.91607,-19.21497 0.0447,-0.2962 0.10828,-0.58521 0.15552,-0.88013 0.19281,-1.17602 0.39075,-2.35083 0.62726,-3.51196 6.26733,-30.77429 28.2702,-56.91406 57.53741,-68.32877 21.6969,-8.46112 46.49512,-8.40899 68.15448,0.15079 0.12567,0.0496 0.25141,0.0995 0.37696,0.14932 34.3623,13.75565 58.64544,47.33847 58.64544,86.61313 0,11.59241 -2.13092,22.6836 -5.99493,32.92481 h 68.40845 c 2.24993,-10.62464 3.43444,-21.64221 3.43444,-32.92481 0,-11.28161 -1.18451,-22.30047 -3.42346,-32.92358 z"
     id="path44" />
     
</svg>