<?xml version="1.0" encoding="UTF-8" standalone="no"?>
<svg
   xmlns:dc="http://purl.org/dc/elements/1.1/"
   xmlns:cc="http://creativecommons.org/ns#"
   xmlns:rdf="http://www.w3.org/1999/02/22-rdf-syntax-ns#"
   xmlns:svg="http://www.w3.org/2000/svg"
   xmlns="http://www.w3.org/2000/svg"
   height="318"
   width="280"
   class="Path_230_"
   viewBox="570.274 409.083 280 318.00001"
   version="1.1"
   id="svg46">
  <metadata
     id="metadata52">
    <rdf:RDF>
      <cc:Work
         rdf:about="">
        <dc:format>image/svg+xml</dc:format>
        <dc:type
           rdf:resource="http://purl.org/dc/dcmitype/StillImage" />
        <dc:title></dc:title>
      </cc:Work>
    </rdf:RDF>
  </metadata>
  <defs
     id="defs50" />
  <linearGradient
     gradientUnits="userSpaceOnUse"
     gradientTransform="matrix(1.1030488,0,0,0.90657817,49.370341,1.7503579)"
     id="Path_230_"
     spreadMethod="pad"
     x1="559.44312"
     x2="685.72815"
     y1="693.0921"
     y2="463.84595">
    <stop
       offset="0"
       stop-color="#ea3977"
       stop-opacity="1"
       id="stop32" />
    <stop
       offset="1"
       stop-color="#ef8733"
       stop-opacity="1"
       id="stop34" />
  </linearGradient>
  <path
     style="fill:url(#Path_230_)"
     id="path37"
     d="m 736.64659,537.02001 h 46.84106 c 3.17926,0 5.75598,2.57776 5.75598,5.75721 v 16.32403 c 0,23.3219 -18.90497,42.22662 -42.22662,42.22662 H 625.40165 c -3.17963,0 -5.75738,-2.57672 -5.75738,-5.75616 v -16.32556 c 0,-23.32037 18.90576,-42.22614 42.22638,-42.22614 h 10.46801 v -0.0476 h 16.01679 c -8.85535,0 -16.01679,-7.1612 -15.96814,-15.9679 l 0.0488,-20.70999 c 0,-50.2265 41.6128,-90.92139 92.17786,-89.42102 48.6792,1.45144 86.80823,42.63003 86.80823,91.35635 l -50.82654,-0.80395 c -6.84119,-0.10733 -12.92084,-4.28308 -15.58508,-10.58448 -3.63318,-8.59637 -11.63989,-14.9776 -21.3642,-15.61257 -14.66156,-1.01536 -26.90356,10.64569 -26.90356,25.11325 l -0.0962,36.63031 z" />
  <linearGradient
     id="Path_231_"
     spreadMethod="pad"
     x1="468.72394"
     x2="549.28589"
     y1="819.60352"
     y2="649.31122"
     gradientTransform="matrix(1.1912743,0,0,0.83943723,49.370341,39.750358)"
     gradientUnits="userSpaceOnUse">
    <stop
       offset="0"
       stop-color="#ea3977"
       stop-opacity="1"
       id="stop39" />
    <stop
       offset="1"
       stop-color="#ef8733"
       stop-opacity="1"
       id="stop41" />
  </linearGradient>
  <path
     id="path44"
     d="m 733.23399,601.20837 h -48.32862 l -0.0788,36.66656 c 0,14.45038 -12.24848,26.1023 -26.90485,25.11615 -10.8147,-0.72766 -19.47851,-8.54059 -22.39032,-18.59222 -1.27777,-4.40576 -5.25085,-7.48261 -9.83801,-7.55542 l -55.54498,-0.87122 c 0,48.70386 38.11682,89.92359 86.80059,91.36524 50.58289,1.49908 92.20655,-39.20954 92.20655,-89.44001 l 0.0439,-20.68865 c 0.02,-8.83161 -7.13391,-16.00043 -15.96545,-16.00043 z"
     style="fill:url(#Path_231_)" />
</svg>
