<?xml version="1.0" encoding="utf-8"?>
<!-- Generator: Adobe Illustrator 25.0.1, SVG Export Plug-In . SVG Version: 6.00 Build 0)  -->
<svg version="1.1"
	 id="svg46" xmlns:cc="http://creativecommons.org/ns#" xmlns:dc="http://purl.org/dc/elements/1.1/" xmlns:rdf="http://www.w3.org/1999/02/22-rdf-syntax-ns#" xmlns:svg="http://www.w3.org/2000/svg"
	 xmlns="http://www.w3.org/2000/svg" xmlns:xlink="http://www.w3.org/1999/xlink" x="0px" y="0px" viewBox="0 0 350 350"
	 style="enable-background:new 0 0 350 350;" xml:space="preserve">
<style type="text/css">
	.st0{fill:url(#SVGID_1_);}
</style>
<linearGradient id="SVGID_1_" gradientUnits="userSpaceOnUse" x1="258.5026" y1="329.6668" x2="87.684" y2="52.9407" gradientTransform="matrix(1 0 0 -1 0 352)">
	<stop  offset="0" style="stop-color:#E4803D"/>
	<stop  offset="1" style="stop-color:#EC3B60"/>
</linearGradient>
<path class="st0" d="M132.4,290.5c0,24-19.5,43.5-43.5,43.5s-43.5-19.5-43.5-43.5S64.9,247,88.9,247S132.4,266.5,132.4,290.5z
	 M211.5,16c-51.4,0-93.1,41.7-93.1,93.1v33.6h-42c-6.6,0-11.9,5.3-11.9,11.9v11c0,23.4,19,42.4,42.3,42.4h118.8
	c6.6,0,11.9-5.3,11.9-11.9v-11c0-23.4-19-42.3-42.3-42.3h-11.6v-33.7c0-15.4,12.5-27.8,27.8-27.8s27.8,12.5,27.8,27.8
	c0,6.7,2.7,12.8,7.1,17.2c4.4,4.4,10.5,7.1,17.2,7.1h40.9v-24.3C304.6,57.7,262.9,16,211.5,16z"/>
</svg>
