<?xml version="1.0" encoding="utf-8"?>
<!-- Generator: Adobe Illustrator 25.0.1, SVG Export Plug-In . SVG Version: 6.00 Build 0)  -->
<svg version="1.1"
	 id="svg86" xmlns:cc="http://creativecommons.org/ns#" xmlns:dc="http://purl.org/dc/elements/1.1/" xmlns:rdf="http://www.w3.org/1999/02/22-rdf-syntax-ns#" xmlns:svg="http://www.w3.org/2000/svg"
	 xmlns="http://www.w3.org/2000/svg" xmlns:xlink="http://www.w3.org/1999/xlink" x="0px" y="0px" viewBox="0 0 350 350"
	 style="enable-background:new 0 0 350 350;" xml:space="preserve">
<style type="text/css">
	.st0{fill:url(#SVGID_1_);}
	.st1{fill:url(#SVGID_2_);}
</style>
<g>
	
		<linearGradient id="SVGID_1_" gradientUnits="userSpaceOnUse" x1="312.0424" y1="337.5687" x2="127.7479" y2="-5.4612" gradientTransform="matrix(1 0 0 -1 0 351)">
		<stop  offset="0" style="stop-color:#00C18E"/>
		<stop  offset="1" style="stop-color:#26CF54"/>
	</linearGradient>
	<circle class="st0" cx="156.9" cy="302.2" r="47.3"/>
	
		<linearGradient id="SVGID_2_" gradientUnits="userSpaceOnUse" x1="234.7322" y1="379.1039" x2="50.4377" y2="36.074" gradientTransform="matrix(1 0 0 -1 0 351)">
		<stop  offset="0" style="stop-color:#00C18E"/>
		<stop  offset="1" style="stop-color:#26CF54"/>
	</linearGradient>
	<path class="st1" d="M297,0.5H156.9l0,0C93.6,0.8,42.2,52.4,42.2,115.7c0,15.3,3,30,8.5,43.3c11.3,27.6,33,50,60.2,62
		c2.7,1.2,5.4,2.3,8.2,3.3c0.9,0.3,1.9,0.6,2.8,1c1.8,0.6,3.6,1.1,5.5,1.6c0.9,0.3,1.9,0.5,2.9,0.7c2.9,0.7,5.8,1.3,8.7,1.8
		c2,0.3,3.9,0.6,5.9,0.8c0.7,0.1,1.5,0.2,2.2,0.2c0.3,0,0.6,0.1,0.9,0.1c1,0.1,1.9,0.1,2.9,0.2c1,0.1,2,0.1,3,0.1s2,0.1,3.1,0.1
		c0.2,0,0.4,0,0.6,0c16.6,0,32.4-3.5,46.6-9.9c0.9-0.4,1.7-0.8,2.6-1.2c24.8-11.8,44.7-32.1,55.9-57.1c0.6-1.2,1.1-2.5,1.6-3.7
		c5.5-13.4,8.5-28,8.5-43.3c0-18-4.2-35-11.5-50.2h0.8c6.2,0,12.1-1.2,17.5-3.5c16.6-6.9,28.4-23.3,28.4-42.4v-8.3
		C307.8,5.3,303,0.5,297,0.5z M175.1,162.9c-5.5,2.1-11.4,3.2-17.7,3.2c-27.8,0-50.3-22.5-50.3-50.3s22.5-50.3,50.3-50.3
		c24.4,0,44.7,17.3,49.3,40.4c0.6,3.2,1,6.6,1,10C207.8,137.3,194.2,155.7,175.1,162.9z"/>
</g>
</svg>
