<?xml version="1.0" encoding="utf-8"?>
<!-- Generator: Adobe Illustrator 25.0.1, SVG Export Plug-In . SVG Version: 6.00 Build 0)  -->
<svg version="1.1"
	 id="svg158" xmlns:cc="http://creativecommons.org/ns#" xmlns:dc="http://purl.org/dc/elements/1.1/" xmlns:rdf="http://www.w3.org/1999/02/22-rdf-syntax-ns#" xmlns:svg="http://www.w3.org/2000/svg"
	 xmlns="http://www.w3.org/2000/svg" xmlns:xlink="http://www.w3.org/1999/xlink" x="0px" y="0px" viewBox="0 0 350 350"
	 style="enable-background:new 0 0 350 350;" xml:space="preserve">
<style type="text/css">
	.st0{fill:url(#SVGID_1_);}
</style>
<linearGradient id="SVGID_1_" gradientUnits="userSpaceOnUse" x1="245.2537" y1="372.8408" x2="50.518" y2="66.8275" gradientTransform="matrix(1 0 0 -1 0 351.5)">
	<stop  offset="0" style="stop-color:#B340E2"/>
	<stop  offset="1" style="stop-color:#612AD5"/>
</linearGradient>
<path class="st0" d="M223.3,168.9c0,26.7-21.6,48.3-48.3,48.3s-48.3-21.6-48.3-48.3s21.6-48.3,48.3-48.3S223.3,142.2,223.3,168.9z
	 M322.4,11.8H206.5H66.7C39,11.8,16.5,34.2,16.5,62v11.4c0,6.1,4.9,11,11.1,11h142.5h116.8c25.8,0,46.7-20.9,46.7-46.7v-15
	C333.5,16.6,328.5,11.8,322.4,11.8z M175,241.6c-26.7,0-48.3,21.6-48.3,48.3s21.6,48.3,48.3,48.3s48.3-21.6,48.3-48.3
	S201.7,241.6,175,241.6z"/>
</svg>
