<?xml version="1.0" encoding="utf-8"?>
<!-- Generator: Adobe Illustrator 24.2.1, SVG Export Plug-In . SVG Version: 6.00 Build 0)  -->
<svg version="1.1"
	 id="svg158" xmlns:cc="http://creativecommons.org/ns#" xmlns:dc="http://purl.org/dc/elements/1.1/" xmlns:rdf="http://www.w3.org/1999/02/22-rdf-syntax-ns#" xmlns:svg="http://www.w3.org/2000/svg"
	 xmlns="http://www.w3.org/2000/svg" xmlns:xlink="http://www.w3.org/1999/xlink" x="0px" y="0px" viewBox="0 0 317 326.5"
	 style="enable-background:new 0 0 317 326.5;" xml:space="preserve">
<style type="text/css">
	.st0{fill:url(#SVGID_1_);}
</style>
<linearGradient id="SVGID_1_" gradientUnits="userSpaceOnUse" x1="228.7603" y1="-33.0866" x2="34.0246" y2="272.9267">
	<stop  offset="0" style="stop-color:#B340E2"/>
	<stop  offset="1" style="stop-color:#612AD5"/>
</linearGradient>
<path class="st0" d="M206.8,157.2c0,26.7-21.6,48.3-48.3,48.3s-48.3-21.6-48.3-48.3c0-26.7,21.6-48.3,48.3-48.3
	S206.8,130.5,206.8,157.2z M305.9,0H190H50.2C22.5,0,0,22.5,0,50.2v11.4c0,6.1,4.9,11,11.1,11h142.5h116.8
	c25.8,0,46.7-20.9,46.7-46.7v-15C317,4.9,312,0,305.9,0z M158.5,229.8c-26.7,0-48.3,21.6-48.3,48.3s21.6,48.3,48.3,48.3
	s48.3-21.6,48.3-48.3S185.2,229.8,158.5,229.8z"/>
</svg>
