<?xml version="1.0" encoding="UTF-8" standalone="no"?>
<svg
   xmlns:dc="http://purl.org/dc/elements/1.1/"
   xmlns:cc="http://creativecommons.org/ns#"
   xmlns:rdf="http://www.w3.org/1999/02/22-rdf-syntax-ns#"
   xmlns:svg="http://www.w3.org/2000/svg"
   xmlns="http://www.w3.org/2000/svg"
   id="svg20"
   version="1.1"
   viewBox="261.584 251.374 597.836 285.203"
   class="Path_227">
  <metadata
     id="metadata26">
    <rdf:RDF>
      <cc:Work
         rdf:about="">
        <dc:format>image/svg+xml</dc:format>
        <dc:type
           rdf:resource="http://purl.org/dc/dcmitype/StillImage" />
        <dc:title></dc:title>
      </cc:Work>
    </rdf:RDF>
  </metadata>
  <defs
     id="defs24" />
  <path
     d="M 448.4207153320312 287.8092651367188 L 417.66259765625 287.8092651367188 L 417.66259765625 370.0666198730469 L 379.2064208984375 370.0666198730469 L 379.2064208984375 287.8092651367188 L 349.1273193359375 287.8092651367188 L 349.1273193359375 254.8834533691406 L 448.4207153320312 254.8834533691406 L 448.4207153320312 287.8092651367188 Z M 600.54443359375 254.8834533691406 L 600.54443359375 370.0666198730469 L 562.9249877929688 370.0666198730469 L 563.929931640625 305.5296020507812 L 562.9249877929688 305.5296020507812 L 541.8687744140625 370.0666198730469 L 514.4514770507812 370.0666198730469 L 493.2164306640625 305.3666687011719 L 492.3907470703125 305.3666687011719 L 494.0475463867188 370.0666198730469 L 457.775390625 370.0666198730469 L 457.775390625 254.8834533691406 L 508.6008911132812 254.8834533691406 L 529.4939575195312 317.0626525878906 L 530.3250732421875 317.0626525878906 L 548.2249755859375 254.8834533691406 L 600.54443359375 254.8834533691406 Z M 683.7958374023438 326.0967712402344 L 710.2026977539062 351.0097351074219 C 698.6698608398438 364.2104797363281 682.1173095703125 372.8968505859375 663.5657348632812 372.8968505859375 C 640.4942626953125 372.8968505859375 620.59521484375 360.0329895019531 610.577880859375 341.3020629882812 L 610.577880859375 282.8004455566406 C 620.59521484375 264.2488403320312 640.4942626953125 251.3739624023438 663.5657348632812 251.3739624023438 C 683.61669921875 251.3739624023438 700.67431640625 260.7341003417969 711.7130126953125 275.4396362304688 L 684.1216430664062 298.6848754882812 C 679.61279296875 291.6607971191406 672.089111328125 286.8150634765625 663.5657348632812 286.8150634765625 C 650.0225830078125 286.8150634765625 639.1631469726562 298.1796569824219 639.1631469726562 312.2169799804688 C 639.1631469726562 326.0967712402344 650.0225830078125 337.2874145507812 663.5657348632812 337.2874145507812 C 671.9260864257812 337.2874145507812 679.2760620117188 332.9471130371094 683.7958374023438 326.0967712402344 Z M 534.3396606445312 384.6146545410156 L 534.3396606445312 467.3338012695312 C 534.3396606445312 505.5290222167969 503.3748168945312 536.4937744140625 465.1798095703125 536.4937744140625 L 465.1798095703125 536.4937744140625 C 426.9900512695312 536.4937744140625 396.0252685546875 505.5290222167969 396.0252685546875 467.3338012695312 L 396.0252685546875 384.6146545410156 L 444.9168701171875 384.6146545410156 L 444.9168701171875 470.7237243652344 C 444.9168701171875 481.8981323242188 454.0054321289062 490.9920654296875 465.1798095703125 490.9920654296875 C 476.3540649414062 490.9920654296875 485.4480590820312 481.8981323242188 485.4480590820312 470.7237243652344 L 485.4480590820312 384.6146545410156 L 534.3396606445312 384.6146545410156 Z M 551.5061645507812 532.3162231445312 L 601.571044921875 532.3162231445312 L 601.571044921875 384.6146545410156 L 551.5061645507812 384.6146545410156 L 551.5061645507812 532.3162231445312 Z M 702.7549438476562 426.5471801757812 L 739.0542602539062 426.5471801757812 L 739.0542602539062 384.6146545410156 L 616.7979736328125 384.6146545410156 L 616.7979736328125 426.5471801757812 L 653.0974731445312 426.5471801757812 L 653.0974731445312 532.3162231445312 L 702.7549438476562 532.3162231445312 L 702.7549438476562 426.5471801757812 Z M 754.2811889648438 532.3162231445312 L 859.4199829101562 532.3162231445312 L 859.4199829101562 491.0081176757812 L 801.0162963867188 491.0081176757812 L 801.0162963867188 477.2424926757812 L 852.542724609375 477.2424926757812 L 852.542724609375 438.6507873535156 L 801.0162963867188 438.6507873535156 L 801.0162963867188 425.9225463867188 L 859.4199829101562 425.9225463867188 L 859.4199829101562 384.6146545410156 L 754.2811889648438 384.6146545410156 L 754.2811889648438 532.3162231445312 Z M 364.6749267578125 449.5318908691406 C 359.5955810546875 446.2289428710938 354.0709228515625 443.5941772460938 348.1386108398438 441.6222534179688 C 342.2010498046875 439.6828918457031 336.5513916015625 437.9880065917969 331.2003173828125 436.5483703613281 C 325.9853515625 435.1251220703125 322.2044677734375 433.9027404785156 319.8682861328125 432.9032897949219 C 317.5269775390625 431.8928527832031 316.2938842773438 430.279541015625 316.196044921875 428.0576171875 C 316.0875244140625 425.7052917480469 317.1087646484375 423.9399108886719 319.3035278320312 422.8044128417969 C 321.4600219726562 421.6528015136719 324.366455078125 420.9899597167969 327.97900390625 420.8269958496094 C 331.863037109375 420.6477661132812 336.2905883789062 421.5331726074219 341.2557983398438 423.4617919921875 C 346.2047729492188 425.3956298828125 350.452880859375 428.3618469238281 353.9837646484375 432.3817443847656 L 383.3787231445312 399.5103759765625 C 375.420166015625 392.7687377929688 366.3209228515625 387.7492065429688 356.0753173828125 384.4624938964844 C 345.8300170898438 381.1759643554688 335.839599609375 379.7472534179688 326.1210327148438 380.192626953125 C 318.89599609375 380.5184936523438 311.643798828125 381.7681579589844 304.3534545898438 383.9083557128906 C 297.0740356445312 386.0595397949219 290.5767822265625 389.3300476074219 284.8619995117188 393.7030029296875 C 279.1524658203125 398.0762023925781 274.556640625 403.5574645996094 271.1016845703125 410.1199035644531 C 267.646728515625 416.7039794921875 266.1203002929688 424.5754089355469 266.5440063476562 433.7669982910156 C 266.8427734375 440.3129272460938 268.1463623046875 445.8594665527344 270.4335327148438 450.4282531738281 C 272.7314453125 454.9968872070312 275.7300415039062 458.8702392578125 279.4241943359375 462.0479125976562 C 283.1236877441406 465.2260437011719 287.3229370117188 467.8553466796875 292.0054931640625 469.9359130859375 C 296.6936645507812 472.0328369140625 301.5828857421875 473.7984008789062 306.6621704101562 475.2325744628906 C 311.87744140625 476.6775512695312 316.2177124023438 477.9378967285156 319.68359375 479.0406494140625 C 323.5514526367188 480.2522583007812 327.7997436523438 481.2843017578125 330.9722290039062 483.9625549316406 C 332.1348876953125 484.9456481933594 333.08544921875 486.2494201660156 333.3516845703125 487.7435302734375 C 333.845947265625 490.5248107910156 331.8087768554688 493.2571411132812 329.2719116210938 494.5012817382812 C 321.987060546875 498.0811462402344 311.5677490234375 495.4084167480469 304.61962890625 492.2848205566406 C 298.7201538085938 489.6338195800781 293.9396362304688 486.5048522949219 290.3052978515625 482.9139404296875 L 261.584228515625 517.1326904296875 C 265.484619140625 520.2672729492188 269.8630981445312 523.0919799804688 274.7197875976562 525.5691528320312 C 279.5546264648438 528.0355834960938 284.698974609375 530.1595458984375 290.1367797851562 531.919677734375 C 295.58544921875 533.67431640625 301.2027587890625 534.945556640625 307.0151977539062 535.7169189453125 C 312.8279418945312 536.4881591796875 318.7385864257812 536.7437133789062 324.7086791992188 536.4719848632812 C 332.2054443359375 536.129638671875 339.5120239257812 534.7064208984375 346.6392211914062 532.2239379882812 C 353.7666015625 529.73583984375 360.1117553710938 526.1829223632812 365.6798095703125 521.5438232421875 C 371.2424926757812 516.9044799804688 375.6591796875 511.1949462890625 378.8967895507812 504.4371337890625 C 382.123779296875 497.6792602539062 383.552490234375 489.8457641601562 383.1449584960938 480.9581909179688 C 382.7919311523438 473.31494140625 380.9069213867188 467.0079345703125 377.4680786132812 461.9991455078125 C 374.0458374023438 457.0068054199219 369.77587890625 452.85107421875 364.6749267578125 449.5318908691406 Z"
     id="Path_227"
     fill="rgba(0,0,0,1)" />
</svg>
