<?xml version="1.0" encoding="utf-8"?>
<!-- Generator: Adobe Illustrator 24.2.3, SVG Export Plug-In . SVG Version: 6.00 Build 0)  -->
<svg version="1.1"
	 id="svg20" xmlns:cc="http://creativecommons.org/ns#" xmlns:dc="http://purl.org/dc/elements/1.1/" xmlns:rdf="http://www.w3.org/1999/02/22-rdf-syntax-ns#" xmlns:svg="http://www.w3.org/2000/svg"
	 xmlns="http://www.w3.org/2000/svg" xmlns:xlink="http://www.w3.org/1999/xlink" x="0px" y="0px" viewBox="0 0 597.8 285.2"
	 style="enable-background:new 0 0 597.8 285.2;" xml:space="preserve">
<g>
	<path d="M161.7,96.2h39.8v95.7h-26.9v-48.7l-16,48.7h-27.1l-16-48.7v48.7H88.6V96.2h39.8l16.6,50.7L161.7,96.2z M0,123.1h28.1v68.8
		H55v-68.8H83V96.2H0V123.1z M266,158.1c-4.1,5.4-10.1,8.5-16.6,8.5c-11.8,0-21.3-10.1-21.3-22.5c0-12.4,9.6-22.5,21.3-22.5
		c6.5,0,12.5,3.1,16.6,8.5l1.1,1.5l22.4-16.8l-1.2-1.5c-9.5-12-23.7-18.8-39-18.8c-17.1,0-32.8,8.6-42,23.1l-0.3,0.5v52.5l0.3,0.5
		c9.2,14.5,24.9,23.1,42,23.1c15.3,0,29.5-6.9,39-18.8l1.2-1.5l-22.4-16.8L266,158.1z"/>
	<g>
		<path d="M341.5,112.8c2.9,0,6,0.7,9,2c3.3,1.6,6,3.6,7.9,6.1l14.5-12.9c-4-5.3-9.1-9.2-14.6-11.3c-5.6-1.9-11-2.9-16.4-2.9
			c-4.5,0-8.9,0.7-13.3,1.7c-4.3,1.1-8.3,2.8-11.8,5.2c-3.5,2.5-6.3,5.6-8.3,9.3c-2.3,3.9-3.3,8.4-3.3,13.6c0,4.4,0.7,8,2,10.9
			c3.2,6.5,8.5,10.8,15.1,13.7c6,2.6,12.5,4.1,18.6,6.5c1.9,0.7,3.7,1.6,5.2,2.9c1.3,1.2,2.2,2.7,2.7,4.3c1.8,6.2-2.2,11.3-8.2,12.4
			c-5.3,1-11.2-0.2-16-2.5c-3.9-1.9-6.8-4.3-9.2-7.1l-1.5,1.2l-13,12c3.9,5.5,9,9.7,15.3,12c6.5,2.5,12.9,3.7,19.7,3.7
			c4.8,0,9.3-0.7,13.6-1.9c1.1-0.4,2-0.8,3.1-1.1c3.1-1.2,6-2.8,8.7-4.8c3.3-2.5,6.1-5.9,8-9.8c2.1-3.9,3.2-8.8,3.2-14.1
			c0-4.8-1.1-8.8-2.8-11.8c-2-3.2-4.4-5.7-7.2-8c-2.9-2.1-6.1-3.9-9.6-5.1c-2.5-1.1-5.1-1.9-7.6-2.8c-0.8-0.3-7.9-2.4-7.9-2.8
			c-2.9-1-6-2.2-7.8-4.8c-1.8-2.6-1.6-6.4,0.1-9C332.2,113.5,337,112.8,341.5,112.8z"/>
		<path d="M421.5,164.4c0,6.1-4.8,10.8-10.8,10.8c-5.9,0-10.8-4.7-10.8-10.8v-39.8h-22v41c0,3.2,0.5,6.4,1.3,9.7
			c0.9,3.3,2.1,6.3,4.1,8.8c2,2.5,4.4,4.5,7.3,6.1c3.2,1.6,7,2.4,11.6,2.4c4.5,0,8.5-1.1,11.8-3.1c3.2-2,5.6-4.5,7-7.2h0.3v8.4h21.8
			v-66.1h-21.8V164.4z"/>
		<path d="M462.8,91.4c-6.7,0-12,5.2-12,12c0,6.7,5.3,12,12,12s12-5.3,12-12C474.8,96.6,469.4,91.4,462.8,91.4z"/>
		<rect x="451.9" y="124.6" width="21.8" height="66.3"/>
		<path d="M511.7,104.6h-19v9.5c0,5.8-4.7,10.5-10.4,10.5h-2.3v17.8h10.4v29.3c0,0.3,0,0.6,0,0.9v0.2c0.6,11,9.4,19.8,20.3,20.3
			c0,0,3.7,0,4.3,0c3.2,0,6.2-0.6,8.9-1.7v-17.9c-1.2,0.7-2.6,1.1-4.1,1.1c-4.5,0-8.1-3.6-8.1-8.1v-24.2h12.2v-17.8h-12.2V104.6z"/>
		<path d="M597.8,157.2c0-20.2-13.9-35.8-34.9-35.8c-21.6,0-34.9,15.8-34.9,35.9c0,22.5,14.2,35.9,34.9,35.9c13.2,0,25-5.2,31.7-14
			l-17.3-10.8c-2.9,5.1-7.9,6.8-13.3,6.9c-5.9,0.1-15.4-2.7-15.6-12.1h48.8C597.7,161.4,597.8,159.4,597.8,157.2z M549.1,149.4
			c0.9-7.7,7-11.2,13.4-11.2c5.9,0,12.6,2,13.6,11.2H549.1z"/>
	</g>
</g>
</svg>
