<?xml version="1.0" encoding="UTF-8" standalone="no"?>
<svg
   xmlns:dc="http://purl.org/dc/elements/1.1/"
   xmlns:cc="http://creativecommons.org/ns#"
   xmlns:rdf="http://www.w3.org/1999/02/22-rdf-syntax-ns#"
   xmlns:svg="http://www.w3.org/2000/svg"
   xmlns="http://www.w3.org/2000/svg"
   id="svg48"
   version="1.1"
   viewBox="-565.61 -164.052 1126.664 216.132"
   class="Path_371">
  <metadata
     id="metadata54">
    <rdf:RDF>
      <cc:Work
         rdf:about="">
        <dc:format>image/svg+xml</dc:format>
        <dc:type
           rdf:resource="http://purl.org/dc/dcmitype/StillImage" />
        <dc:title></dc:title>
      </cc:Work>
    </rdf:RDF>
  </metadata>
  <defs
     id="defs52" />
  <path
     d="M -485.7544860839844 -66.40200042724609 C -485.7544860839844 -72.04399871826172 -487.5266418457031 -76.89033508300781 -491.0709838867188 -80.94100189208984 C -494.6153259277344 -84.99166870117188 -499.9318237304688 -87.01699829101562 -507.0205078125 -87.01699829101562 C -510.4925231933594 -87.01699829101562 -513.6751708984375 -86.47450256347656 -516.5684814453125 -85.38950347900391 C -519.4618530273438 -84.30450439453125 -521.9935302734375 -82.82167053222656 -524.1635131835938 -80.94100189208984 C -526.33349609375 -79.06033325195312 -528.0694580078125 -76.85417175292969 -529.3714599609375 -74.32250213623047 C -530.6734619140625 -71.79083251953125 -531.3967895507812 -69.15066528320312 -531.54150390625 -66.40200042724609 L -485.7544860839844 -66.40200042724609 Z M -452.9874877929688 -52.73099899291992 C -452.9874877929688 -51.28433227539062 -452.9874877929688 -49.83766937255859 -452.9874877929688 -48.3910026550293 C -452.9874877929688 -46.9443359375 -453.059814453125 -45.56999969482422 -453.2044982910156 -44.26799774169922 L -531.54150390625 -44.26799774169922 C -531.2521362304688 -41.22999954223633 -530.3479614257812 -38.48133087158203 -528.8289794921875 -36.02199935913086 C -527.3099975585938 -33.56266784667969 -525.3569946289062 -31.4288330078125 -522.969970703125 -29.6205005645752 C -520.5829467773438 -27.81216621398926 -517.9066162109375 -26.40166664123535 -514.9409790039062 -25.38899993896484 C -511.9753112792969 -24.37633323669434 -508.9011535644531 -23.86999893188477 -505.718505859375 -23.86999893188477 C -500.0765075683594 -23.86999893188477 -495.302490234375 -24.91883277893066 -491.396484375 -27.01650047302246 C -487.490478515625 -29.11416625976562 -484.3078002929688 -31.8266658782959 -481.8484802246094 -35.15399932861328 L -457.1104736328125 -19.53000068664551 C -462.1737976074219 -12.15200042724609 -468.8646545410156 -6.473833560943604 -477.1829833984375 -2.495500087738037 C -485.5013122558594 1.482833385467529 -495.1578369140625 3.472000122070312 -506.1524963378906 3.472000122070312 C -514.2538452148438 3.472000122070312 -521.921142578125 2.206166744232178 -529.1544799804688 -0.3255000114440918 C -536.3878173828125 -2.857166528701782 -542.7169799804688 -6.54616641998291 -548.1419677734375 -11.39249992370605 C -553.5669555664062 -16.23883438110352 -557.8346557617188 -22.20633316040039 -560.9450073242188 -29.29500198364258 C -564.0552978515625 -36.3836669921875 -565.6104736328125 -44.48500061035156 -565.6104736328125 -53.5989990234375 C -565.6104736328125 -62.42366790771484 -564.0914916992188 -70.41649627685547 -561.053466796875 -77.57749938964844 C -558.0154418945312 -84.73850250244141 -553.8924560546875 -90.81449890136719 -548.6845092773438 -95.80550384521484 C -543.4765014648438 -100.796501159668 -537.3281860351562 -104.6663360595703 -530.239501953125 -107.4150009155273 C -523.1508178710938 -110.1636657714844 -515.4835205078125 -111.5380020141602 -507.2374877929688 -111.5380020141602 C -499.2808227539062 -111.5380020141602 -491.9751586914062 -110.199836730957 -485.3204956054688 -107.5234985351562 C -478.6658325195312 -104.84716796875 -472.9515075683594 -100.9773330688477 -468.177490234375 -95.91400146484375 C -463.4034729003906 -90.85066986083984 -459.6783142089844 -84.70233154296875 -457.0019836425781 -77.46900177001953 C -454.3256530761719 -70.23567199707031 -452.9874877929688 -61.98966979980469 -452.9874877929688 -52.73099899291992 Z M -361.8475036621094 0 L -385.0664978027344 -33.20100021362305 L -408.9364929199219 0 L -450.16650390625 0 L -406.9835205078125 -56.63700103759766 L -446.0435180664062 -108.0660018920898 L -404.5964965820312 -108.0660018920898 L -384.4154968261719 -79.20500183105469 L -364.0175170898438 -108.0660018920898 L -323.8724975585938 -108.0660018920898 L -362.7155151367188 -56.63700103759766 L -319.9664916992188 0 L -361.8475036621094 0 Z M -186.5115051269531 -54.46699905395508 C -186.5115051269531 -46.94433212280273 -187.6688385009766 -39.71099853515625 -189.9834899902344 -32.76699829101562 C -192.2981567382812 -25.822998046875 -195.6616668701172 -19.71083450317383 -200.0740051269531 -14.43050003051758 C -204.4863433837891 -9.150166511535645 -209.8751678466797 -4.918666839599609 -216.2404937744141 -1.736000061035156 C -222.6058197021484 1.446666717529297 -229.8391571044922 3.038000106811523 -237.9404907226562 3.038000106811523 C -244.5951538085938 3.038000106811523 -250.8881530761719 1.699833393096924 -256.8194885253906 -0.9764999747276306 C -262.7508239746094 -3.652833461761475 -267.3801574707031 -7.305666446685791 -270.7074890136719 -11.93499946594238 L -271.1414794921875 -11.93499946594238 L -271.1414794921875 52.07999801635742 L -306.7294921875 52.07999801635742 L -306.7294921875 -108.0660018920898 L -272.8775024414062 -108.0660018920898 L -272.8775024414062 -94.82900238037109 L -272.2265014648438 -94.82900238037109 C -268.899169921875 -99.16900634765625 -264.3059997558594 -102.9664993286133 -258.4469909667969 -106.2214965820312 C -252.5879974365234 -109.4765014648438 -245.6801605224609 -111.10400390625 -237.7234954833984 -111.10400390625 C -229.9114990234375 -111.10400390625 -222.8228302001953 -109.5849990844727 -216.4574890136719 -106.5469970703125 C -210.0921478271484 -103.5089950561523 -204.7033233642578 -99.38599395751953 -200.2909851074219 -94.17799377441406 C -195.878662109375 -88.96999359130859 -192.47900390625 -82.93016052246094 -190.0919952392578 -76.05849456787109 C -187.7050018310547 -69.18682861328125 -186.5115051269531 -61.98966598510742 -186.5115051269531 -54.46699905395508 Z M -221.0144958496094 -54.46699905395508 C -221.0144958496094 -57.93900299072266 -221.5569915771484 -61.33866882324219 -222.6419982910156 -64.66600036621094 C -223.7270050048828 -67.99333953857422 -225.3183288574219 -70.92283630371094 -227.4159851074219 -73.45449829101562 C -229.5136566162109 -75.98616790771484 -232.1538238525391 -78.04766845703125 -235.3364868164062 -79.63899993896484 C -238.5191650390625 -81.23033142089844 -242.2081604003906 -82.0260009765625 -246.4034881591797 -82.0260009765625 C -250.4541625976562 -82.0260009765625 -254.0708160400391 -81.23033142089844 -257.2534790039062 -79.63899993896484 C -260.4361572265625 -78.04766845703125 -263.1486511230469 -75.94999694824219 -265.3909912109375 -73.34600067138672 C -267.6333312988281 -70.74199676513672 -269.3693237304688 -67.77632904052734 -270.5989990234375 -64.44899749755859 C -271.8286437988281 -61.12166213989258 -272.4434814453125 -57.72199630737305 -272.4434814453125 -54.25 C -272.4434814453125 -50.77799987792969 -271.8286437988281 -47.37833404541016 -270.5989990234375 -44.05099868774414 C -269.3693237304688 -40.72366714477539 -267.6333312988281 -37.75799942016602 -265.3909912109375 -35.15399932861328 C -263.1486511230469 -32.54999923706055 -260.4361572265625 -30.45233345031738 -257.2534790039062 -28.86100006103516 C -254.0708160400391 -27.26966667175293 -250.4541625976562 -26.47400093078613 -246.4034881591797 -26.47400093078613 C -242.2081604003906 -26.47400093078613 -238.5191650390625 -27.26966667175293 -235.3364868164062 -28.86100006103516 C -232.1538238525391 -30.45233345031738 -229.5136566162109 -32.54999923706055 -227.4159851074219 -35.15399932861328 C -225.3183288574219 -37.75799942016602 -223.7270050048828 -40.75983428955078 -222.6419982910156 -44.15950012207031 C -221.5569915771484 -47.55916595458984 -221.0144958496094 -50.99499893188477 -221.0144958496094 -54.46699905395508 Z M -89.7294921875 -66.40200042724609 C -89.7294921875 -72.04399871826172 -91.50166320800781 -76.89033508300781 -95.04599761962891 -80.94100189208984 C -98.59032440185547 -84.99166870117188 -103.9068222045898 -87.01699829101562 -110.9954986572266 -87.01699829101562 C -114.4674911499023 -87.01699829101562 -117.6501617431641 -86.47450256347656 -120.5434951782227 -85.38950347900391 C -123.4368286132812 -84.30450439453125 -125.9684906005859 -82.82167053222656 -128.1384887695312 -80.94100189208984 C -130.3084869384766 -79.06033325195312 -132.0444946289062 -76.85417175292969 -133.3464965820312 -74.32250213623047 C -134.6484985351562 -71.79083251953125 -135.371826171875 -69.15066528320312 -135.5164947509766 -66.40200042724609 L -89.7294921875 -66.40200042724609 Z M -56.96248626708984 -52.73099899291992 C -56.96248626708984 -51.28433227539062 -56.96248626708984 -49.83766937255859 -56.96248626708984 -48.3910026550293 C -56.96248626708984 -46.9443359375 -57.03482437133789 -45.56999969482422 -57.17949676513672 -44.26799774169922 L -135.5164947509766 -44.26799774169922 C -135.2271575927734 -41.22999954223633 -134.3229827880859 -38.48133087158203 -132.8039855957031 -36.02199935913086 C -131.2849884033203 -33.56266784667969 -129.3320007324219 -31.4288330078125 -126.9449920654297 -29.6205005645752 C -124.557991027832 -27.81216621398926 -121.8816528320312 -26.40166664123535 -118.9159851074219 -25.38899993896484 C -115.950325012207 -24.37633323669434 -112.8761596679688 -23.86999893188477 -109.6934967041016 -23.86999893188477 C -104.0514907836914 -23.86999893188477 -99.27748870849609 -24.91883277893066 -95.37149047851562 -27.01650047302246 C -91.46549224853516 -29.11416625976562 -88.28282928466797 -31.8266658782959 -85.823486328125 -35.15399932861328 L -61.08549499511719 -19.53000068664551 C -66.14882659912109 -12.15200042724609 -72.83965301513672 -6.473833560943604 -81.15798950195312 -2.495500087738037 C -89.47632598876953 1.482833385467529 -99.13282775878906 3.472000122070312 -110.1274948120117 3.472000122070312 C -118.2288284301758 3.472000122070312 -125.8961563110352 2.206166744232178 -133.1294860839844 -0.3255000114440918 C -140.3628234863281 -2.857166528701782 -146.6919860839844 -6.54616641998291 -152.1169891357422 -11.39249992370605 C -157.5419921875 -16.23883438110352 -161.8096618652344 -22.20633316040039 -164.9199981689453 -29.29500198364258 C -168.0303344726562 -36.3836669921875 -169.5854949951172 -44.48500061035156 -169.5854949951172 -53.5989990234375 C -169.5854949951172 -62.42366790771484 -168.0664978027344 -70.41649627685547 -165.0284881591797 -77.57749938964844 C -161.9904937744141 -84.73850250244141 -157.8674926757812 -90.81449890136719 -152.6594848632812 -95.80550384521484 C -147.4514923095703 -100.796501159668 -141.3031616210938 -104.6663360595703 -134.2144927978516 -107.4150009155273 C -127.1258316040039 -110.1636657714844 -119.45849609375 -111.5380020141602 -111.2124938964844 -111.5380020141602 C -103.2558212280273 -111.5380020141602 -95.95015716552734 -110.199836730957 -89.29549407958984 -107.5234985351562 C -82.64082336425781 -104.84716796875 -76.92649078369141 -100.9773330688477 -72.15248870849609 -95.91400146484375 C -67.37848663330078 -90.85066986083984 -63.6533203125 -84.70233154296875 -60.97698974609375 -77.46900177001953 C -58.30065536499023 -70.23567199707031 -56.96248626708984 -61.98966979980469 -56.96248626708984 -52.73099899291992 Z M 46.98051452636719 0 L 46.98051452636719 -14.10499954223633 L 46.5465087890625 -14.10499954223633 C 43.07450866699219 -8.607666015625 38.11967468261719 -4.376166820526123 31.6820068359375 -1.410500049591064 C 25.24434280395508 1.555166721343994 18.40884399414062 3.038000106811523 11.17550659179688 3.038000106811523 C 3.074172973632812 3.038000106811523 -4.159159183502197 1.446666717529297 -10.52449035644531 -1.736000061035156 C -16.88982582092285 -4.918666839599609 -22.27865982055664 -9.150166511535645 -26.69099235534668 -14.43050003051758 C -31.10332489013672 -19.71083450317383 -34.46682357788086 -25.822998046875 -36.781494140625 -32.76699829101562 C -39.09615707397461 -39.71099853515625 -40.25349044799805 -46.94433212280273 -40.25349044799805 -54.46699905395508 C -40.25349044799805 -61.98966598510742 -39.05998992919922 -69.18682861328125 -36.67299270629883 -76.05849456787109 C -34.28599166870117 -82.93016052246094 -30.88632583618164 -88.96999359130859 -26.47399139404297 -94.17799377441406 C -22.0616569519043 -99.38599395751953 -16.70899200439453 -103.5089950561523 -10.41599273681641 -106.5469970703125 C -4.122993469238281 -109.5849990844727 2.929505348205566 -111.10400390625 10.74150466918945 -111.10400390625 C 18.69817352294922 -111.10400390625 25.42517280578613 -109.5849990844727 30.92250823974609 -106.5469970703125 C 36.41984176635742 -103.5089950561523 40.6875114440918 -100.1816635131836 43.72550964355469 -96.56499481201172 L 44.15950775146484 -96.56499481201172 L 44.15950775146484 -164.052001953125 L 79.74751281738281 -164.052001953125 L 79.74751281738281 0 L 46.98051452636719 0 Z M 45.67851257324219 -54.25 C 45.67851257324219 -57.72199630737305 45.06367874145508 -61.12166213989258 43.83400726318359 -64.44899749755859 C 42.60434341430664 -67.77632904052734 40.86834335327148 -70.74199676513672 38.62600708007812 -73.34600067138672 C 36.38367080688477 -75.94999694824219 33.67117309570312 -78.04766845703125 30.48851013183594 -79.63899993896484 C 27.30584144592285 -81.23033142089844 23.68917465209961 -82.0260009765625 19.63850402832031 -82.0260009765625 C 15.44317626953125 -82.0260009765625 11.75417709350586 -81.23033142089844 8.571506500244141 -79.63899993896484 C 5.388840675354004 -78.04766845703125 2.712507963180542 -75.98616790771484 0.5425071716308594 -73.45449829101562 C -1.627493619918823 -70.92283630371094 -3.254993438720703 -67.99333953857422 -4.339992523193359 -64.66600036621094 C -5.424991607666016 -61.33866882324219 -5.967491149902344 -57.93900299072266 -5.967491149902344 -54.46699905395508 C -5.967491149902344 -50.99499893188477 -5.424991607666016 -47.55916595458984 -4.339992523193359 -44.15950012207031 C -3.254993438720703 -40.75983428955078 -1.627493619918823 -37.75799942016602 0.5425071716308594 -35.15399932861328 C 2.712507963180542 -32.54999923706055 5.388840675354004 -30.45233345031738 8.571506500244141 -28.86100006103516 C 11.75417709350586 -27.26966667175293 15.44317626953125 -26.47400093078613 19.63850402832031 -26.47400093078613 C 23.68917465209961 -26.47400093078613 27.30584144592285 -27.26966667175293 30.48851013183594 -28.86100006103516 C 33.67117309570312 -30.45233345031738 36.38367080688477 -32.54999923706055 38.62600708007812 -35.15399932861328 C 40.86834335327148 -37.75799942016602 42.60434341430664 -40.72366714477539 43.83400726318359 -44.05099868774414 C 45.06367874145508 -47.37833404541016 45.67851257324219 -50.77799987792969 45.67851257324219 -54.25 Z M 146.5835266113281 -142.5690002441406 C 146.5835266113281 -139.8203277587891 146.0410308837891 -137.2525024414062 144.9560241699219 -134.8655090332031 C 143.8710174560547 -132.4785003662109 142.4243469238281 -130.4170074462891 140.6160125732422 -128.6809997558594 C 138.8076782226562 -126.9449996948242 136.6376800537109 -125.5706634521484 134.1060180664062 -124.5579986572266 C 131.5743560791016 -123.5453262329102 128.9341888427734 -123.0389938354492 126.1855163574219 -123.0389938354492 C 120.3988571166992 -123.0389938354492 115.5525207519531 -124.9558334350586 111.6465148925781 -128.7895050048828 C 107.7405166625977 -132.6231689453125 105.7875213623047 -137.2163391113281 105.7875213623047 -142.5690002441406 C 105.7875213623047 -145.1730041503906 106.2938537597656 -147.6685028076172 107.3065185546875 -150.0554962158203 C 108.3191833496094 -152.4425048828125 109.7658462524414 -154.5039978027344 111.6465148925781 -156.2400054931641 C 113.5271835327148 -157.9759979248047 115.6971817016602 -159.3864898681641 118.1565170288086 -160.4714965820312 C 120.615852355957 -161.5565032958984 123.2921829223633 -162.0989990234375 126.1855163574219 -162.0989990234375 C 128.9341888427734 -162.0989990234375 131.5743560791016 -161.5926666259766 134.1060180664062 -160.5800018310547 C 136.6376800537109 -159.5673217773438 138.8076782226562 -158.1929931640625 140.6160125732422 -156.4570007324219 C 142.4243469238281 -154.7209930419922 143.8710174560547 -152.6595001220703 144.9560241699219 -150.2724914550781 C 146.0410308837891 -147.885498046875 146.5835266113281 -145.3176727294922 146.5835266113281 -142.5690002441406 Z M 108.3915176391602 0 L 108.3915176391602 -108.0660018920898 L 143.9795227050781 -108.0660018920898 L 143.9795227050781 0 L 108.3915176391602 0 Z M 210.8155212402344 -81.375 L 210.8155212402344 -40.14500045776367 C 210.8155212402344 -35.08166885375977 211.7920227050781 -31.2841682434082 213.7450103759766 -28.75249862670898 C 215.6980133056641 -26.22083282470703 219.2061767578125 -24.95499992370605 224.2695007324219 -24.95499992370605 C 226.0055084228516 -24.95499992370605 227.8500213623047 -25.09966659545898 229.8030090332031 -25.38899993896484 C 231.7560119628906 -25.6783332824707 233.3835144042969 -26.11233329772949 234.6855163574219 -26.69099998474121 L 235.1195068359375 -0.6510000228881836 C 232.6601715087891 0.2170000076293945 229.5498504638672 0.9764999747276306 225.7885131835938 1.627499938011169 C 222.0271759033203 2.278500080108643 218.2658538818359 2.604000091552734 214.5045166015625 2.604000091552734 C 207.2711791992188 2.604000091552734 201.1951751708984 1.699833393096924 196.2765197753906 -0.1085000038146973 C 191.3578491210938 -1.916833400726318 187.4156799316406 -4.520833015441895 184.4500122070312 -7.920499801635742 C 181.4843444824219 -11.32016658782959 179.3505096435547 -15.3708324432373 178.0485076904297 -20.07250022888184 C 176.7465209960938 -24.77416610717773 176.0955200195312 -30.01833343505859 176.0955200195312 -35.80500030517578 L 176.0955200195312 -81.375 L 158.7355194091797 -81.375 L 158.7355194091797 -108.0660018920898 L 175.8785095214844 -108.0660018920898 L 175.8785095214844 -136.4929962158203 L 210.8155212402344 -136.4929962158203 L 210.8155212402344 -108.0660018920898 L 236.2045135498047 -108.0660018920898 L 236.2045135498047 -81.375 L 210.8155212402344 -81.375 Z M 291.5395202636719 -142.5690002441406 C 291.5395202636719 -139.8203277587891 290.9970092773438 -137.2525024414062 289.9120178222656 -134.8655090332031 C 288.8270263671875 -132.4785003662109 287.3803405761719 -130.4170074462891 285.572021484375 -128.6809997558594 C 283.763671875 -126.9449996948242 281.5936584472656 -125.5706634521484 279.06201171875 -124.5579986572266 C 276.5303649902344 -123.5453262329102 273.8901977539062 -123.0389938354492 271.1415100097656 -123.0389938354492 C 265.3548583984375 -123.0389938354492 260.5085144042969 -124.9558334350586 256.6025085449219 -128.7895050048828 C 252.6965179443359 -132.6231689453125 250.7435150146484 -137.2163391113281 250.7435150146484 -142.5690002441406 C 250.7435150146484 -145.1730041503906 251.2498474121094 -147.6685028076172 252.2625122070312 -150.0554962158203 C 253.2751770019531 -152.4425048828125 254.7218475341797 -154.5039978027344 256.6025085449219 -156.2400054931641 C 258.4831848144531 -157.9759979248047 260.6531982421875 -159.3864898681641 263.1125183105469 -160.4714965820312 C 265.5718383789062 -161.5565032958984 268.2481689453125 -162.0989990234375 271.1415100097656 -162.0989990234375 C 273.8901977539062 -162.0989990234375 276.5303649902344 -161.5926666259766 279.06201171875 -160.5800018310547 C 281.5936584472656 -159.5673217773438 283.763671875 -158.1929931640625 285.572021484375 -156.4570007324219 C 287.3803405761719 -154.7209930419922 288.8270263671875 -152.6595001220703 289.9120178222656 -150.2724914550781 C 290.9970092773438 -147.885498046875 291.5395202636719 -145.3176727294922 291.5395202636719 -142.5690002441406 Z M 253.3475189208984 0 L 253.3475189208984 -108.0660018920898 L 288.9355163574219 -108.0660018920898 L 288.9355163574219 0 L 253.3475189208984 0 Z M 431.7214965820312 -54.46699905395508 C 431.7214965820312 -45.642333984375 430.1301574707031 -37.64949798583984 426.947509765625 -30.48849868774414 C 423.7648315429688 -23.32749938964844 419.4248352050781 -17.25149917602539 413.927490234375 -12.26049995422363 C 408.43017578125 -7.269499778747559 402.0648498535156 -3.399666786193848 394.8315124511719 -0.6510000228881836 C 387.5981750488281 2.09766674041748 379.8584899902344 3.472000122070312 371.6124877929688 3.472000122070312 C 363.5111694335938 3.472000122070312 355.8076782226562 2.09766674041748 348.5020141601562 -0.6510000228881836 C 341.1963500976562 -3.399666786193848 334.8310241699219 -7.269499778747559 329.406005859375 -12.26049995422363 C 323.9809875488281 -17.25149917602539 319.6771545410156 -23.32749938964844 316.4945068359375 -30.48849868774414 C 313.3118591308594 -37.64949798583984 311.7205200195312 -45.642333984375 311.7205200195312 -54.46699905395508 C 311.7205200195312 -63.29166793823242 313.3118591308594 -71.24833679199219 316.4945068359375 -78.33699798583984 C 319.6771545410156 -85.42566680908203 323.9809875488281 -91.42933654785156 329.406005859375 -96.34799957275391 C 334.8310241699219 -101.2666625976562 341.1963500976562 -105.0279998779297 348.5020141601562 -107.6319961547852 C 355.8076782226562 -110.2360000610352 363.5111694335938 -111.5380020141602 371.6124877929688 -111.5380020141602 C 379.8584899902344 -111.5380020141602 387.5981750488281 -110.2360000610352 394.8315124511719 -107.6319961547852 C 402.0648498535156 -105.0279998779297 408.43017578125 -101.2666625976562 413.927490234375 -96.34799957275391 C 419.4248352050781 -91.42933654785156 423.7648315429688 -85.42566680908203 426.947509765625 -78.33699798583984 C 430.1301574707031 -71.24833679199219 431.7214965820312 -63.29166793823242 431.7214965820312 -54.46699905395508 Z M 397.4354858398438 -54.46699905395508 C 397.4354858398438 -57.93900299072266 396.8568420410156 -61.33866882324219 395.6995239257812 -64.66600036621094 C 394.5421752929688 -67.99333953857422 392.8785095214844 -70.92283630371094 390.70849609375 -73.45449829101562 C 388.5384826660156 -75.98616790771484 385.8621520996094 -78.04766845703125 382.6795043945312 -79.63899993896484 C 379.4968566894531 -81.23033142089844 375.8078308105469 -82.0260009765625 371.6124877929688 -82.0260009765625 C 367.4171752929688 -82.0260009765625 363.7281799316406 -81.23033142089844 360.5455017089844 -79.63899993896484 C 357.3628540039062 -78.04766845703125 354.7226867675781 -75.98616790771484 352.625 -73.45449829101562 C 350.52734375 -70.92283630371094 348.9360046386719 -67.99333953857422 347.8510131835938 -64.66600036621094 C 346.7660217285156 -61.33866882324219 346.2235107421875 -57.93900299072266 346.2235107421875 -54.46699905395508 C 346.2235107421875 -50.99499893188477 346.7660217285156 -47.59533309936523 347.8510131835938 -44.26799774169922 C 348.9360046386719 -40.94066619873047 350.5635070800781 -37.9388313293457 352.7335205078125 -35.26249694824219 C 354.9035034179688 -32.58616638183594 357.579833984375 -30.45233345031738 360.7625122070312 -28.86100006103516 C 363.9451599121094 -27.26966667175293 367.6341857910156 -26.47400093078613 371.8295288085938 -26.47400093078613 C 376.0248413085938 -26.47400093078613 379.7138366699219 -27.26966667175293 382.8965148925781 -28.86100006103516 C 386.0791625976562 -30.45233345031738 388.7554931640625 -32.58616638183594 390.9255065917969 -35.26249694824219 C 393.0955200195312 -37.9388313293457 394.7230224609375 -40.94066619873047 395.8080139160156 -44.26799774169922 C 396.8930053710938 -47.59533309936523 397.4354858398438 -50.99499893188477 397.4354858398438 -54.46699905395508 Z M 525.2484741210938 0 L 525.2484741210938 -59.02400207519531 C 525.2484741210938 -62.0620002746582 524.9953002929688 -64.95533752441406 524.489013671875 -67.70400238037109 C 523.982666015625 -70.45266723632812 523.1508178710938 -72.87583160400391 521.9934692382812 -74.97349548339844 C 520.836181640625 -77.0711669921875 519.2086791992188 -78.73483276367188 517.1109619140625 -79.96450042724609 C 515.0133056640625 -81.19416809082031 512.3731689453125 -81.80899810791016 509.1904907226562 -81.80899810791016 C 506.0078430175781 -81.80899810791016 503.2229919433594 -81.19416809082031 500.8359985351562 -79.96450042724609 C 498.4490051269531 -78.73483276367188 496.4598388671875 -77.03500366210938 494.8684997558594 -74.86499786376953 C 493.2771606445312 -72.69499969482422 492.0836486816406 -70.19950103759766 491.2879943847656 -67.37850189208984 C 490.4923095703125 -64.55750274658203 490.094482421875 -61.62800216674805 490.094482421875 -58.59000396728516 L 490.094482421875 0 L 454.2894897460938 0 L 454.2894897460938 -108.0660018920898 L 488.79248046875 -108.0660018920898 L 488.79248046875 -93.09299468994141 L 489.2265014648438 -93.09299468994141 C 490.5285034179688 -95.40766143798828 492.2283325195312 -97.68616485595703 494.3259887695312 -99.92849731445312 C 496.4236755371094 -102.1708297729492 498.8829956054688 -104.0876693725586 501.7039794921875 -105.6790008544922 C 504.5249938964844 -107.2703323364258 507.5991516113281 -108.5723342895508 510.9264831542969 -109.5849990844727 C 514.2537841796875 -110.5976715087891 517.7981567382812 -111.10400390625 521.5595092773438 -111.10400390625 C 528.7928466796875 -111.10400390625 534.941162109375 -109.802001953125 540.0045166015625 -107.197998046875 C 545.0678100585938 -104.5940017700195 549.1546630859375 -101.2304992675781 552.2650146484375 -97.10749816894531 C 555.3753051757812 -92.9844970703125 557.61767578125 -88.24666595458984 558.9920043945312 -82.89399719238281 C 560.3663330078125 -77.54132843017578 561.053466796875 -72.18866729736328 561.053466796875 -66.83599853515625 L 561.053466796875 0 L 525.2484741210938 0 Z"
     id="Path_371" />
</svg>
