<?xml version="1.0" encoding="utf-8"?>
<!-- Generator: Adobe Illustrator 24.2.1, SVG Export Plug-In . SVG Version: 6.00 Build 0)  -->
<svg version="1.1"
	 id="svg48" xmlns:cc="http://creativecommons.org/ns#" xmlns:dc="http://purl.org/dc/elements/1.1/" xmlns:rdf="http://www.w3.org/1999/02/22-rdf-syntax-ns#" xmlns:svg="http://www.w3.org/2000/svg"
	 xmlns="http://www.w3.org/2000/svg" xmlns:xlink="http://www.w3.org/1999/xlink" x="0px" y="0px" viewBox="0 0 1044 216.1"
	 style="enable-background:new 0 0 1044 216.1;" xml:space="preserve">
<g>
	<polygon points="234.8,54.5 192.1,54.5 172.5,79.5 152.9,54.5 110.2,54.5 150.9,107.4 107.4,163 151.4,163 172.5,135.5 193.6,163 
		237.7,163 194.1,107.4 	"/>
	<path d="M351.5,67.3c-4.1-5.2-9.8-9.2-16.1-12.4c-6.5-2.8-13.9-4.4-21.8-4.4c-8.1,0-15,1.5-20.9,4.6c-6.1,3.7-10.5,7.2-14.2,11.8
		h-0.7V53.4h-34.2v162.8h35.9v-64.9h0.4c3.7,4.4,8.1,8.5,14.2,10.9c6.1,3.1,12.4,4.1,19.2,4.1c8.1,0,15.7-1.3,22-5
		c6.8-2.8,12.2-7.2,16.3-12.6c4.6-5.4,8.1-11.5,10.5-18.5c2.2-7.2,3.5-14.4,3.5-22.4c0-7.2-1.3-14.4-3.7-21.8
		C359.8,78.9,356.1,72.8,351.5,67.3z M329.1,118.5c-1.1,3.5-2.6,6.5-5,8.9c-2,2.8-4.6,4.6-8.1,6.3c-3,1.7-7,2.6-11.1,2.6
		c-4.1,0-8.1-0.9-11.1-2.6c-3.1-1.7-5.7-3.5-8.3-6.3c-2-2.4-4.1-5.4-5.2-8.9c-1.3-3.5-1.7-6.8-1.7-10.5c0-3.5,0.4-7.2,1.7-10.5
		c1.1-3.1,3.3-6.3,5.2-8.9c2.6-2.8,5.2-4.8,8.3-6.1c3.1-1.5,7-2.8,11.1-2.8c4.1,0,8.1,1.3,11.1,2.8c3.5,1.3,6.1,3.3,8.1,5.9
		c2.4,2.6,3.9,5.7,5,8.9c1.1,3.5,1.5,7,1.5,10.2C330.6,111.6,330.2,114.6,329.1,118.5z"/>
	<path d="M583.3,67.1h-0.4c-2.8-3.9-7.6-7-12.9-10.2c-5.4-2.8-12.4-4.8-20.5-4.8c-7.6,0-15.3,2-21.4,4.8
		c-6.3,3.3-11.5,7.2-16.3,12.4c-4.4,5.2-7.6,11.5-10.2,18.5c-2.4,6.8-3.7,13.9-3.7,21.6c0,7.8,1.3,14.8,3.7,22
		c2.2,6.8,5.9,13.1,10,18.5c4.6,5.4,9.8,9.6,16.6,12.9c6.1,3.5,13.7,5,21.8,5c7.2,0,14.2-1.5,20.9-4.8c6.1-2.8,11.5-7.2,14.8-12.6
		h0.4v13.9h33.1V8.7h-36V67.1z M582.8,120c-1.3,3.3-2.8,6.1-5,8.7c-2.6,3.1-5,5-8.3,6.5c-3.3,1.7-7.2,2.6-11.1,2.6
		c-4.1,0-8.1-0.9-11.3-2.6c-2.8-1.5-5.7-3.5-7.8-6.5c-2.6-2.6-3.7-5.4-5-9.2c-1.1-3.3-1.5-6.5-1.5-10.2c0-3.3,0.4-6.5,1.5-10.5
		c1.3-3.3,2.4-6.1,5-8.5c2.2-2.6,5-4.8,7.8-6.3c3.3-1.7,7.2-2.4,11.3-2.4c3.9,0,7.8,0.7,11.1,2.4c3.3,1.5,5.7,3.7,8.3,6.3
		c2.2,2.8,3.7,5.7,5,8.9c1.1,3.5,2,6.8,2,10.5C584.8,113.1,583.9,116.8,582.8,120z"/>
	<path d="M651.6,0C640.7,0,632,8.5,632,19.6c0,10.9,8.7,19.6,19.6,19.6s19.6-8.7,19.6-19.6C671.2,8.5,662.5,0,651.6,0z"/>
	<rect x="633.8" y="54.5" width="35.7" height="108.5"/>
	<rect x="763.5" y="54.5" width="35.7" height="108.5"/>
	<path d="M781.4,0c-10.9,0-19.6,8.5-19.6,19.6c0,10.9,8.7,19.6,19.6,19.6S801,30.5,801,19.6C801,8.5,792.3,0,781.4,0z"/>
	<path d="M869.3,48.8c-32.9,0-59.7,26.8-59.7,59.7c0,33.1,26.8,59.9,59.7,59.9c33.1,0,59.7-26.8,59.7-59.9
		C929,75.6,902.4,48.8,869.3,48.8z M869.3,136.4c-14.6,0-26.4-12.4-26.4-27.9c0-15,11.8-27.7,26.4-27.7c14.6,0,26.4,12.6,26.4,27.7
		C895.6,124,883.9,136.4,869.3,136.4z"/>
	<path d="M1041.9,79.7c-1.3-5.4-3.3-10-6.3-14.2c-3.3-4.4-7.4-7.2-12.2-10.2c-5-2.6-11.5-3.9-18.7-3.9c-7.4,0-13.9,1.7-19.6,5.4
		c-5,3.1-9.2,7-11.5,11.5H973V54.5h-35.5V163H973V97.8c0-10.2,8.1-17.9,17.6-17.9c9.6,0,17.7,7.6,17.7,17.9V163h35.7V95.9
		C1044,90.4,1043.4,85.2,1041.9,79.7z"/>
	<path d="M732.4,21.4h-31.3V37c0,9.5-7.7,17.2-17.2,17.2h-3.8v29.2h17.1v48.2c0,0.5,0,1,0,1.5v0.3c0.9,18,15.4,32.5,33.4,33.4
		c0,0,6.1,0,7,0c5.2,0,10.1-1,14.7-2.8v-29.4c-2,1.2-4.3,1.8-6.7,1.8c-7.4,0-13.3-6-13.3-13.3V83.4h20V54.2h-20V21.4z"/>
	<path d="M80.6,126.4c-4.8,8.3-12.9,11.1-21.8,11.3c-9.6,0.2-25.3-4.4-25.5-19.8h80c0.7-3.3,0.9-6.5,0.9-10
		c0-33-22.7-58.6-57.1-58.6C21.7,49.2,0,75,0,108.1c0,36.9,23.2,58.8,57.1,58.8c21.6,0,41-8.5,51.9-22.9L80.6,126.4z M56.4,76.7
		C66,76.7,77.1,80,78.7,95H34.4C36,82.4,46,76.7,56.4,76.7z"/>
	<path d="M432.5,49.2c-35.4,0-57.1,25.8-57.1,58.8c0,36.9,23.2,58.8,57.1,58.8c21.6,0,41-8.5,51.9-22.9L456,126.4
		c-4.8,8.3-12.9,11.1-21.8,11.3c-9.6,0.2-25.3-4.4-25.5-19.8h80c0.7-3.3,0.9-6.5,0.9-10C489.6,74.8,466.9,49.2,432.5,49.2z
		 M409.8,95c1.5-12.6,11.5-18.3,22-18.3c9.6,0,20.7,3.3,22.2,18.3H409.8z"/>
</g>
</svg>
