<?xml version="1.0" encoding="UTF-8" standalone="no"?>
<svg
   xmlns:dc="http://purl.org/dc/elements/1.1/"
   xmlns:cc="http://creativecommons.org/ns#"
   xmlns:rdf="http://www.w3.org/1999/02/22-rdf-syntax-ns#"
   xmlns:svg="http://www.w3.org/2000/svg"
   xmlns="http://www.w3.org/2000/svg"
   id="svg66"
   version="1.1"
   viewBox="-357.156 -167.4 713.88 219.24"
   class="Path_376">
  <metadata
     id="metadata72">
    <rdf:RDF>
      <cc:Work
         rdf:about="">
        <dc:format>image/svg+xml</dc:format>
        <dc:type
           rdf:resource="http://purl.org/dc/dcmitype/StillImage" />
        <dc:title></dc:title>
      </cc:Work>
    </rdf:RDF>
  </metadata>
  <defs
     id="defs70" />
  <path
     d="M -225.1800079345703 -141.9120025634766 C -225.1800079345703 -139.1759948730469 -225.7200012207031 -136.6199951171875 -226.8000030517578 -134.2440032958984 C -227.8800048828125 -131.8680114746094 -229.3560028076172 -129.8160095214844 -231.2279968261719 -128.0879974365234 C -233.1000061035156 -126.359992980957 -235.260009765625 -124.9919967651367 -237.7080078125 -123.984001159668 C -240.156005859375 -122.9759979248047 -242.7480010986328 -122.4719924926758 -245.4840087890625 -122.4719924926758 C -251.2440032958984 -122.4719924926758 -256.0679931640625 -124.379997253418 -259.9559936523438 -128.1959991455078 C -263.843994140625 -132.0119934082031 -265.7879943847656 -136.5839996337891 -265.7879943847656 -141.9120025634766 C -265.7879943847656 -144.5039978027344 -265.2839965820312 -146.9880065917969 -264.2760009765625 -149.3639984130859 C -263.2680053710938 -151.739990234375 -261.8280029296875 -153.7919921875 -259.9559936523438 -155.5200042724609 C -258.0840148925781 -157.2480010986328 -255.9240112304688 -158.6519927978516 -253.4760131835938 -159.7319946289062 C -251.0279998779297 -160.8119964599609 -248.3639984130859 -161.3519897460938 -245.4840087890625 -161.3519897460938 C -242.7480010986328 -161.3519897460938 -240.156005859375 -160.8479919433594 -237.7080078125 -159.8399963378906 C -235.260009765625 -158.8320007324219 -233.1000061035156 -157.4640045166016 -231.2279968261719 -155.7360076904297 C -229.3560028076172 -154.0079956054688 -227.8800048828125 -151.9559936523438 -226.8000030517578 -149.5800018310547 C -225.7200012207031 -147.2040100097656 -225.1800079345703 -144.6480102539062 -225.1800079345703 -141.9120025634766 Z M -263.4120178222656 0 L -263.4120178222656 -107.568000793457 L -227.7720031738281 -107.568000793457 L -227.7720031738281 0 L -263.4120178222656 0 Z M -276.5880126953125 -137.1600036621094 C -277.8840026855469 -137.5919952392578 -279.3960266113281 -137.9519958496094 -281.1240234375 -138.239990234375 C -282.8520202636719 -138.5279998779297 -284.5800170898438 -138.6719970703125 -286.3080139160156 -138.6719970703125 C -289.6199951171875 -138.6719970703125 -292.2839965820312 -138.0959930419922 -294.2999877929688 -136.9440002441406 C -296.3160095214844 -135.7920074462891 -297.8999938964844 -134.2440032958984 -299.052001953125 -132.3000030517578 C -300.2040100097656 -130.3560028076172 -300.9960021972656 -128.1600036621094 -301.4280090332031 -125.7120056152344 C -301.8600158691406 -123.2639999389648 -302.0760192871094 -120.8160018920898 -302.0760192871094 -118.3679962158203 L -302.0760192871094 -107.568000793457 L -278.1000061035156 -107.568000793457 L -278.1000061035156 -81 L -302.0760192871094 -81 L -302.0760192871094 0 L -337.5 0 L -337.5 -81 L -357.156005859375 -81 L -357.156005859375 -107.568000793457 L -337.5 -107.568000793457 L -337.5 -117.9360046386719 C -337.5 -124.5600051879883 -336.7799987792969 -130.8600006103516 -335.3399963378906 -136.8359985351562 C -333.8999938964844 -142.8119964599609 -331.4159851074219 -148.0680084228516 -327.8880004882812 -152.60400390625 C -324.3600158691406 -157.1399993896484 -319.6080017089844 -160.739990234375 -313.6320190429688 -163.4040069580078 C -307.656005859375 -166.0679931640625 -300.2040100097656 -167.3999938964844 -291.2760009765625 -167.3999938964844 C -288.2519836425781 -167.3999938964844 -285.2640075683594 -167.2200012207031 -282.31201171875 -166.8600006103516 C -279.3600158691406 -166.5 -276.6600036621094 -165.9599914550781 -274.2120056152344 -165.239990234375 L -276.5880126953125 -137.1600036621094 Z M -85.64400482177734 -10.15199947357178 C -85.64400482177734 0.3600006103515625 -87.156005859375 9.503999710083008 -90.18000793457031 17.27999877929688 C -93.20400238037109 25.05599975585938 -97.45200347900391 31.5 -102.9240036010742 36.61199951171875 C -108.3960037231445 41.7239990234375 -115.0560073852539 45.53999710083008 -122.9040069580078 48.05999755859375 C -130.7519989013672 50.57999801635742 -139.4279937744141 51.84000015258789 -148.9320068359375 51.84000015258789 C -158.4360046386719 51.84000015258789 -168.1920013427734 50.40000152587891 -178.2000122070312 47.52000045776367 C -188.2080078125 44.63999938964844 -196.8840026855469 40.4640007019043 -204.2280120849609 34.99200057983398 L -186.5160064697266 9.720000267028809 C -181.3320007324219 14.32800006866455 -175.6080017089844 17.74799919128418 -169.3440093994141 19.97999954223633 C -163.0800018310547 22.21199989318848 -156.9239959716797 23.32800102233887 -150.8760070800781 23.32800102233887 C -140.5080108642578 23.32800102233887 -132.8400115966797 20.59200096130371 -127.8720092773438 15.11999988555908 C -122.9040069580078 9.64799976348877 -120.4200057983398 2.37600040435791 -120.4200057983398 -6.696000099182129 L -120.4200057983398 -13.17600059509277 L -121.0680084228516 -13.17600059509277 C -124.3800048828125 -8.855999946594238 -128.8440093994141 -5.400000095367432 -134.4600067138672 -2.808000087738037 C -140.0760040283203 -0.2160000801086426 -146.4840087890625 1.079999923706055 -153.6840057373047 1.079999923706055 C -161.8919982910156 1.079999923706055 -169.1640014648438 -0.3959999084472656 -175.5 -3.348000049591064 C -181.8360137939453 -6.299999713897705 -187.2000122070312 -10.29599952697754 -191.5920104980469 -15.33600044250488 C -195.9840087890625 -20.37599945068359 -199.3320007324219 -26.24399948120117 -201.6360015869141 -32.94000244140625 C -203.9400024414062 -39.63600158691406 -205.0920104980469 -46.72800064086914 -205.0920104980469 -54.21599578857422 C -205.0920104980469 -61.70399856567383 -203.9400024414062 -68.83200073242188 -201.6360015869141 -75.59999847412109 C -199.3320007324219 -82.36800384521484 -195.9840087890625 -88.34400177001953 -191.5920104980469 -93.52799987792969 C -187.2000122070312 -98.71199798583984 -181.8360137939453 -102.8519973754883 -175.5 -105.947998046875 C -169.1640014648438 -109.0439987182617 -161.9640045166016 -110.5920028686523 -153.9000091552734 -110.5920028686523 C -147.1320037841797 -110.5920028686523 -140.6520080566406 -109.2239990234375 -134.4600067138672 -106.4879989624023 C -128.2680053710938 -103.7519989013672 -123.3000030517578 -99.50399780273438 -119.5560073852539 -93.74399566650391 L -119.1240081787109 -93.74399566650391 L -119.1240081787109 -107.568000793457 L -85.64400482177734 -107.568000793457 L -85.64400482177734 -10.15199947357178 Z M -119.3400115966797 -54.43199920654297 C -119.3400115966797 -58.03200149536133 -119.9520111083984 -61.48800277709961 -121.1760025024414 -64.80000305175781 C -122.4000091552734 -68.11200714111328 -124.1640090942383 -71.02799987792969 -126.4680099487305 -73.54799652099609 C -128.7720031738281 -76.06800079345703 -131.5080108642578 -78.04800415039062 -134.6759948730469 -79.48799896240234 C -137.8440093994141 -80.92799377441406 -141.4440155029297 -81.64799499511719 -145.4760131835938 -81.64799499511719 C -149.5080108642578 -81.64799499511719 -153.0720062255859 -80.92799377441406 -156.1679992675781 -79.48799896240234 C -159.2640075683594 -78.04800415039062 -161.8920135498047 -76.10400390625 -164.052001953125 -73.65599822998047 C -166.2120056152344 -71.20800018310547 -167.8680114746094 -68.3280029296875 -169.0200042724609 -65.01599884033203 C -170.1719970703125 -61.70399856567383 -170.7480010986328 -58.17599868774414 -170.7480010986328 -54.43199920654297 C -170.7480010986328 -50.83199691772461 -170.1719970703125 -47.37599945068359 -169.0200042724609 -44.06399917602539 C -167.8680114746094 -40.75199890136719 -166.2120056152344 -37.83599853515625 -164.052001953125 -35.31599807739258 C -161.8920135498047 -32.79599761962891 -159.2640075683594 -30.77999877929688 -156.1679992675781 -29.26799964904785 C -153.0720062255859 -27.75600051879883 -149.5080108642578 -27 -145.4760131835938 -27 C -141.4440155029297 -27 -137.8080139160156 -27.75600051879883 -134.5680084228516 -29.26799964904785 C -131.3280029296875 -30.77999877929688 -128.5920104980469 -32.7599983215332 -126.3600082397461 -35.20800018310547 C -124.1280059814453 -37.65600204467773 -122.4000091552734 -40.5359992980957 -121.1760025024414 -43.84799957275391 C -119.9520111083984 -47.15999984741211 -119.3400115966797 -50.6879997253418 -119.3400115966797 -54.43199920654297 Z M 13.28399658203125 0 L 13.28399658203125 -14.90399932861328 L 12.85199737548828 -14.90399932861328 C 11.55600261688232 -12.45599937438965 9.864004135131836 -10.15200042724609 7.7760009765625 -7.992000102996826 C 5.687998294830322 -5.831999778747559 3.239997863769531 -3.960000038146973 0.4319992065429688 -2.375999927520752 C -2.375999450683594 -0.7919999361038208 -5.472000122070312 0.5039999485015869 -8.856002807617188 1.51200008392334 C -12.24000072479248 2.520000219345093 -15.80399894714355 3.02400016784668 -19.54800033569336 3.02400016784668 C -26.74800109863281 3.02400016784668 -32.83200073242188 1.728000164031982 -37.80000305175781 -0.8640000224113464 C -42.76800155639648 -3.456000089645386 -46.79999923706055 -6.803999900817871 -49.89599990844727 -10.90799999237061 C -52.99200057983398 -15.01200103759766 -55.22400283813477 -19.69200134277344 -56.59200286865234 -24.94799995422363 C -57.96000289916992 -30.20400047302246 -58.64400100708008 -35.56800079345703 -58.64400100708008 -41.04000091552734 L -58.64400100708008 -107.568000793457 L -23.00399780273438 -107.568000793457 L -23.00399780273438 -49.24800109863281 C -23.00399780273438 -46.22400283813477 -22.78800010681152 -43.34400177001953 -22.35600280761719 -40.60799789428711 C -21.92400169372559 -37.87200164794922 -21.09600067138672 -35.42399978637695 -19.87200164794922 -33.26399993896484 C -18.64800262451172 -31.10400009155273 -17.02800178527832 -29.41200065612793 -15.01199722290039 -28.18800163269043 C -12.99599838256836 -26.9640007019043 -10.33199882507324 -26.35200119018555 -7.019996643066406 -26.35200119018555 C -0.8280000686645508 -26.35200119018555 3.88799786567688 -28.6560001373291 7.127998352050781 -33.26399993896484 C 10.36799907684326 -37.87200164794922 11.98799896240234 -43.27200317382812 11.98799896240234 -49.4640007019043 L 11.98799896240234 -107.568000793457 L 47.41200256347656 -107.568000793457 L 47.41200256347656 0 L 13.28399658203125 0 Z M 144.8279876708984 -78.62400054931641 C 143.2439880371094 -79.05599975585938 141.6959991455078 -79.34400177001953 140.1839904785156 -79.48799896240234 C 138.6719818115234 -79.63199615478516 137.1959838867188 -79.70399475097656 135.7559814453125 -79.70399475097656 C 131.0039825439453 -79.70399475097656 127.0079879760742 -78.83999633789062 123.7679901123047 -77.11199951171875 C 120.5279922485352 -75.38399505615234 117.9359893798828 -73.29599761962891 115.9919967651367 -70.84799957275391 C 114.0479888916016 -68.39999389648438 112.6439895629883 -65.73600006103516 111.7799911499023 -62.85600280761719 C 110.9159927368164 -59.97600173950195 110.4839935302734 -57.45600128173828 110.4839935302734 -55.29600143432617 L 110.4839935302734 0 L 75.05998992919922 0 L 75.05998992919922 -107.568000793457 L 109.18798828125 -107.568000793457 L 109.18798828125 -92.01599884033203 L 109.6199951171875 -92.01599884033203 C 112.3559951782227 -97.48799896240234 116.2439956665039 -101.9520034790039 121.2839965820312 -105.4080047607422 C 126.3239974975586 -108.8640060424805 132.1559906005859 -110.5920028686523 138.7799987792969 -110.5920028686523 C 140.2199859619141 -110.5920028686523 141.6239929199219 -110.5199966430664 142.9920043945312 -110.3759918212891 C 144.3600006103516 -110.2319946289062 145.4759979248047 -110.015998840332 146.3399963378906 -109.7280044555664 L 144.8279876708984 -78.62400054931641 Z M 230.7960052490234 -66.09600067138672 C 230.7960052490234 -71.71199798583984 229.0319976806641 -76.53599548339844 225.5039978027344 -80.56800079345703 C 221.9759979248047 -84.59999847412109 216.6840057373047 -86.61599731445312 209.6279907226562 -86.61599731445312 C 206.1719970703125 -86.61599731445312 203.0039978027344 -86.07599639892578 200.1239929199219 -84.99600219726562 C 197.2440032958984 -83.91600036621094 194.7239990234375 -82.44000244140625 192.5639953613281 -80.56800079345703 C 190.4040069580078 -78.69599914550781 188.6760101318359 -76.5 187.3800048828125 -73.98000335693359 C 186.0839996337891 -71.45999908447266 185.3639984130859 -68.83200073242188 185.2200012207031 -66.09600067138672 L 230.7960052490234 -66.09600067138672 Z M 263.4120178222656 -52.48799896240234 C 263.4120178222656 -51.04800033569336 263.4120178222656 -49.60799789428711 263.4120178222656 -48.16799926757812 C 263.4120178222656 -46.72800064086914 263.3399963378906 -45.36000061035156 263.1959838867188 -44.06399917602539 L 185.2200012207031 -44.06399917602539 C 185.5080108642578 -41.04000091552734 186.4080047607422 -38.30400085449219 187.9199981689453 -35.85599899291992 C 189.4320068359375 -33.40800094604492 191.3760070800781 -31.28400230407715 193.7519989013672 -29.48400115966797 C 196.1280059814453 -27.68400001525879 198.7920074462891 -26.28000068664551 201.7440032958984 -25.27199935913086 C 204.6959991455078 -24.26399993896484 207.7559967041016 -23.76000022888184 210.9240112304688 -23.76000022888184 C 216.5399932861328 -23.76000022888184 221.2919921875 -24.80400085449219 225.1800079345703 -26.89200019836426 C 229.0679931640625 -28.97999954223633 232.2359924316406 -31.68000030517578 234.6840057373047 -34.99200057983398 L 259.3079833984375 -19.44000053405762 C 254.2679901123047 -12.0959997177124 247.6080017089844 -6.443999767303467 239.3280029296875 -2.483999967575073 C 231.0480041503906 1.476000070571899 221.4360046386719 3.456000089645386 210.4920043945312 3.456000089645386 C 202.4279937744141 3.456000089645386 194.7960052490234 2.196000099182129 187.5960083007812 -0.3240000009536743 C 180.3960113525391 -2.844000339508057 174.0960083007812 -6.515999794006348 168.6959991455078 -11.33999919891357 C 163.2960052490234 -16.16399955749512 159.0480041503906 -22.10400009155273 155.9519958496094 -29.16000175476074 C 152.8560028076172 -36.21599960327148 151.3079986572266 -44.27999877929688 151.3079986572266 -53.35199737548828 C 151.3079986572266 -62.13600158691406 152.8200073242188 -70.09199523925781 155.8440093994141 -77.21999359130859 C 158.8680114746094 -84.34799957275391 162.9720001220703 -90.39600372314453 168.156005859375 -95.36399841308594 C 173.3400115966797 -100.3320007324219 179.4600067138672 -104.1839981079102 186.5160064697266 -106.9199981689453 C 193.5720062255859 -109.6559982299805 201.2040100097656 -111.0240020751953 209.4120025634766 -111.0240020751953 C 217.3320007324219 -111.0240020751953 224.60400390625 -109.6920013427734 231.2279968261719 -107.0279998779297 C 237.8520050048828 -104.3639984130859 243.5400085449219 -100.5120010375977 248.2920074462891 -95.47200012207031 C 253.0440063476562 -90.43199920654297 256.7520141601562 -84.31200408935547 259.416015625 -77.11199951171875 C 262.0800170898438 -69.91200256347656 263.4120178222656 -61.70400238037109 263.4120178222656 -52.48799896240234 Z M 355.2119750976562 -78.62400054931641 C 353.6279907226562 -79.05599975585938 352.0799865722656 -79.34400177001953 350.5679931640625 -79.48799896240234 C 349.0559997558594 -79.63199615478516 347.5799865722656 -79.70399475097656 346.1399841308594 -79.70399475097656 C 341.3880004882812 -79.70399475097656 337.3919982910156 -78.83999633789062 334.1519775390625 -77.11199951171875 C 330.9119873046875 -75.38399505615234 328.3200073242188 -73.29599761962891 326.3760070800781 -70.84799957275391 C 324.4320068359375 -68.39999389648438 323.0279846191406 -65.73600006103516 322.1640014648438 -62.85600280761719 C 321.2999877929688 -59.97600173950195 320.8679809570312 -57.45600128173828 320.8679809570312 -55.29600143432617 L 320.8679809570312 0 L 285.4440002441406 0 L 285.4440002441406 -107.568000793457 L 319.5719909667969 -107.568000793457 L 319.5719909667969 -92.01599884033203 L 320.0039978027344 -92.01599884033203 C 322.739990234375 -97.48799896240234 326.6279907226562 -101.9520034790039 331.6679992675781 -105.4080047607422 C 336.7080078125 -108.8640060424805 342.5400085449219 -110.5920028686523 349.1640014648438 -110.5920028686523 C 350.6039733886719 -110.5920028686523 352.0079956054688 -110.5199966430664 353.3760070800781 -110.3759918212891 C 354.7439880371094 -110.2319946289062 355.8599853515625 -110.015998840332 356.7239990234375 -109.7280044555664 L 355.2119750976562 -78.62400054931641 Z"
     id="Path_376" />
</svg>
