<?xml version="1.0" encoding="utf-8"?>
<!-- Generator: Adobe Illustrator 24.2.1, SVG Export Plug-In . SVG Version: 6.00 Build 0)  -->
<svg version="1.1"
	 id="svg66" xmlns:cc="http://creativecommons.org/ns#" xmlns:dc="http://purl.org/dc/elements/1.1/" xmlns:rdf="http://www.w3.org/1999/02/22-rdf-syntax-ns#" xmlns:svg="http://www.w3.org/2000/svg"
	 xmlns="http://www.w3.org/2000/svg" xmlns:xlink="http://www.w3.org/1999/xlink" x="0px" y="0px" viewBox="0 0 710.8 232"
	 style="enable-background:new 0 0 710.8 232;" xml:space="preserve">
<g>
	<circle cx="117" cy="21.1" r="21.1"/>
	<rect x="97.8" y="58.6" width="38.4" height="116.7"/>
	<path d="M242.4,73.8h-0.7c-4-6.1-9.4-10.8-16.2-13.8c-6.6-2.8-13.6-4.4-21.1-4.4c-8.7,0-16.4,1.6-23.2,5.2c-7,3.3-12.9,8-17.8,13.4
		c-4.5,5.6-8.2,12.2-10.5,19.2c-2.6,7.7-4,15.7-4,23.4c0,8.2,1.4,16.2,4,23.2c2.3,7.3,6.1,13.8,10.5,19c4.9,5.9,10.8,10.1,17.8,13.1
		c6.8,3.3,14.8,4.9,23.2,4.9c8.2,0,15.2-1.2,21.1-4.2c6.3-2.8,11-6.6,14.8-11.5h2.1c0,0,0.2,7.7,0.2,8.7s-0.2,2.1-0.2,3.3
		c-1.6,15.9-15,28.6-30.7,28.6c-12.4,0-23.2-7.5-28.1-19L159,201.5c11.2,18.5,31.6,30.5,54.8,30.5c10.5,0,19.9-2.3,28.6-6.6
		c21.6-10.5,36.3-32.6,36.3-58.4V58.8h-36.3V73.8z M240.3,128.2c-1.4,3.7-3.3,6.6-5.9,9.1c-2.6,3-5.4,4.9-9.1,6.6
		c-3.3,1.9-7.3,2.3-11.5,2.3c-4.5,0-8.4-0.5-11.7-2.3c-3.3-1.6-6.1-3.7-8.7-6.6c-2.1-2.8-4.2-5.6-5.4-9.6c-1.2-3.5-1.9-7.3-1.9-11.2
		c0-3.7,0.7-7.5,1.9-11.2c1.2-3.7,3.3-6.8,5.4-9.6c2.6-2.6,5.4-4.5,8.7-6.3c3.3-1.4,7.3-2.1,11.7-2.1c4.2,0,8.2,0.7,11.5,2.1
		c3.5,1.9,6.6,3.7,9.1,6.6c2.6,2.8,4.5,6.1,5.9,9.6c1.4,3.5,1.9,7.3,1.9,11C242.2,120.7,241.7,124.7,240.3,128.2z"/>
	<path d="M368.8,128.7c0,10.8-8.4,19-19,19c-10.3,0-19-8.2-19-19V58.6h-38.7v72.2c0,5.6,0.9,11.2,2.3,17.1c1.6,5.9,3.7,11,7.3,15.5
		c3.5,4.5,7.7,8,12.9,10.8c5.6,2.8,12.4,4.2,20.4,4.2c8,0,15-1.9,20.9-5.4c5.6-3.5,9.8-8,12.4-12.7h0.5v14.8h38.4V58.6h-38.4V128.7z
		"/>
	<path d="M490.5,55.1c-7.5,0-13.8,1.9-19.2,5.6c-5.6,4-9.8,8.7-12.7,14.5h-0.5V58.4h-37v116.9h38.4v-57.4
		c0-15.7,12.7-28.6,28.4-29.1h0.7c1.2,0,2.1,0,3.3,0.2c1.6,0.2,3.3,0.5,4.9,0.9l1.6-34c-0.9-0.5-2.1-0.7-3.5-0.7
		C493.3,55.1,491.9,55.1,490.5,55.1z"/>
	<path d="M707.3,55.3c-1.6-0.2-3.1-0.2-4.5-0.2c-7.5,0-13.8,1.9-19.2,5.6c-5.6,4-9.8,8.7-12.7,14.5h-0.5V58.4h-37v116.9h38.4v-57.4
		c0-15.7,12.7-28.6,28.4-29.1h0.7c1.2,0,2.1,0,3.3,0.2c1.6,0.2,3.3,0.5,4.9,0.9l1.6-34C709.9,55.5,708.7,55.3,707.3,55.3z"/>
	<path d="M59.9,3.1C38.5,4.2,21.4,21.3,20.3,42.7v0.4c0,0.6,0,1.2,0,1.8v19.7H0v31.6h24.9v79.1h37V96.2h23.7V64.6H61.9v-9.8
		c0-8.7,7-15.8,15.7-15.8c2.9,0,5.6,0.8,8,2.2V6.3c-5.4-2.1-11.3-3.3-17.4-3.3C67.1,3.1,59.9,3.1,59.9,3.1z"/>
	<path d="M562,53c-38.1,0-61.4,27.8-61.4,63.3c0,39.7,25,63.3,61.4,63.3c23.2,0,44.1-9.1,55.8-24.6l-30.5-19
		c-5.2,8.9-13.8,12-23.4,12.2c-10.3,0.2-27.2-4.7-27.4-21.3h86c0.7-3.5,0.9-7,0.9-10.8C623.4,80.5,599,53,562,53z M537.6,102.2
		c1.6-13.6,12.4-19.7,23.7-19.7c10.3,0,22.3,3.5,23.9,19.7H537.6z"/>
</g>
</svg>
