<?xml version="1.0" encoding="UTF-8" standalone="no"?>
<svg
   xmlns:dc="http://purl.org/dc/elements/1.1/"
   xmlns:cc="http://creativecommons.org/ns#"
   xmlns:rdf="http://www.w3.org/1999/02/22-rdf-syntax-ns#"
   xmlns:svg="http://www.w3.org/2000/svg"
   xmlns="http://www.w3.org/2000/svg"
   id="svg20"
   version="1.1"
   viewBox="-381.78 -163.296 772.848 215.136"
   class="Path_374">
  <metadata
     id="metadata26">
    <rdf:RDF>
      <cc:Work
         rdf:about="">
        <dc:format>image/svg+xml</dc:format>
        <dc:type
           rdf:resource="http://purl.org/dc/dcmitype/StillImage" />
        <dc:title></dc:title>
      </cc:Work>
    </rdf:RDF>
  </metadata>
  <defs
     id="defs24" />
  <path
     d="M -262.3320007324219 -10.15199947357178 C -262.3320007324219 0.3600006103515625 -263.843994140625 9.503999710083008 -266.8680114746094 17.27999877929688 C -269.8919982910156 25.05599975585938 -274.1399841308594 31.5 -279.6119995117188 36.61199951171875 C -285.0840148925781 41.7239990234375 -291.7440185546875 45.53999710083008 -299.5920104980469 48.05999755859375 C -307.4400024414062 50.57999801635742 -316.1159973144531 51.84000015258789 -325.6199951171875 51.84000015258789 C -335.1239929199219 51.84000015258789 -344.8800048828125 50.40000152587891 -354.8880004882812 47.52000045776367 C -364.8960266113281 44.63999938964844 -373.572021484375 40.4640007019043 -380.916015625 34.99200057983398 L -363.2040100097656 9.720000267028809 C -358.02001953125 14.32800006866455 -352.2960205078125 17.74799919128418 -346.0320129394531 19.97999954223633 C -339.7680053710938 22.21199989318848 -333.6120300292969 23.32800102233887 -327.5640258789062 23.32800102233887 C -317.1960144042969 23.32800102233887 -309.5280151367188 20.59200096130371 -304.5599975585938 15.11999988555908 C -299.5920104980469 9.64799976348877 -297.1080017089844 2.37600040435791 -297.1080017089844 -6.696000099182129 L -297.1080017089844 -13.17600059509277 L -297.7560119628906 -13.17600059509277 C -301.0679931640625 -8.855999946594238 -305.5320129394531 -5.400000095367432 -311.1480102539062 -2.808000087738037 C -316.7640075683594 -0.2160000801086426 -323.1720275878906 1.079999923706055 -330.3720092773438 1.079999923706055 C -338.5800170898438 1.079999923706055 -345.8520202636719 -0.3959999084472656 -352.1880187988281 -3.348000049591064 C -358.5240173339844 -6.299999713897705 -363.8880004882812 -10.29599952697754 -368.2799987792969 -15.33600044250488 C -372.6719970703125 -20.37599945068359 -376.02001953125 -26.24399948120117 -378.3240051269531 -32.94000244140625 C -380.6279907226562 -39.63600158691406 -381.7799987792969 -46.72800064086914 -381.7799987792969 -54.21599578857422 C -381.7799987792969 -61.70399856567383 -380.6279907226562 -68.83200073242188 -378.3240051269531 -75.59999847412109 C -376.02001953125 -82.36800384521484 -372.6719970703125 -88.34400177001953 -368.2799987792969 -93.52799987792969 C -363.8880004882812 -98.71199798583984 -358.5240173339844 -102.8519973754883 -352.1880187988281 -105.947998046875 C -345.8520202636719 -109.0439987182617 -338.6520080566406 -110.5920028686523 -330.5880126953125 -110.5920028686523 C -323.8200073242188 -110.5920028686523 -317.3399963378906 -109.2239990234375 -311.1480102539062 -106.4879989624023 C -304.9560241699219 -103.7519989013672 -299.9880065917969 -99.50399780273438 -296.2440185546875 -93.74399566650391 L -295.81201171875 -93.74399566650391 L -295.81201171875 -107.568000793457 L -262.3320007324219 -107.568000793457 L -262.3320007324219 -10.15199947357178 Z M -296.0280151367188 -54.43199920654297 C -296.0280151367188 -58.03200149536133 -296.6400146484375 -61.48800277709961 -297.864013671875 -64.80000305175781 C -299.0880126953125 -68.11200714111328 -300.8520202636719 -71.02799987792969 -303.156005859375 -73.54799652099609 C -305.4599914550781 -76.06800079345703 -308.1960144042969 -78.04800415039062 -311.364013671875 -79.48799896240234 C -314.5320129394531 -80.92799377441406 -318.1320190429688 -81.64799499511719 -322.1640014648438 -81.64799499511719 C -326.1960144042969 -81.64799499511719 -329.760009765625 -80.92799377441406 -332.8560180664062 -79.48799896240234 C -335.9519958496094 -78.04800415039062 -338.5800170898438 -76.10400390625 -340.7400207519531 -73.65599822998047 C -342.9000244140625 -71.20800018310547 -344.5559997558594 -68.3280029296875 -345.7080078125 -65.01599884033203 C -346.8600158691406 -61.70399856567383 -347.4360046386719 -58.17599868774414 -347.4360046386719 -54.43199920654297 C -347.4360046386719 -50.83199691772461 -346.8600158691406 -47.37599945068359 -345.7080078125 -44.06399917602539 C -344.5559997558594 -40.75199890136719 -342.9000244140625 -37.83599853515625 -340.7400207519531 -35.31599807739258 C -338.5800170898438 -32.79599761962891 -335.9519958496094 -30.77999877929688 -332.8560180664062 -29.26799964904785 C -329.760009765625 -27.75600051879883 -326.1960144042969 -27 -322.1640014648438 -27 C -318.1320190429688 -27 -314.4960327148438 -27.75600051879883 -311.2560119628906 -29.26799964904785 C -308.0159912109375 -30.77999877929688 -305.2799987792969 -32.7599983215332 -303.0480041503906 -35.20800018310547 C -300.8160095214844 -37.65600204467773 -299.0880126953125 -40.5359992980957 -297.864013671875 -43.84799957275391 C -296.6400146484375 -47.15999984741211 -296.0280151367188 -50.6879997253418 -296.0280151367188 -54.43199920654297 Z M -120.2040023803711 -54.21599578857422 C -120.2040023803711 -45.43199920654297 -121.7880020141602 -37.47600173950195 -124.9560089111328 -30.34799957275391 C -128.1240081787109 -23.21999931335449 -132.4440155029297 -17.17200088500977 -137.916015625 -12.20399951934814 C -143.3880004882812 -7.235999584197998 -149.7239990234375 -3.384000062942505 -156.9240112304688 -0.6480000019073486 C -164.1240081787109 2.088000059127808 -171.8280029296875 3.456000089645386 -180.0360107421875 3.456000089645386 C -188.1000061035156 3.456000089645386 -195.7680053710938 2.088000059127808 -203.0400085449219 -0.6480000019073486 C -210.3119964599609 -3.384000062942505 -216.6479949951172 -7.235999584197998 -222.0480041503906 -12.20399951934814 C -227.4480133056641 -17.17200088500977 -231.7320098876953 -23.21999931335449 -234.9000091552734 -30.34799957275391 C -238.0680084228516 -37.47600173950195 -239.6520080566406 -45.43199920654297 -239.6520080566406 -54.21599578857422 C -239.6520080566406 -63 -238.0680084228516 -70.91999816894531 -234.9000091552734 -77.97599792480469 C -231.7320098876953 -85.03199768066406 -227.4480133056641 -91.00799560546875 -222.0480041503906 -95.90399932861328 C -216.6479949951172 -100.7999954223633 -210.3119964599609 -104.5439987182617 -203.0400085449219 -107.1360015869141 C -195.7680053710938 -109.7280044555664 -188.1000061035156 -111.0240020751953 -180.0360107421875 -111.0240020751953 C -171.8280029296875 -111.0240020751953 -164.1240081787109 -109.7280044555664 -156.9240112304688 -107.1360015869141 C -149.7239990234375 -104.5439987182617 -143.3880004882812 -100.7999954223633 -137.916015625 -95.90399932861328 C -132.4440155029297 -91.00799560546875 -128.1240081787109 -85.03199768066406 -124.9560089111328 -77.97599792480469 C -121.7880020141602 -70.91999816894531 -120.2040023803711 -63 -120.2040023803711 -54.21599578857422 Z M -154.3320007324219 -54.21599578857422 C -154.3320007324219 -57.67200088500977 -154.9080047607422 -61.05600357055664 -156.0599975585938 -64.36800384521484 C -157.2119903564453 -67.68000030517578 -158.8679962158203 -70.59600067138672 -161.0280151367188 -73.11599731445312 C -163.1880035400391 -75.63600158691406 -165.8520050048828 -77.68800354003906 -169.0200042724609 -79.27200317382812 C -172.1880035400391 -80.85599517822266 -175.8600006103516 -81.64799499511719 -180.0360107421875 -81.64799499511719 C -184.2120056152344 -81.64799499511719 -187.8840026855469 -80.85599517822266 -191.052001953125 -79.27200317382812 C -194.2200012207031 -77.68800354003906 -196.8480072021484 -75.63600158691406 -198.9360046386719 -73.11599731445312 C -201.0240020751953 -70.59600067138672 -202.6080017089844 -67.68000030517578 -203.6880035400391 -64.36800384521484 C -204.7680053710938 -61.05600357055664 -205.3079986572266 -57.67200088500977 -205.3079986572266 -54.21599578857422 C -205.3079986572266 -50.7599983215332 -204.7680053710938 -47.37599945068359 -203.6880035400391 -44.06399917602539 C -202.6080017089844 -40.75199890136719 -200.9880065917969 -37.76399993896484 -198.8280029296875 -35.09999847412109 C -196.6680145263672 -32.43599700927734 -194.0040130615234 -30.31199836730957 -190.8359985351562 -28.72800064086914 C -187.6679992675781 -27.14400100708008 -183.9960021972656 -26.35200119018555 -179.8200073242188 -26.35200119018555 C -175.6439971923828 -26.35200119018555 -171.9720001220703 -27.14400100708008 -168.8040008544922 -28.72800064086914 C -165.6360015869141 -30.31199836730957 -162.9720001220703 -32.43599700927734 -160.81201171875 -35.09999847412109 C -158.6520080566406 -37.76399993896484 -157.0319976806641 -40.75199890136719 -155.9519958496094 -44.06399917602539 C -154.8719940185547 -47.37599945068359 -154.3320007324219 -50.7599983215332 -154.3320007324219 -54.21599578857422 Z M 22.1400146484375 -54.21599578857422 C 22.1400146484375 -46.72800064086914 20.98801231384277 -39.52799987792969 18.68400573730469 -32.61599731445312 C 16.3800048828125 -25.70399856567383 13.03200531005859 -19.61999893188477 8.640007019042969 -14.36400032043457 C 4.248008728027344 -9.107999801635742 -1.115992069244385 -4.895999908447266 -7.451995849609375 -1.728000044822693 C -13.78799438476562 1.440000176429749 -20.98799324035645 3.02400016784668 -29.05199432373047 3.02400016784668 C -36.25199508666992 3.02400016784668 -43.05599594116211 1.548000335693359 -49.46399688720703 -1.404000043869019 C -55.87199783325195 -4.356000423431396 -60.80399703979492 -8.567999839782715 -64.25999450683594 -14.03999900817871 L -64.69200134277344 -14.03999900817871 L -64.69200134277344 0 L -97.30799865722656 0 L -97.30799865722656 -163.2959899902344 L -61.88399505615234 -163.2959899902344 L -61.88399505615234 -96.1199951171875 L -61.45199584960938 -96.1199951171875 C -58.42799758911133 -99.71999359130859 -54.17999649047852 -103.0319976806641 -48.70799255371094 -106.0559997558594 C -43.23599624633789 -109.0800018310547 -36.53999710083008 -110.5920028686523 -28.6199951171875 -110.5920028686523 C -20.843994140625 -110.5920028686523 -13.82399559020996 -109.0800018310547 -7.55999755859375 -106.0559997558594 C -1.296000003814697 -103.0319976806641 4.031997680664062 -98.92799377441406 8.423995971679688 -93.74399566650391 C 12.81600475311279 -88.55999755859375 16.20000648498535 -82.54800415039062 18.57600402832031 -75.70800018310547 C 20.95201110839844 -68.86799621582031 22.1400146484375 -61.70399856567383 22.1400146484375 -54.21599578857422 Z M -11.98799896240234 -54.21599578857422 C -11.98799896240234 -57.67200088500977 -12.52799701690674 -61.05600357055664 -13.60799407958984 -64.36800384521484 C -14.68799591064453 -67.68000030517578 -16.30799674987793 -70.59600067138672 -18.46799468994141 -73.11599731445312 C -20.62799263000488 -75.63600158691406 -23.29199409484863 -77.68800354003906 -26.45999908447266 -79.27200317382812 C -29.62799263000488 -80.85599517822266 -33.29999160766602 -81.64799499511719 -37.47599792480469 -81.64799499511719 C -41.50799560546875 -81.64799499511719 -45.10799407958984 -80.85599517822266 -48.27599334716797 -79.27200317382812 C -51.44399642944336 -77.68800354003906 -54.14399719238281 -75.60000610351562 -56.37599945068359 -73.00800323486328 C -58.60799789428711 -70.41600036621094 -60.33599472045898 -67.46399688720703 -61.55999374389648 -64.15200042724609 C -62.78399658203125 -60.84000015258789 -63.39599609375 -57.45599746704102 -63.39599609375 -54 C -63.39599609375 -50.54399871826172 -62.78399658203125 -47.15999984741211 -61.55999374389648 -43.84799957275391 C -60.33599472045898 -40.5359992980957 -58.60799789428711 -37.58399963378906 -56.37599945068359 -34.99200057983398 C -54.14399719238281 -32.39999771118164 -51.44399642944336 -30.31199836730957 -48.27599334716797 -28.72800064086914 C -45.10799407958984 -27.14400100708008 -41.50799560546875 -26.35200119018555 -37.47599792480469 -26.35200119018555 C -33.29999160766602 -26.35200119018555 -29.62799263000488 -27.14400100708008 -26.45999908447266 -28.72800064086914 C -23.29199409484863 -30.31199836730957 -20.62799263000488 -32.39999771118164 -18.46799468994141 -34.99200057983398 C -16.30799674987793 -37.58399963378906 -14.68799591064453 -40.57200241088867 -13.60799407958984 -43.95600128173828 C -12.52799701690674 -47.34000015258789 -11.98799896240234 -50.7599983215332 -11.98799896240234 -54.21599578857422 Z M 108.1080017089844 -46.87199783325195 L 103.5719985961914 -46.87199783325195 C 99.68399810791016 -46.87199783325195 95.76000213623047 -46.69199752807617 91.80000305175781 -46.33200073242188 C 87.84000396728516 -45.97200012207031 84.31200408935547 -45.28799819946289 81.21600341796875 -44.27999877929688 C 78.12000274658203 -43.27199935913086 75.56400299072266 -41.79600143432617 73.54800415039062 -39.85199737548828 C 71.53200531005859 -37.90800094604492 70.52400207519531 -35.35200119018555 70.52400207519531 -32.18400192260742 C 70.52400207519531 -30.16800117492676 70.99200439453125 -28.44000053405762 71.92800140380859 -27 C 72.86399841308594 -25.55999946594238 74.052001953125 -24.40799903869629 75.49200439453125 -23.54399871826172 C 76.93199920654297 -22.67999839782715 78.58799743652344 -22.0679988861084 80.45999908447266 -21.70800018310547 C 82.33200073242188 -21.34799957275391 84.13199615478516 -21.16799926757812 85.86000061035156 -21.16799926757812 C 93.06000518798828 -21.16799926757812 98.56800079345703 -23.14799880981445 102.3839950561523 -27.10799789428711 C 106.1999969482422 -31.0679988861084 108.1080017089844 -36.43199920654297 108.1080017089844 -43.20000076293945 L 108.1080017089844 -46.87199783325195 Z M 43.09199905395508 -92.8800048828125 C 49.42800140380859 -98.92800140380859 56.80799865722656 -103.4640045166016 65.23199462890625 -106.4879989624023 C 73.65599822998047 -109.5120010375977 82.26000213623047 -111.0240020751953 91.04400634765625 -111.0240020751953 C 100.1160049438477 -111.0240020751953 107.7840042114258 -109.9079971313477 114.0480041503906 -107.6759948730469 C 120.3120040893555 -105.4440002441406 125.3880004882812 -101.9879989624023 129.2760009765625 -97.30799865722656 C 133.1640014648438 -92.62799835205078 136.0079956054688 -86.7239990234375 137.8079986572266 -79.59600067138672 C 139.6080017089844 -72.46800231933594 140.5079956054688 -64.00799560546875 140.5079956054688 -54.21599578857422 L 140.5079956054688 0 L 108.1080017089844 0 L 108.1080017089844 -11.44799995422363 L 107.4599990844727 -11.44799995422363 C 104.7239990234375 -6.983999729156494 100.5839996337891 -3.527999877929688 95.04000091552734 -1.079999923706055 C 89.49600219726562 1.368000030517578 83.48400115966797 2.592000007629395 77.00399780273438 2.592000007629395 C 72.68399810791016 2.592000007629395 68.22000122070312 2.016000032424927 63.61199951171875 0.8640000224113464 C 59.00399780273438 -0.2880000472068787 54.79199600219727 -2.159999847412109 50.97599792480469 -4.751999855041504 C 47.15999984741211 -7.343999862670898 44.02799987792969 -10.79999923706055 41.57999801635742 -15.11999988555908 C 39.13199615478516 -19.44000053405762 37.90799713134766 -24.76799964904785 37.90799713134766 -31.1039981842041 C 37.90799713134766 -38.88000106811523 40.03199768066406 -45.14400100708008 44.27999877929688 -49.89599990844727 C 48.52799987792969 -54.64799880981445 54 -58.31999969482422 60.69599914550781 -60.91200256347656 C 67.39199829101562 -63.50400161743164 74.84400177001953 -65.23200225830078 83.052001953125 -66.09600067138672 C 91.26000213623047 -66.95999908447266 99.25199890136719 -67.39199829101562 107.0279922485352 -67.39199829101562 L 107.0279922485352 -69.1199951171875 C 107.0279922485352 -74.447998046875 105.1559906005859 -78.37200164794922 101.411994934082 -80.89199829101562 C 97.66799926757812 -83.41199493408203 93.05999755859375 -84.6719970703125 87.58799743652344 -84.6719970703125 C 82.54799652099609 -84.6719970703125 77.68799591064453 -83.59199523925781 73.00799560546875 -81.43199920654297 C 68.32799530029297 -79.27200317382812 64.33200073242188 -76.68000030517578 61.01999664306641 -73.65599822998047 L 43.09199905395508 -92.8800048828125 Z M 240.9479827880859 -72.79199981689453 C 238.9319763183594 -75.38400268554688 236.1959838867188 -77.47200012207031 232.7399749755859 -79.05599975585938 C 229.2839660644531 -80.63999938964844 225.7559661865234 -81.43199920654297 222.1559753417969 -81.43199920654297 C 218.4119720458984 -81.43199920654297 215.0279846191406 -80.67600250244141 212.0039825439453 -79.16400146484375 C 208.97998046875 -77.65200042724609 206.3879852294922 -75.63600158691406 204.2279815673828 -73.11599731445312 C 202.0679779052734 -70.59600067138672 200.3759765625 -67.68000030517578 199.1519775390625 -64.36800384521484 C 197.927978515625 -61.05600357055664 197.3159790039062 -57.52799987792969 197.3159790039062 -53.78400039672852 C 197.3159790039062 -50.04000091552734 197.8919830322266 -46.51200103759766 199.0439758300781 -43.20000076293945 C 200.1959686279297 -39.88800048828125 201.8879699707031 -36.97200012207031 204.1199798583984 -34.45199966430664 C 206.3519897460938 -31.9320011138916 209.0159912109375 -29.95199966430664 212.1119842529297 -28.51199913024902 C 215.2079772949219 -27.07200050354004 218.6999816894531 -26.35200119018555 222.5879821777344 -26.35200119018555 C 226.1879730224609 -26.35200119018555 229.7519683837891 -27.03600120544434 233.2799682617188 -28.40400123596191 C 236.8079833984375 -29.77200126647949 239.6519927978516 -31.75200080871582 241.8119812011719 -34.34399795532227 L 261.4679565429688 -10.36800003051758 C 257.0039672851562 -6.047999382019043 251.2439727783203 -2.664000034332275 244.18798828125 -0.2160000056028366 C 237.1319732666016 2.232000112533569 229.6439666748047 3.456000089645386 221.7239685058594 3.456000089645386 C 213.2279815673828 3.456000089645386 205.3079833984375 2.160000085830688 197.9639892578125 -0.4320000112056732 C 190.6199798583984 -3.023999929428101 184.2479858398438 -6.803999423980713 178.8479766845703 -11.77199935913086 C 173.4479827880859 -16.7400016784668 169.1999816894531 -22.75199890136719 166.1039733886719 -29.80799865722656 C 163.0079803466797 -36.8640022277832 161.4599761962891 -44.85600280761719 161.4599761962891 -53.78400039672852 C 161.4599761962891 -62.56800079345703 163.0079803466797 -70.48799896240234 166.1039733886719 -77.54399871826172 C 169.1999816894531 -84.59999847412109 173.4479827880859 -90.61199951171875 178.8479766845703 -95.58000183105469 C 184.2479858398438 -100.5479965209961 190.6199798583984 -104.3639984130859 197.9639892578125 -107.0279998779297 C 205.3079833984375 -109.6920013427734 213.1559753417969 -111.0240020751953 221.5079803466797 -111.0240020751953 C 225.3959808349609 -111.0240020751953 229.2479858398438 -110.6640014648438 233.0639801025391 -109.9440002441406 C 236.8799896240234 -109.2239990234375 240.5519866943359 -108.2519989013672 244.0799865722656 -107.0279998779297 C 247.6079864501953 -105.8040008544922 250.8479766845703 -104.2919998168945 253.7999877929688 -102.4919967651367 C 256.7519836425781 -100.6920013427734 259.3079528808594 -98.71199798583984 261.4679565429688 -96.552001953125 L 240.9479827880859 -72.79199981689453 Z M 391.0679931640625 0 L 347.2200012207031 0 L 312.0119934082031 -51.62399673461914 L 311.3639831542969 -51.62399673461914 L 311.3639831542969 0 L 275.7239990234375 0 L 275.7239990234375 -163.2959899902344 L 311.3639831542969 -163.2959899902344 L 311.3639831542969 -63.93600082397461 L 312.0119934082031 -63.93600082397461 L 346.3559875488281 -107.568000793457 L 389.3399963378906 -107.568000793457 L 347.8679809570312 -58.96800231933594 L 391.0679931640625 0 Z"
     id="Path_374" />
</svg>
