<?xml version="1.0" encoding="utf-8"?>
<!-- Generator: Adobe Illustrator 24.2.1, SVG Export Plug-In . SVG Version: 6.00 Build 0)  -->
<svg version="1.1"
	 id="svg20" xmlns:cc="http://creativecommons.org/ns#" xmlns:dc="http://purl.org/dc/elements/1.1/" xmlns:rdf="http://www.w3.org/1999/02/22-rdf-syntax-ns#" xmlns:svg="http://www.w3.org/2000/svg"
	 xmlns="http://www.w3.org/2000/svg" xmlns:xlink="http://www.w3.org/1999/xlink" x="0px" y="0px" viewBox="0 0 798.8 222.6"
	 style="enable-background:new 0 0 798.8 222.6;" xml:space="preserve">
<g>
	<path d="M93.5,64.4h-0.7c-4-6.1-9.4-10.8-16.2-13.8c-6.6-2.8-13.6-4.4-21.1-4.4c-8.7,0-16.4,1.6-23.2,5.2c-7,3.3-12.9,8-17.8,13.4
		C10.1,70.3,6.3,76.9,4,83.9c-2.6,7.7-4,15.7-4,23.4c0,8.2,1.4,16.2,4,23.2c2.3,7.3,6.1,13.8,10.5,19c4.9,5.9,10.8,10.1,17.8,13.1
		c6.8,3.3,14.8,4.9,23.2,4.9c8.2,0,15.2-1.2,21.1-4.2c6.3-2.8,11-6.6,14.8-11.5h2.1v6.6c0,0.7,0.2,1.2,0.2,2.1s-0.2,2.1-0.2,3.3
		c-1.6,15.9-15,28.6-30.7,28.6c-12.4,0-23.2-7.5-28.1-19l-24.6,18.7c11.2,18.5,31.6,30.5,54.8,30.5c10.5,0,19.9-2.3,28.6-6.6
		c21.6-10.5,36.3-32.6,36.3-58.4V49.4H93.5V64.4z M91.4,118.8c-1.4,3.7-3.3,6.6-5.9,9.1c-2.6,3-5.4,4.9-9.1,6.6
		c-3.3,1.9-7.3,2.3-11.5,2.3c-4.5,0-8.4-0.5-11.7-2.3c-3.3-1.6-6.1-3.7-8.7-6.6c-2.1-2.8-4.2-5.6-5.4-9.6c-1.2-3.5-1.9-7.3-1.9-11.2
		c0-3.7,0.7-7.5,1.9-11.2c1.2-3.7,3.3-6.8,5.4-9.6c2.6-2.6,5.4-4.5,8.7-6.3c3.3-1.4,7.3-2.1,11.7-2.1c4.2,0,8.2,0.7,11.5,2.1
		c3.5,1.9,6.6,3.7,9.1,6.6c2.6,2.8,4.5,6.1,5.9,9.6c1.4,3.5,1.9,7.3,1.9,11C93.3,111.3,92.8,115.3,91.4,118.8z"/>
	<path d="M205.1,43.1c-35.4,0-64.2,28.8-64.2,64.2c0,35.6,28.8,64.4,64.2,64.4c35.6,0,64.2-28.8,64.2-64.4
		C269.3,71.9,240.7,43.1,205.1,43.1z M205.1,137.3c-15.7,0-28.4-13.4-28.4-30c0-16.2,12.7-29.8,28.4-29.8
		c15.7,0,28.4,13.6,28.4,29.8C233.5,124,220.8,137.3,205.1,137.3z"/>
	<path d="M393.6,64.2c-4.7-5.4-10.3-9.8-17.1-13.1c-6.8-3.3-14.3-4.9-22.7-4.9c-8.4,0-15.7,1.6-21.6,4.9
		c-5.9,3.3-10.3,6.8-13.6,10.6h-0.7V0h-37.7v165h34.9v-15.2h0.7c3.5,5.9,8.7,10.5,15.7,13.6c6.8,3.3,14.3,4.9,22,4.9
		c8.4,0,16.2-1.9,23-5.2c6.8-3.5,12.4-8.2,17.3-13.6c4.5-5.9,8.4-12.2,10.8-19.7c2.6-7.5,3.7-15.2,3.7-23.2c0-8.2-1.2-15.5-3.7-23
		C401.8,76.2,398.3,69.8,393.6,64.2z M369.9,117.6c-1.2,3.7-2.8,7-5.2,9.6c-2.3,2.8-5.2,5.2-8.7,6.8c-3.3,1.6-7.5,2.6-11.7,2.6
		c-4.5,0-8.4-0.9-11.5-2.6c-3.7-1.6-6.6-4-8.9-6.8c-2.6-2.6-4.2-5.9-5.6-9.4c-1.4-3.5-2.1-7-2.1-11c0-3.5,0.7-7.5,2.1-11
		c1.4-3.5,3-6.8,5.6-9.4c2.3-2.8,5.2-5.2,8.9-6.8c3-1.4,7-2.6,11.5-2.6c4.2,0,8.4,1.2,11.7,2.6c3.5,1.6,6.3,4,8.7,6.8
		c2.3,2.6,4,5.9,5.2,9.4c0.9,3.5,1.6,7.3,1.6,10.8C371.6,110.4,370.9,113.9,369.9,117.6z"/>
	<path d="M509.7,62.8h-1.2c-3.5-4.7-8.2-8.7-14.5-12.4c-6.3-3.5-14.1-5.2-22.3-5.2c-8.2,0-16.2,1.6-22.7,4.7
		c-7,3.5-12.7,7.7-17.3,13.4c-4.7,5.9-8.2,12.2-10.8,19.4c-2.8,7-4.4,15-4.4,23.2c0,7.7,1.6,15.7,4,23.4c2.3,7.5,6.3,14.1,11,19.2
		c4.7,5.9,10.1,10.6,17.6,14.1c6.6,3.3,14.5,5.2,22.7,5.2c7.5,0,14.1-1.6,20.4-4.7c6.6-2.3,11.2-6.6,14.8-11.5h0.9v13.1h38V49.4
		h-36.1V62.8z M506.9,116.9c-1.4,3.5-3.1,6.6-5.4,9.6c-2.8,2.8-5.4,4.9-9.1,7.3c-3.1,1.4-7,2.3-11.2,2.3c-4.7,0-8.2-0.9-12.2-2.3
		c-3.5-2.3-5.9-4.5-8.2-7.3c-2.3-3.1-4-6.1-5.2-9.6c-1.2-3.5-1.9-7-1.9-11c0-3.5,0.7-7,1.9-11c1.2-3.5,2.8-6.6,5.2-9.4
		c2.3-2.8,4.7-5.2,8.2-6.6c4-1.6,7.5-2.3,12.2-2.3c4.2,0,8.2,0.7,11.2,2.3c3.7,1.4,6.3,3.7,9.1,6.6c2.3,2.8,4,5.9,5.4,9.4
		c1.2,4,2.3,7.5,2.3,11C509.2,109.9,508,113.4,506.9,116.9z"/>
	<path d="M618.5,77.6c9.8,0,18,5.2,23.2,12.7l25.1-23.9c-11.5-13.8-28.6-22.5-48.3-22.5c-34.7,0-63,28.4-63,63
		c0,34.9,28.4,63.3,63,63.3c19.2,0,36.6-8.7,47.8-22l-25.1-24.4c-5.2,7.5-13.4,12.7-22.7,12.7c-15.5,0-27.6-13.6-27.6-29.5
		C590.8,90.7,603,77.6,618.5,77.6z"/>
	<polygon points="798.8,49.7 752.1,49.7 714.6,99.1 714.6,0 676,0 676,165.9 714.6,165.9 714.6,109.2 751.7,165.4 798.5,165.4 
		753.1,104.7 	"/>
</g>
</svg>
