<?xml version="1.0" encoding="UTF-8" standalone="no"?>
<svg
   xmlns:dc="http://purl.org/dc/elements/1.1/"
   xmlns:cc="http://creativecommons.org/ns#"
   xmlns:rdf="http://www.w3.org/1999/02/22-rdf-syntax-ns#"
   xmlns:svg="http://www.w3.org/2000/svg"
   xmlns="http://www.w3.org/2000/svg"
   id="svg20"
   version="1.1"
   viewBox="-506.152 -164.052 1013.607 167.524"
   class="Path_372">
  <metadata
     id="metadata26">
    <rdf:RDF>
      <cc:Work
         rdf:about="">
        <dc:format>image/svg+xml</dc:format>
        <dc:type
           rdf:resource="http://purl.org/dc/dcmitype/StillImage" />
        <dc:title></dc:title>
      </cc:Work>
    </rdf:RDF>
  </metadata>
  <defs
     id="defs24" />
  <path
     d="M -454.0724792480469 -81.375 L -454.0724792480469 -40.14500045776367 C -454.0724792480469 -35.08166885375977 -453.0959777832031 -31.2841682434082 -451.1430053710938 -28.75249862670898 C -449.1900024414062 -26.22083282470703 -445.6818237304688 -24.95499992370605 -440.6184997558594 -24.95499992370605 C -438.8824768066406 -24.95499992370605 -437.0379638671875 -25.09966659545898 -435.0849914550781 -25.38899993896484 C -433.1319885253906 -25.6783332824707 -431.5044860839844 -26.11233329772949 -430.2024841308594 -26.69099998474121 L -429.7684936523438 -0.6510000228881836 C -432.2278137207031 0.2170000076293945 -435.3381652832031 0.9764999747276306 -439.0994873046875 1.627499938011169 C -442.8608093261719 2.278500080108643 -446.6221618652344 2.604000091552734 -450.3834838867188 2.604000091552734 C -457.6168212890625 2.604000091552734 -463.6928100585938 1.699833393096924 -468.6114807128906 -0.1085000038146973 C -473.5301513671875 -1.916833400726318 -477.4723205566406 -4.520833015441895 -480.43798828125 -7.920499801635742 C -483.4036560058594 -11.32016658782959 -485.5374755859375 -15.3708324432373 -486.8394775390625 -20.07250022888184 C -488.1414794921875 -24.77416610717773 -488.79248046875 -30.01833343505859 -488.79248046875 -35.80500030517578 L -488.79248046875 -81.375 L -506.1524963378906 -81.375 L -506.1524963378906 -108.0660018920898 L -489.0094909667969 -108.0660018920898 L -489.0094909667969 -136.4929962158203 L -454.0724792480469 -136.4929962158203 L -454.0724792480469 -108.0660018920898 L -428.6834716796875 -108.0660018920898 L -428.6834716796875 -81.375 L -454.0724792480469 -81.375 Z M -373.3484802246094 -142.5690002441406 C -373.3484802246094 -139.8203277587891 -373.8909912109375 -137.2525024414062 -374.9759826660156 -134.8655090332031 C -376.0609741210938 -132.4785003662109 -377.5076599121094 -130.4170074462891 -379.3159790039062 -128.6809997558594 C -381.1243286132812 -126.9449996948242 -383.2943420410156 -125.5706634521484 -385.8259887695312 -124.5579986572266 C -388.3576354980469 -123.5453262329102 -390.997802734375 -123.0389938354492 -393.7464904785156 -123.0389938354492 C -399.5331420898438 -123.0389938354492 -404.3794860839844 -124.9558334350586 -408.2854919433594 -128.7895050048828 C -412.1914978027344 -132.6231689453125 -414.1445007324219 -137.2163391113281 -414.1445007324219 -142.5690002441406 C -414.1445007324219 -145.1730041503906 -413.6381530761719 -147.6685028076172 -412.62548828125 -150.0554962158203 C -411.6128234863281 -152.4425048828125 -410.1661376953125 -154.5039978027344 -408.2854919433594 -156.2400054931641 C -406.4048156738281 -157.9759979248047 -404.2348022460938 -159.3864898681641 -401.7754821777344 -160.4714965820312 C -399.316162109375 -161.5565032958984 -396.6398315429688 -162.0989990234375 -393.7464904785156 -162.0989990234375 C -390.997802734375 -162.0989990234375 -388.3576354980469 -161.5926666259766 -385.8259887695312 -160.5800018310547 C -383.2943420410156 -159.5673217773438 -381.1243286132812 -158.1929931640625 -379.3159790039062 -156.4570007324219 C -377.5076599121094 -154.7209930419922 -376.0609741210938 -152.6595001220703 -374.9759826660156 -150.2724914550781 C -373.8909912109375 -147.885498046875 -373.3484802246094 -145.3176727294922 -373.3484802246094 -142.5690002441406 Z M -411.5404968261719 0 L -411.5404968261719 -108.0660018920898 L -375.9524841308594 -108.0660018920898 L -375.9524841308594 0 L -411.5404968261719 0 Z M -209.7304992675781 0 L -209.7304992675781 -59.02400207519531 C -209.7304992675781 -62.0620002746582 -209.9474945068359 -64.99150085449219 -210.3814849853516 -67.8125 C -210.8154907226562 -70.63349914550781 -211.6111602783203 -73.05666351318359 -212.7684936523438 -75.08200073242188 C -213.9258270263672 -77.10733795166016 -215.4810028076172 -78.73483276367188 -217.4339904785156 -79.96450042724609 C -219.3869934082031 -81.19416809082031 -221.954833984375 -81.80899810791016 -225.1374969482422 -81.80899810791016 C -228.1755065917969 -81.80899810791016 -230.815673828125 -81.15799713134766 -233.0579986572266 -79.85600280761719 C -235.3003234863281 -78.55400085449219 -237.1809844970703 -76.81800079345703 -238.6999816894531 -74.64800262451172 C -240.2189788818359 -72.47799682617188 -241.3401489257812 -69.98249816894531 -242.0634918212891 -67.1614990234375 C -242.7868347167969 -64.34049987792969 -243.1484985351562 -61.41099548339844 -243.1484985351562 -58.37299728393555 L -243.1484985351562 0 L -278.7365112304688 0 L -278.7365112304688 -61.62800216674805 C -278.7365112304688 -67.84866333007812 -279.9661560058594 -72.767333984375 -282.4254760742188 -76.38400268554688 C -284.8848266601562 -80.00066375732422 -288.7908325195312 -81.80899810791016 -294.1434936523438 -81.80899810791016 C -299.7854919433594 -81.80899810791016 -304.1616821289062 -79.56666564941406 -307.2720031738281 -75.08200073242188 C -310.38232421875 -70.59732818603516 -311.9375 -65.09999847412109 -311.9375 -58.59000396728516 L -311.9375 0 L -347.7424926757812 0 L -347.7424926757812 -108.0660018920898 L -313.239501953125 -108.0660018920898 L -313.239501953125 -93.09299468994141 L -312.8054809570312 -93.09299468994141 C -311.5034790039062 -95.40766143798828 -309.8759765625 -97.64999389648438 -307.9230041503906 -99.81999969482422 C -305.9700012207031 -101.9899978637695 -303.6191711425781 -103.9068298339844 -300.8704833984375 -105.5704956054688 C -298.121826171875 -107.2341690063477 -295.0476684570312 -108.5723342895508 -291.6480102539062 -109.5849990844727 C -288.2483215332031 -110.5976715087891 -284.5231628417969 -111.10400390625 -280.4724731445312 -111.10400390625 C -272.6604919433594 -111.10400390625 -266.0419921875 -109.5126724243164 -260.6170043945312 -106.3300018310547 C -255.1920013427734 -103.147331237793 -250.9604949951172 -98.59033203125 -247.9224853515625 -92.65899658203125 C -244.3058319091797 -98.30100250244141 -239.6764984130859 -102.7856674194336 -234.0344848632812 -106.1129989624023 C -228.3925018310547 -109.4403381347656 -221.5208282470703 -111.10400390625 -213.4194946289062 -111.10400390625 C -206.0414886474609 -111.10400390625 -199.8569946289062 -109.7658386230469 -194.8659973144531 -107.0895004272461 C -189.875 -104.4131622314453 -185.8605041503906 -100.941162109375 -182.8224945068359 -96.67350006103516 C -179.7844848632812 -92.40583801269531 -177.5783233642578 -87.6318359375 -176.2039947509766 -82.35150146484375 C -174.8296508789062 -77.0711669921875 -174.1424865722656 -71.89933013916016 -174.1424865722656 -66.83599853515625 L -174.1424865722656 0 L -209.7304992675781 0 Z M -72.80349731445312 -66.40200042724609 C -72.80349731445312 -72.04399871826172 -74.57566833496094 -76.89033508300781 -78.12000274658203 -80.94100189208984 C -81.66432952880859 -84.99166870117188 -86.98082733154297 -87.01699829101562 -94.06950378417969 -87.01699829101562 C -97.54149627685547 -87.01699829101562 -100.7241668701172 -86.47450256347656 -103.6175003051758 -85.38950347900391 C -106.5108337402344 -84.30450439453125 -109.0424957275391 -82.82167053222656 -111.2124938964844 -80.94100189208984 C -113.3824996948242 -79.06033325195312 -115.1184997558594 -76.85417175292969 -116.4205017089844 -74.32250213623047 C -117.7224960327148 -71.79083251953125 -118.4458312988281 -69.15066528320312 -118.5904998779297 -66.40200042724609 L -72.80349731445312 -66.40200042724609 Z M -40.03649139404297 -52.73099899291992 C -40.03649139404297 -51.28433227539062 -40.03649139404297 -49.83766937255859 -40.03649139404297 -48.3910026550293 C -40.03649139404297 -46.9443359375 -40.10882949829102 -45.56999969482422 -40.25350189208984 -44.26799774169922 L -118.5904998779297 -44.26799774169922 C -118.3011627197266 -41.22999954223633 -117.3969955444336 -38.48133087158203 -115.8779983520508 -36.02199935913086 C -114.359001159668 -33.56266784667969 -112.4059982299805 -31.4288330078125 -110.0189971923828 -29.6205005645752 C -107.6319961547852 -27.81216621398926 -104.9556579589844 -26.40166664123535 -101.989990234375 -25.38899993896484 C -99.02433013916016 -24.37633323669434 -95.95016479492188 -23.86999893188477 -92.76750183105469 -23.86999893188477 C -87.12549591064453 -23.86999893188477 -82.35149383544922 -24.91883277893066 -78.44549560546875 -27.01650047302246 C -74.53949737548828 -29.11416625976562 -71.35683441162109 -31.8266658782959 -68.89749145507812 -35.15399932861328 L -44.15950012207031 -19.53000068664551 C -49.22282791137695 -12.15200042724609 -55.91365814208984 -6.473833560943604 -64.23199462890625 -2.495500087738037 C -72.55033111572266 1.482833385467529 -82.20683288574219 3.472000122070312 -93.20149993896484 3.472000122070312 C -101.3028335571289 3.472000122070312 -108.9701690673828 2.206166744232178 -116.203498840332 -0.3255000114440918 C -123.4368286132812 -2.857166528701782 -129.7659912109375 -6.54616641998291 -135.1909942626953 -11.39249992370605 C -140.6159973144531 -16.23883438110352 -144.8836669921875 -22.20633316040039 -147.9940032958984 -29.29500198364258 C -151.1043395996094 -36.3836669921875 -152.6595001220703 -44.48500061035156 -152.6595001220703 -53.5989990234375 C -152.6595001220703 -62.42366790771484 -151.1405029296875 -70.41649627685547 -148.1024932861328 -77.57749938964844 C -145.0644989013672 -84.73850250244141 -140.9414978027344 -90.81449890136719 -135.7334899902344 -95.80550384521484 C -130.5254974365234 -100.796501159668 -124.3771591186523 -104.6663360595703 -117.2884979248047 -107.4150009155273 C -110.199836730957 -110.1636657714844 -102.5325012207031 -111.5380020141602 -94.2864990234375 -111.5380020141602 C -86.32982635498047 -111.5380020141602 -79.02416229248047 -110.199836730957 -72.36949920654297 -107.5234985351562 C -65.71482849121094 -104.84716796875 -60.00049591064453 -100.9773330688477 -55.22649383544922 -95.91400146484375 C -50.45249176025391 -90.85066986083984 -46.72732543945312 -84.70233154296875 -44.05099487304688 -77.46900177001953 C -41.37466049194336 -70.23567199707031 -40.03649139404297 -61.98966979980469 -40.03649139404297 -52.73099899291992 Z M 120.1094970703125 0 L 120.1094970703125 -59.02400207519531 C 120.1094970703125 -62.0620002746582 119.8925018310547 -64.99150085449219 119.4585113525391 -67.8125 C 119.0245132446289 -70.63349914550781 118.2288436889648 -73.05666351318359 117.0715026855469 -75.08200073242188 C 115.9141616821289 -77.10733795166016 114.359001159668 -78.73483276367188 112.406005859375 -79.96450042724609 C 110.4530029296875 -81.19416809082031 107.8851699829102 -81.80899810791016 104.7024993896484 -81.80899810791016 C 101.6644973754883 -81.80899810791016 99.02433013916016 -81.15799713134766 96.78199768066406 -79.85600280761719 C 94.5396728515625 -78.55400085449219 92.65901184082031 -76.81800079345703 91.14000701904297 -74.64800262451172 C 89.62100219726562 -72.47799682617188 88.49983978271484 -69.98249816894531 87.77650451660156 -67.1614990234375 C 87.05316925048828 -64.34049987792969 86.69150543212891 -61.41099548339844 86.69150543212891 -58.37299728393555 L 86.69150543212891 0 L 51.10350036621094 0 L 51.10350036621094 -61.62800216674805 C 51.10350036621094 -67.84866333007812 49.87383651733398 -72.767333984375 47.41450500488281 -76.38400268554688 C 44.95516967773438 -80.00066375732422 41.04916763305664 -81.80899810791016 35.69650268554688 -81.80899810791016 C 30.05450439453125 -81.80899810791016 25.67833709716797 -79.56666564941406 22.56800079345703 -75.08200073242188 C 19.45767021179199 -70.59732818603516 17.90250396728516 -65.09999847412109 17.90250396728516 -58.59000396728516 L 17.90250396728516 0 L -17.90249633789062 0 L -17.90249633789062 -108.0660018920898 L 16.60050582885742 -108.0660018920898 L 16.60050582885742 -93.09299468994141 L 17.03450012207031 -93.09299468994141 C 18.33650207519531 -95.40766143798828 19.96400260925293 -97.64999389648438 21.9170036315918 -99.81999969482422 C 23.87000465393066 -101.9899978637695 26.22083854675293 -103.9068298339844 28.96950531005859 -105.5704956054688 C 31.71816825866699 -107.2341690063477 34.79233169555664 -108.5723342895508 38.19200134277344 -109.5849990844727 C 41.59167098999023 -110.5976715087891 45.31683731079102 -111.10400390625 49.36750793457031 -111.10400390625 C 57.17950439453125 -111.10400390625 63.79800033569336 -109.5126724243164 69.22299957275391 -106.3300018310547 C 74.64800262451172 -103.147331237793 78.87950134277344 -98.59033203125 81.91750335693359 -92.65899658203125 C 85.53417205810547 -98.30100250244141 90.16350555419922 -102.7856674194336 95.80550384521484 -106.1129989624023 C 101.4474945068359 -109.4403381347656 108.3191604614258 -111.10400390625 116.4205017089844 -111.10400390625 C 123.7985000610352 -111.10400390625 129.9830017089844 -109.7658386230469 134.9739990234375 -107.0895004272461 C 139.9649963378906 -104.4131622314453 143.9794921875 -100.941162109375 147.0175018310547 -96.67350006103516 C 150.0555114746094 -92.40583801269531 152.2616729736328 -87.6318359375 153.6360015869141 -82.35150146484375 C 155.0103454589844 -77.0711669921875 155.697509765625 -71.89933013916016 155.697509765625 -66.83599853515625 L 155.697509765625 0 L 120.1094970703125 0 Z M 246.4035339355469 -47.08899688720703 L 241.8465270996094 -47.08899688720703 C 237.9405364990234 -47.08899688720703 233.9983673095703 -46.90816497802734 230.02001953125 -46.5464973449707 C 226.0416870117188 -46.18482971191406 222.4973602294922 -45.49766540527344 219.3870239257812 -44.48500061035156 C 216.2766876220703 -43.47233200073242 213.7088623046875 -41.98949813842773 211.6835327148438 -40.0364990234375 C 209.658203125 -38.08349990844727 208.6455383300781 -35.51566696166992 208.6455383300781 -32.33300018310547 C 208.6455383300781 -30.30766868591309 209.1157073974609 -28.57166862487793 210.0560302734375 -27.125 C 210.9963531494141 -25.6783332824707 212.1898651123047 -24.52099990844727 213.6365356445312 -23.65299987792969 C 215.0831909179688 -22.78499984741211 216.7468566894531 -22.170166015625 218.6275329589844 -21.80850028991699 C 220.5081939697266 -21.44683265686035 222.3165283203125 -21.26599884033203 224.0525207519531 -21.26599884033203 C 231.2858581542969 -21.26599884033203 236.8193664550781 -23.25516510009766 240.6530303955078 -27.23349952697754 C 244.4866943359375 -31.21183395385742 246.4035339355469 -36.60066604614258 246.4035339355469 -43.40000152587891 L 246.4035339355469 -47.08899688720703 Z M 181.0865325927734 -93.31000518798828 C 187.4518585205078 -99.38600158691406 194.8660278320312 -103.943000793457 203.3290252685547 -106.9810028076172 C 211.7920227050781 -110.0190048217773 220.4358673095703 -111.5380020141602 229.2605285644531 -111.5380020141602 C 238.3745269775391 -111.5380020141602 246.0780334472656 -110.4168319702148 252.3710327148438 -108.1744995117188 C 258.6640319824219 -105.9321670532227 263.7635192871094 -102.4601669311523 267.6695251464844 -97.75849914550781 C 271.5755310058594 -93.05683135986328 274.4327087402344 -87.12550354003906 276.2410278320312 -79.96450042724609 C 278.0493469238281 -72.80349731445312 278.9535217285156 -64.30433654785156 278.9535217285156 -54.46699905395508 L 278.9535217285156 0 L 246.4035339355469 0 L 246.4035339355469 -11.50099945068359 L 245.7525329589844 -11.50099945068359 C 243.0038604736328 -7.016333103179932 238.8446960449219 -3.544333457946777 233.2750244140625 -1.084999918937683 C 227.7053680419922 1.374333500862122 221.66552734375 2.604000091552734 215.1555328369141 2.604000091552734 C 210.8155364990234 2.604000091552734 206.3308715820312 2.025333404541016 201.7015228271484 0.8680000305175781 C 197.0721893310547 -0.2893333435058594 192.8406982421875 -2.170000076293945 189.0070343017578 -4.77400016784668 C 185.1733703613281 -7.377999782562256 182.0268707275391 -10.84999942779541 179.5675354003906 -15.19000053405762 C 177.1082000732422 -19.53000068664551 175.8785247802734 -24.88266754150391 175.8785247802734 -31.24799919128418 C 175.8785247802734 -39.05999755859375 178.0123596191406 -45.35300064086914 182.280029296875 -50.12700271606445 C 186.5476989746094 -54.9010009765625 192.0450286865234 -58.59000015258789 198.7720336914062 -61.19400024414062 C 205.4990386962891 -63.79800415039062 212.9855346679688 -65.53400421142578 221.2315368652344 -66.40200042724609 C 229.4775238037109 -67.27000427246094 237.5065307617188 -67.70400238037109 245.3185272216797 -67.70400238037109 L 245.3185272216797 -69.43999481201172 C 245.3185272216797 -74.79266357421875 243.4378662109375 -78.73483276367188 239.6765289306641 -81.26650238037109 C 235.9151916503906 -83.79816436767578 231.2858581542969 -85.06399536132812 225.7885284423828 -85.06399536132812 C 220.7251892089844 -85.06399536132812 215.8426971435547 -83.97899627685547 211.1410217285156 -81.80899810791016 C 206.4393615722656 -79.63899993896484 202.4248657226562 -77.03500366210938 199.0975341796875 -73.99700164794922 L 181.0865325927734 -93.31000518798828 Z M 375.5184936523438 -78.98799896240234 C 373.9271545410156 -79.4219970703125 372.3719787597656 -79.71133422851562 370.8529968261719 -79.85600280761719 C 369.333984375 -80.00066375732422 367.8511657714844 -80.072998046875 366.4044799804688 -80.072998046875 C 361.6304931640625 -80.072998046875 357.6159973144531 -79.20500183105469 354.3609924316406 -77.46900177001953 C 351.1059875488281 -75.73300170898438 348.5019836425781 -73.63533020019531 346.5489807128906 -71.17600250244141 C 344.5959777832031 -68.71666717529297 343.1854858398438 -66.04033660888672 342.3175048828125 -63.14700317382812 C 341.4494934082031 -60.25366592407227 341.0155029296875 -57.72200012207031 341.0155029296875 -55.552001953125 L 341.0155029296875 0 L 305.427490234375 0 L 305.427490234375 -108.0660018920898 L 339.7135009765625 -108.0660018920898 L 339.7135009765625 -92.44200134277344 L 340.1474914550781 -92.44200134277344 C 342.8961486816406 -97.9393310546875 346.8021545410156 -102.4239959716797 351.865478515625 -105.8960037231445 C 356.9288024902344 -109.3680038452148 362.7878112792969 -111.10400390625 369.4425048828125 -111.10400390625 C 370.88916015625 -111.10400390625 372.2996520996094 -111.0316696166992 373.6740112304688 -110.8869934082031 C 375.0483093261719 -110.7423324584961 376.1694641113281 -110.5253295898438 377.0374755859375 -110.2360000610352 L 375.5184936523438 -78.98799896240234 Z M 507.4544982910156 0 L 463.4035034179688 0 L 428.0325012207031 -51.86299896240234 L 427.3815002441406 -51.86299896240234 L 427.3815002441406 0 L 391.5765075683594 0 L 391.5765075683594 -164.052001953125 L 427.3815002441406 -164.052001953125 L 427.3815002441406 -64.23200225830078 L 428.0325012207031 -64.23200225830078 L 462.5354919433594 -108.0660018920898 L 505.718505859375 -108.0660018920898 L 464.0545043945312 -59.24100112915039 L 507.4544982910156 0 Z"
     id="Path_372" />
</svg>
