<?xml version="1.0" encoding="utf-8"?>
<!-- Generator: Adobe Illustrator 24.2.1, SVG Export Plug-In . SVG Version: 6.00 Build 0)  -->
<svg version="1.1"
	 id="svg20" xmlns:cc="http://creativecommons.org/ns#" xmlns:dc="http://purl.org/dc/elements/1.1/" xmlns:rdf="http://www.w3.org/1999/02/22-rdf-syntax-ns#" xmlns:svg="http://www.w3.org/2000/svg"
	 xmlns="http://www.w3.org/2000/svg" xmlns:xlink="http://www.w3.org/1999/xlink" x="0px" y="0px" viewBox="0 0 1026.8 179.5"
	 style="enable-background:new 0 0 1026.8 179.5;" xml:space="preserve">
<g>
	<path d="M109.2,0C97.5,0,88.1,9.1,88.1,21.1c0,11.7,9.4,21.1,21.1,21.1s21.1-9.4,21.1-21.1C130.3,9.1,120.9,0,109.2,0z"/>
	<g>
		<rect x="90" y="58.6" width="38.4" height="116.7"/>
		<path d="M319.2,70.5c-3.3-4.5-7.5-8.4-12.9-11.2c-5.4-2.8-12.2-4.2-20.1-4.2c-8.7,0-16.2,1.6-22.3,5.4
			c-6.1,3.5-11.2,8.2-15.2,14.5c-3.3-6.6-7.7-11.2-13.6-14.8c-5.9-3.5-12.9-5.2-21.6-5.2c-4.4,0-8.2,0.5-12.2,1.6
			c-3.5,0.9-6.8,2.6-9.8,4.2c-2.8,1.6-5.4,4-7.7,6.1c-2.1,2.6-3.7,4.9-5.2,7.5h-0.5V58.4h-37.5v116.9h38.9v-71.9
			c0-9.8,8.2-17.8,18-17.8s17.8,8,17.8,17.8v71.9H254v-71.7c0-10.1,8-18,18-18c9.8,0,18,8,18,18v71.7h38.7v-72.4
			c0-5.6-0.7-11-2.3-16.9C325,80.4,322.5,75.2,319.2,70.5z"/>
		<path d="M653.5,70.5c-3.3-4.5-7.5-8.4-12.9-11.2c-5.4-2.8-12.2-4.2-20.1-4.2c-8.7,0-16.2,1.6-22.3,5.4C592.1,64,587,68.7,583,75
			c-3.3-6.6-7.7-11.2-13.6-14.8c-5.9-3.5-12.9-5.2-21.6-5.2c-4.4,0-8.2,0.5-12.2,1.6c-3.5,0.9-6.8,2.6-9.8,4.2
			c-2.8,1.6-5.4,4-7.7,6.1c-2.1,2.6-3.7,4.9-5.2,7.5h-0.5V58.4H475v116.9h38.9v-71.9c0-9.8,8.2-17.8,18-17.8s17.8,8,17.8,17.8v71.9
			h38.7v-71.7c0-10.1,8-18,18-18c9.8,0,18,8,18,18v71.7h38.7v-72.4c0-5.6-0.7-11-2.3-16.9C659.4,80.4,656.8,75.2,653.5,70.5z"/>
		<path d="M767,72.2h-1.2c-3.5-4.7-8.2-8.7-14.5-12.4c-6.3-3.5-14.1-5.2-22.3-5.2c-8.2,0-16.2,1.6-22.7,4.7
			c-7,3.5-12.7,7.7-17.3,13.4c-4.7,5.9-8.2,12.2-10.8,19.4c-2.8,7-4.4,15-4.4,23.2c0,7.7,1.6,15.7,4,23.4c2.3,7.5,6.3,14.1,11,19.2
			c4.7,5.9,10.1,10.6,17.6,14.1c6.6,3.3,14.5,5.2,22.7,5.2c7.5,0,14.1-1.6,20.4-4.7c6.6-2.3,11.2-6.6,14.8-11.5h0.9v13.1h38V58.8
			H767V72.2z M764.2,126.3c-1.4,3.5-3.1,6.6-5.4,9.6c-2.8,2.8-5.4,4.9-9.1,7.3c-3.1,1.4-7,2.3-11.2,2.3c-4.7,0-8.2-0.9-12.2-2.3
			c-3.5-2.3-5.9-4.5-8.2-7.3c-2.3-3.1-4-6.1-5.2-9.6c-1.2-3.5-1.9-7-1.9-11c0-3.5,0.7-7,1.9-11c1.2-3.5,2.8-6.6,5.2-9.4
			c2.3-2.8,4.7-5.2,8.2-6.6c4-1.6,7.5-2.3,12.2-2.3c4.2,0,8.2,0.7,11.2,2.3c3.7,1.4,6.3,3.7,9.1,6.6c2.3,2.8,4,5.9,5.4,9.4
			c1.2,4,2.3,7.5,2.3,11C766.6,119.3,765.4,122.8,764.2,126.3z"/>
		<path d="M885.7,55.1c-7.5,0-13.8,1.9-19.2,5.6c-5.6,4-9.8,8.7-12.7,14.5h-0.5V58.4h-37v116.9h38.4v-57.4
			c0-15.7,12.7-28.6,28.4-29.1h0.7c1.2,0,2.1,0,3.3,0.2c1.6,0.2,3.3,0.5,4.9,0.9l1.6-34c-0.9-0.5-2.1-0.7-3.5-0.7
			C888.5,55.1,887.1,55.1,885.7,55.1z"/>
		<polygon points="1026.8,59.1 980.1,59.1 942.6,108.5 942.6,9.4 904,9.4 904,175.3 942.6,175.3 942.6,118.6 979.7,174.8 
			1026.5,174.8 981.1,114.1 		"/>
		<path d="M56.2,22.6H22.6v16.8c0,10.2-8.3,18.5-18.5,18.5H0v31.4h18.4v51.8c0,0.5,0,1.1,0,1.6v0.3c1,19.4,16.6,35,36,36
			c0,0,6.5,0,7.5,0c5.6,0,10.9-1.1,15.8-3v-31.6c-2.1,1.3-4.6,2-7.2,2c-7.9,0-14.3-6.4-14.3-14.3V89.3h21.5V57.9H56.2V22.6z"/>
		<path d="M401.9,53c-38.1,0-61.4,27.8-61.4,63.3c0,39.7,25,63.3,61.4,63.3c23.2,0,44.1-9.1,55.8-24.6l-30.5-19
			c-5.2,8.9-13.8,12-23.4,12.2c-10.3,0.2-27.2-4.7-27.4-21.3h86c0.7-3.5,0.9-7,0.9-10.8C463.3,80.5,438.9,53,401.9,53z M377.5,102.2
			c1.6-13.6,12.4-19.7,23.7-19.7c10.3,0,22.3,3.5,23.9,19.7H377.5z"/>
	</g>
</g>
</svg>
