<?xml version="1.0" encoding="utf-8"?>
<!-- Generator: Adobe Illustrator 25.0.1, SVG Export Plug-In . SVG Version: 6.00 Build 0)  -->
<svg version="1.1"
	 id="svg20" xmlns:cc="http://creativecommons.org/ns#" xmlns:dc="http://purl.org/dc/elements/1.1/" xmlns:rdf="http://www.w3.org/1999/02/22-rdf-syntax-ns#" xmlns:svg="http://www.w3.org/2000/svg"
	 xmlns="http://www.w3.org/2000/svg" xmlns:xlink="http://www.w3.org/1999/xlink" x="0px" y="0px" viewBox="0 0 1080 250"
	 style="enable-background:new 0 0 1080 250;" xml:space="preserve">
<g>
	<path d="M135.8,35.2c-11.7,0-21.1,9.1-21.1,21.1c0,11.7,9.4,21.1,21.1,21.1s21.1-9.4,21.1-21.1C156.9,44.3,147.5,35.2,135.8,35.2z"
		/>
	<g>
		<rect x="116.6" y="93.8" width="38.4" height="116.7"/>
		<path d="M345.8,105.8c-3.3-4.5-7.5-8.4-12.9-11.2c-5.4-2.8-12.2-4.2-20.1-4.2c-8.7,0-16.2,1.6-22.3,5.4
			c-6.1,3.5-11.2,8.2-15.2,14.5c-3.3-6.6-7.7-11.2-13.6-14.8c-5.9-3.5-12.9-5.2-21.6-5.2c-4.4,0-8.2,0.5-12.2,1.6
			c-3.5,0.9-6.8,2.6-9.8,4.2c-2.8,1.6-5.4,4-7.7,6.1c-2.1,2.6-3.7,4.9-5.2,7.5h-0.5v-16h-37.5v116.9h38.9v-71.9
			c0-9.8,8.2-17.8,18-17.8s17.8,8,17.8,17.8v71.9h38.7v-71.7c0-10.1,8-18,18-18c9.8,0,18,8,18,18v71.7h38.7v-72.4
			c0-5.6-0.7-11-2.3-16.9C351.6,115.7,349.1,110.4,345.8,105.8z"/>
		<path d="M680.1,105.8c-3.3-4.5-7.5-8.4-12.9-11.2c-5.4-2.8-12.2-4.2-20.1-4.2c-8.7,0-16.2,1.6-22.3,5.4
			c-6.1,3.5-11.2,8.2-15.2,14.5c-3.3-6.6-7.7-11.2-13.6-14.8c-5.9-3.5-12.9-5.2-21.6-5.2c-4.4,0-8.2,0.5-12.2,1.6
			c-3.5,0.9-6.8,2.6-9.8,4.2c-2.8,1.6-5.4,4-7.7,6.1c-2.1,2.6-3.7,4.9-5.2,7.5H539v-16h-37.4v116.9h38.9v-71.9
			c0-9.8,8.2-17.8,18-17.8s17.8,8,17.8,17.8v71.9H615v-71.7c0-10.1,8-18,18-18c9.8,0,18,8,18,18v71.7h38.7v-72.4
			c0-5.6-0.7-11-2.3-16.9C686,115.7,683.4,110.4,680.1,105.8z"/>
		<path d="M793.6,107.4h-1.2c-3.5-4.7-8.2-8.7-14.5-12.4c-6.3-3.5-14.1-5.2-22.3-5.2s-16.2,1.6-22.7,4.7c-7,3.5-12.7,7.7-17.3,13.4
			c-4.7,5.9-8.2,12.2-10.8,19.4c-2.8,7-4.4,15-4.4,23.2c0,7.7,1.6,15.7,4,23.4c2.3,7.5,6.3,14.1,11,19.2
			c4.7,5.9,10.1,10.6,17.6,14.1c6.6,3.3,14.5,5.2,22.7,5.2c7.5,0,14.1-1.6,20.4-4.7c6.6-2.3,11.2-6.6,14.8-11.5h0.9v13.1h38V94.1
			h-36.2V107.4z M790.8,161.6c-1.4,3.5-3.1,6.6-5.4,9.6c-2.8,2.8-5.4,4.9-9.1,7.3c-3.1,1.4-7,2.3-11.2,2.3c-4.7,0-8.2-0.9-12.2-2.3
			c-3.5-2.3-5.9-4.5-8.2-7.3c-2.3-3.1-4-6.1-5.2-9.6c-1.2-3.5-1.9-7-1.9-11c0-3.5,0.7-7,1.9-11c1.2-3.5,2.8-6.6,5.2-9.4
			c2.3-2.8,4.7-5.2,8.2-6.6c4-1.6,7.5-2.3,12.2-2.3c4.2,0,8.2,0.7,11.2,2.3c3.7,1.4,6.3,3.7,9.1,6.6c2.3,2.8,4,5.9,5.4,9.4
			c1.2,4,2.3,7.5,2.3,11C793.2,154.6,792,158.1,790.8,161.6z"/>
		<path d="M912.3,90.3c-7.5,0-13.8,1.9-19.2,5.6c-5.6,4-9.8,8.7-12.7,14.5h-0.5V93.7h-37v116.9h38.4v-57.4
			c0-15.7,12.7-28.6,28.4-29.1h0.7c1.2,0,2.1,0,3.3,0.2c1.6,0.2,3.3,0.5,4.9,0.9l1.6-34c-0.9-0.5-2.1-0.7-3.5-0.7
			C915.1,90.3,913.7,90.3,912.3,90.3z"/>
		<polygon points="1053.4,94.3 1006.7,94.3 969.2,143.8 969.2,44.7 930.6,44.7 930.6,210.6 969.2,210.6 969.2,153.9 1006.3,210.1 
			1053.1,210.1 1007.7,149.4 		"/>
		<path d="M82.8,57.8H49.2v16.8c0,10.2-8.3,18.5-18.5,18.5h-4.1v31.4H45v51.8c0,0.5,0,1.1,0,1.6v0.3c1,19.4,16.6,35,36,36
			c0,0,6.5,0,7.5,0c5.6,0,10.9-1.1,15.8-3v-31.6c-2.1,1.3-4.6,2-7.2,2c-7.9,0-14.3-6.4-14.3-14.3v-42.8h21.5V93.2H82.8V57.8z"/>
		<path d="M428.5,88.2c-38.1,0-61.4,27.8-61.4,63.3c0,39.7,25,63.3,61.4,63.3c23.2,0,44.1-9.1,55.8-24.6l-30.5-19
			c-5.2,8.9-13.8,12-23.4,12.2c-10.3,0.2-27.2-4.7-27.4-21.3h86c0.7-3.5,0.9-7,0.9-10.8C489.9,115.8,465.5,88.2,428.5,88.2z
			 M404.1,137.4c1.6-13.6,12.4-19.7,23.7-19.7c10.3,0,22.3,3.5,23.9,19.7H404.1z"/>
	</g>
</g>
</svg>
